<svg xmlns="http://www.w3.org/2000/svg">
<defs>
<font id="GTSectraFine-Book" horiz-adv-x="620" >
  <font-face 
    font-family="GT Sectra Fine Book"
    font-weight="300"
    font-stretch="normal"
    units-per-em="1000"
    panose-1="0 0 4 0 0 0 0 0 0 0"
    ascent="750"
    descent="-250"
    x-height="465"
    cap-height="701"
    bbox="-473 -247 1137 915"
    underline-thickness="50"
    underline-position="-100"
    unicode-range="U+000D-FB02"
  />
<missing-glyph horiz-adv-x="625" 
d="M462 -29l-30 1l-24 18h-14l-8 8l7 76l-4 47l-61 1l-3 -52l-2 -56v-20l-15 -6l-8 6l-30 -10h-32l-1 11l11 11l50 21l-6 96l-98 -6l-147 140l-4 115l-13 10l-10 36v26l15 8l-3 78l92 -62l9 47l10 36l22 35l28 35l39 29l78 29h22l-68 22l4 17h7l79 -20l-4 51l16 12h32l19 -5
l29 -25l32 -8l32 -10l15 -13v-20l-20 -31l30 -28l28 -32l18 -34l15 -41l9 -54l-3 -41l-8 -35l-12 -31l-3 -156l-21 -7l-50 70l-27 -7l-19 -140l-32 4l-7 -4l-4 -94l30 -19l16 -14zM208 540h5l36 24h32l18 -12l8 3l4 14l7 5l10 -4v-18h8l10 22l11 8l-5 6l-3 8l1 21l-30 -10
l-10 -8l-8 5l4 21l14 10l11 11l38 -2l12 13l-4 8h-49l-45 -13l-53 -26l-29 -23l-25 -34l29 12l13 -15l-17 -20l-10 -3zM388 608l3 17l-7 17l-8 -9v-19zM436 564h13l6 6l-9 18l17 28l-15 9v5l-25 7v-20l-13 -5v-9l-9 -6l-3 -12l5 -6l19 11l8 -2zM515 406l18 12h23l6 11l-18 6
l-5 9l9 42h7l14 -20l17 -1l-8 37l-19 50l-20 36l-23 28l-34 21h-11l17 -19l25 -10l11 -11l3 -33l-25 13l-15 -29l12 -8v-19l15 3l-12 26l15 -5l10 -20l-5 -12l-8 -7h-23l-3 11l-12 2l1 -22h-14l14 -18l-7 -10l-21 5l-3 -27l41 6l8 17l22 -2l6 -28l-16 -13v-15zM461 514l2 7
l-2 9l-8 -4v-9zM184 498l59 12l-4 12zM366 491l3 4l-48 25l-4 -12zM72 254v180l57 -32l7 10l-68 38v18l59 -34l43 -28l28 -14l3 10l-103 64l-13 7l-41 33l2 -78l19 -17v-5h-21l19 -14l1 -11l-20 7l18 -18l-4 -7l3 -97zM227 432l11 5l16 12l6 12l2 13l-22 -4l6 -10l-12 -13
l-14 -1l-6 8l1 4l14 2l-13 6l2 7l-20 -1l3 -19l14 -15zM329 430l18 10l6 9l5 20l-30 2l7 -5l1 -11l-7 -11h-12l-5 7l11 8l-15 2v6l-23 4l3 -17l8 -14l20 -9zM201 130l18 4l2 40l41 -3l3 9l-44 6v16l48 -6l1 9l-47 7l1 22l43 -3l3 6l-45 9l3 94h74l11 10h-79l2 9h74l8 7h-82

<glyph glyph-name="fi" unicode="fi" horiz-adv-x="562" 
d="M36 -1l-2 20l70 7v408h-79v8l15 21h64v11q0 47 9.5 77.5t34.5 60.5l87 98h240v-91h-16l-69 20h-178l-12 -18q-16 -31 -16 -119v-42h193l66 10l27 2v-446l72 -7l-2 -20l-109 2l-97 -2l-3 21l59 6v392l3 20l-18 -4h-191v-408l93 -6l-2 -20l-128 1z" />
    <glyph glyph-name="fl" unicode="fl" horiz-adv-x="563" 
d="M37 -1l-3 20l70 7v408h-79v8l15 21h64v11q0 48 9.5 79t34.5 59l87 98h143l65 2h32v-686l73 -7l-3 -20l-107 2l-104 -2l-3 20l64 7v408h-211v-408l98 -6l-2 -21l-132 2zM184 460h211v189l-28 -10h-155l-12 -18q-16 -31 -16 -119v-42z" />
    <glyph glyph-name="f_f" unicode="ff" horiz-adv-x="616" 
d="M36 -1l-2 20l70 7v408h-79v8l15 21h64v2q0 48 11.5 78.5t37.5 59.5l82 93h152l-60 -71h-116l-11 -18q-16 -31 -16 -116v-31h211v14q0 48 10 79t35 59l87 98h115v-71h-140l-11 -18q-16 -31 -16 -119v-42h124v-26h-124v-408l115 -6l-3 -21l-147 2l-101 -2l-2 20l58 7v408
h-211v-408l98 -6l-2 -21l-133 2z" />
    <glyph glyph-name="f_f_i" unicode="ffi" horiz-adv-x="854" 
d="M36 -1l-2 20l70 7v408h-79v8l15 21h64v2q0 47 11.5 77.5t37.5 60.5l82 93h152l-60 -71h-116l-11 -18q-16 -31 -16 -116v-31h211v14q0 48 10 79t35 59l87 98h239v-91h-15l-70 20h-178l-12 -18q-16 -31 -16 -119v-42h193l66 11l27 1v-446l73 -7l-3 -20l-108 2l-98 -2l-2 21
l58 6v392l3 20l-17 -4h-192v-408l93 -6l-2 -21l-126 2l-112 -2l-3 20l70 7v408h-211v-408l98 -6l-2 -21l-132 2z" />
    <glyph glyph-name="f_f_l" unicode="ffl" horiz-adv-x="854" 
d="M36 -1l-2 20l70 7v408h-79v8l15 21h64v2q0 48 11.5 78.5t37.5 59.5l82 93h153l-61 -71h-116l-11 -18q-16 -31 -16 -116v-31h211v14q0 48 10 79t35 59l87 98h150l49 2h40v-686l73 -7l-3 -20l-107 2l-104 -2l-3 20l65 7v408h-212v-408l99 -6l-3 -21l-131 2l-101 -2l-2 20
l58 7v408h-211v-408l98 -6l-2 -21l-133 2zM475 460h212v189l-29 -10h-155l-12 -18q-16 -31 -16 -119v-42z" />
    <glyph glyph-name="T_h.liga" unicode="Th" horiz-adv-x="1045" 
d="M148 -1l-3 20l107 10v643l-158 -2l-55 -152h-22v183h537l84 14l19 -1v-338l164 104q77 0 103 -35.5t26 -126.5v-291l78 -8l-3 -20l-113 2l-91 -2l-2 20l51 8v306q0 84 -67 84q-16 0 -36.5 -7.5t-32 -14t-41.5 -24.5l-36 -22v-322l54 -8l-2 -20l-90 2l-104 -2l-2 20l64 8
v646l-17 -3l-218 2v-643l103 -10l-2 -20l-144 2z" />
    <glyph glyph-name="f_b.liga" unicode="fb" horiz-adv-x="841" 
d="M558 -15q-40 0 -72.5 6.5t-50.5 14t-41 21.5v622l-29 -10h-154l-12 -19q-15 -30 -15 -120v-40h123v-26h-123v-407l114 -6l-2 -22l-150 2l-110 -2l-2 20l70 8v407h-79v8l15 21h64v11q0 48 9.5 79t34.5 59l87 98h134l57 2h48v-327l139 95q80 0 134 -59.5t54 -159.5
q0 -236 -243 -276zM578 17q60 0 99 58.5t39 155.5q0 84 -30.5 135t-85.5 51q-40 0 -97 -40l-29 -21v-293q33 -46 104 -46z" />
    <glyph glyph-name="f_f_b.liga" unicode="ffb" horiz-adv-x="1132" 
d="M849 -15q-58 0 -92.5 10.5t-71.5 31.5v622l-28 -10h-155l-12 -19q-15 -33 -15 -120v-40h123v-26h-123v-407l115 -6l-3 -22l-147 2l-101 -2l-3 20l59 7v408h-211v-408l98 -6l-2 -21l-133 2l-111 -2l-2 20l70 7v408h-79v8l15 21h64v2q0 48 11.5 78.5t37.5 59.5l82 93h152
l-60 -71h-116l-11 -18q-16 -31 -16 -116v-31h211v14q0 48 10 79t35 59l87 98h147l40 2h51v-327l139 95q80 0 134 -59.5t54 -159.5q0 -236 -243 -276zM869 17q60 0 99 58.5t39 155.5q0 84 -30.5 135t-85.5 51q-40 0 -97 -40l-29 -21v-293q33 -46 104 -46z" />
    <glyph glyph-name="f_f_h.liga" unicode="ffh" horiz-adv-x="1154" 
d="M36 -1l-2 20l70 7v408h-79v8l15 21h64v2q0 48 11.5 78.5t37.5 59.5l82 93h152l-60 -71h-116l-11 -18q-16 -31 -16 -116v-31h211v14q0 48 10 79t35 59l87 98h148l39 2h52v-336l164 104q79 0 104 -36t25 -126v-291l78 -8l-2 -20l-113 2l-91 -2l-3 20l51 8v306
q0 45 -16.5 64.5t-49.5 19.5q-35 0 -110 -46l-37 -22v-322l55 -8l-2 -20l-91 2l-103 -2l-3 20l65 8v622l-29 -10h-156l-12 -19q-15 -33 -15 -120v-40h123v-26h-123v-407l99 -6l-2 -22l-134 2l-99 -2l-3 20l59 7v408h-211v-408l98 -6l-2 -21l-133 2z" />
    <glyph glyph-name="f_f_j.liga" unicode="ffj" horiz-adv-x="824" 
d="M555 -236v78h104l6 18q14 37 14 104v454l3 20l-18 -4h-189v-408l99 -6l-2 -21l-133 2l-101 -2l-2 20l59 7v408h-211v-408l98 -6l-2 -21l-132 2l-112 -2l-2 20l70 7v408h-79v8l15 21h64v2q0 48 11.5 78.5t37.5 59.5l82 93h152l-60 -71h-116l-11 -18q-16 -31 -16 -116v-31
h211v14q0 48 10 79t35 59l87 98h237v-91h-16l-69 20h-176l-12 -18q-16 -31 -16 -119v-42h191l66 10l27 2v-492q0 -61 -41 -110l-88 -106h-75z" />
    <glyph glyph-name="f_f_k.liga" unicode="ffk" horiz-adv-x="1110" 
d="M36 -1l-2 20l70 7v408h-79v8l15 21h64v1q0 48 11.5 79t37.5 60l82 93h152l-60 -71h-116l-11 -18q-16 -31 -16 -116v-31h211v14q0 49 9.5 79.5t34.5 58.5l87 98h149l91 2v-447l13 6l197 168l-49 7v20l81 -2l73 2l3 -20l-60 -7l-211 -173l41 -2l205 -238l46 -7l-2 -20
l-78 2l-57 -2l-197 242l-5 11v-225l62 -8l-2 -20l-98 2l-109 -2l-3 20l70 8v622l-28 -10h-156l-12 -19q-15 -30 -15 -120v-40h123v-26h-123v-407l98 -6l-2 -22l-134 2l-109 -2l-3 20l70 8v407h-211v-408l98 -6l-2 -21l-135 2z" />
    <glyph glyph-name="f_h.liga" unicode="fh" horiz-adv-x="863" 
d="M36 -1l-2 20l70 8v407h-79v8l15 21h64v11q0 48 9.5 79t34.5 59l87 98h150l51 2h39v-336l164 104q79 0 104 -36t25 -126v-291l78 -8l-3 -20l-112 2l-92 -2l-2 20l51 8v306q0 45 -16.5 64.5t-50.5 19.5q-16 0 -36.5 -7.5t-32 -14t-41.5 -24.5l-36 -22v-322l55 -8l-3 -20
l-89 2l-104 -2l-3 20l64 8v622l-28 -10h-156l-12 -19q-15 -30 -15 -120v-40h123v-26h-123v-407l99 -6l-3 -22l-134 2z" />
    <glyph glyph-name="f_j.liga" unicode="fj" horiz-adv-x="532" 
d="M264 -236v78h103l7 18q14 45 14 104v454l2 20l-17 -4h-189v-407l99 -6l-2 -22l-136 2l-109 -2l-2 20l70 8v407h-79v8l15 21h64v11q0 48 9.5 79t34.5 59l87 98h238v-92h-16l-70 21h-175l-12 -18q-16 -31 -16 -119v-42h191l65 10l28 2v-492q0 -61 -42 -110l-87 -106h-75z
" />
    <glyph glyph-name="f_k.liga" unicode="fk" horiz-adv-x="819" 
d="M36 -1l-2 20l70 8v407h-79v8l15 21h64v11q0 48 9.5 79t34.5 59l87 98h149l91 2v-447l13 6l197 168l-48 7v20l79 -2l74 2l3 -20l-60 -7l-210 -173l40 -2l205 -238l46 -7l-2 -20l-80 2l-55 -2l-197 242l-5 11v-225l63 -8l-3 -20l-97 2l-110 -2l-2 20l69 8v622l-28 -10h-156
l-12 -19q-15 -30 -15 -120v-40h123v-26h-123v-407l98 -6l-2 -22l-134 2z" />
    <glyph glyph-name="f_t.liga" unicode="ft" horiz-adv-x="633" 
d="M503 -15q-62 0 -87.5 32t-25.5 93v324h-206v-407l108 -6l-2 -22l-141 2l-113 -2l-2 20l70 8v407h-79v8l15 21h64v13q0 47 9 77t35 59l87 98h165l-67 -71h-122l-12 -19q-15 -31 -15 -120v-40h208v75l67 54h11v-130h150v-25h-150v-323q0 -65 58 -65q38 0 90 28l11 -19z" />
    <glyph glyph-name="f_y.liga" unicode="fy" horiz-adv-x="805" 
d="M361 -235v87h89l102 173l-49 -21l-167 436h-152v-413l114 -6l-2 -22l-148 2l-112 -2l-2 20l70 8v408h-79v8l15 21h64v10q0 49 9.5 79.5t34.5 58.5l87 98h115v-71h-139l-12 -19q-15 -30 -15 -120v-35h302l3 -19l-64 -8l131 -350l4 -33l134 383l-59 8l2 20l84 -2l77 2
l2 -20l-64 -8l-154 -413l-117 -260h-104z" />
    <glyph glyph-name="g_g.liga" unicode="gg" horiz-adv-x="987" 
d="M212 -243q-98 0 -145 33t-47 102v17l111 85q-49 15 -65.5 39t-16.5 61v8l98 70q-46 17 -73.5 51.5t-27.5 79.5q0 127 187 177q49 0 89 -18.5t61 -51.5l56 70h36l6 -79h-63l-22 -13q11 -25 11 -51q0 -128 -187 -176q-30 0 -49 5l-51 -54q0 -26 14.5 -39.5t38.5 -13.5h153
q58 0 88.5 -26.5t30.5 -69.5q0 -62 -64 -117.5t-169 -88.5zM690 -243q-101 0 -148.5 32.5t-47.5 102.5v17l104 85q-54 15 -72 38.5t-18 61.5v8l98 70q-47 17 -74.5 51.5t-27.5 79.5q0 127 187 177q49 0 89 -18.5t62 -51.5l55 70h49v-79h-70l-22 -13q11 -22 11 -51
q0 -128 -186 -176q-31 0 -49 5l-51 -54q0 -53 52 -53h176q58 0 88.5 -26.5t30.5 -69.5q0 -62 -65 -117.5t-171 -88.5zM236 193q42 0 65.5 29.5t23.5 81.5q0 24 -5 47t-16.5 46t-33.5 37t-52 14q-43 0 -66.5 -31t-23.5 -86q0 -23 5 -45t16.5 -44t34 -35.5t52.5 -13.5z
M694 193q42 0 65.5 29.5t23.5 81.5q0 33 -8 63t-33.5 55.5t-65.5 25.5q-42 0 -65.5 -31t-23.5 -86q0 -32 8 -60.5t33.5 -53t65.5 -24.5zM215 -201q62 1 108.5 39.5t46.5 90.5q0 61 -93 61h-126q-53 -53 -53 -97q0 -42 32 -68t85 -26zM692 -201q63 1 111 39.5t48 90.5
q0 61 -93 61h-139q-47 -53 -47 -97q0 -42 32.5 -68t87.5 -26z" />
    <glyph glyph-name="k_y.liga" unicode="ky" horiz-adv-x="969" 
d="M526 -235v87h87l102 173l-48 -21l-166 434l-60 -1l-211 -171l40 -2l206 -237l46 -8l-2 -20l-80 1l-55 -1l-198 242l-4 12v-226l62 -8l-3 -20l-96 2l-110 -2l-3 20l70 8v640l-69 -7l-4 20l125 32l28 2v-449l13 5l197 168l-49 9v18h306l3 -19l-64 -8l131 -350l4 -33
l134 383l-59 8l3 20l83 -2l77 2l2 -20l-64 -8l-156 -413l-115 -260h-103z" />
    <glyph glyph-name="t_t.liga" unicode="tt" horiz-adv-x="643" 
d="M206 -15q-59 0 -86 30t-27 95v324h-88v8l17 21h73v72l66 54h11v-130h220v76l67 54h11v-130h162v-25h-161v-323q0 -65 57 -65q38 0 91 28l10 -19l-126 -70q-58 0 -85 30t-27 95v324h-218v-325q0 -63 53 -63q35 0 88 28l10 -19z" />
    <glyph glyph-name="t_y.liga" unicode="ty" horiz-adv-x="778" 
d="M334 -235v87h88l102 173l-48 -21l-168 436h-135v-329q0 -65 57 -65q42 0 87 26l10 -19l-121 -68q-61 0 -87 32t-26 93v324h-88v8l17 21h73v72l66 54h11v-124h287l2 -19l-63 -8l130 -350l4 -33l135 383l-59 8l2 20l85 -2l76 2l2 -20l-64 -8l-156 -413l-115 -260h-104z" />
    <glyph glyph-name=".notdef" horiz-adv-x="625" 
d="M462 -29l-30 1l-24 18h-14l-8 8l7 76l-4 47l-61 1l-3 -52l-2 -56v-20l-15 -6l-8 6l-30 -10h-32l-1 11l11 11l50 21l-6 96l-98 -6l-147 140l-4 115l-13 10l-10 36v26l15 8l-3 78l92 -62l9 47l10 36l22 35l28 35l39 29l78 29h22l-68 22l4 17h7l79 -20l-4 51l16 12h32l19 -5
l29 -25l32 -8l32 -10l15 -13v-20l-20 -31l30 -28l28 -32l18 -34l15 -41l9 -54l-3 -41l-8 -35l-12 -31l-3 -156l-21 -7l-50 70l-27 -7l-19 -140l-32 4l-7 -4l-4 -94l30 -19l16 -14zM208 540h5l36 24h32l18 -12l8 3l4 14l7 5l10 -4v-18h8l10 22l11 8l-5 6l-3 8l1 21l-30 -10
l-10 -8l-8 5l4 21l14 10l11 11l38 -2l12 13l-4 8h-49l-45 -13l-53 -26l-29 -23l-25 -34l29 12l13 -15l-17 -20l-10 -3zM388 608l3 17l-7 17l-8 -9v-19zM436 564h13l6 6l-9 18l17 28l-15 9v5l-25 7v-20l-13 -5v-9l-9 -6l-3 -12l5 -6l19 11l8 -2zM515 406l18 12h23l6 11l-18 6
l-5 9l9 42h7l14 -20l17 -1l-8 37l-19 50l-20 36l-23 28l-34 21h-11l17 -19l25 -10l11 -11l3 -33l-25 13l-15 -29l12 -8v-19l15 3l-12 26l15 -5l10 -20l-5 -12l-8 -7h-23l-3 11l-12 2l1 -22h-14l14 -18l-7 -10l-21 5l-3 -27l41 6l8 17l22 -2l6 -28l-16 -13v-15zM461 514l2 7
l-2 9l-8 -4v-9zM184 498l59 12l-4 12zM366 491l3 4l-48 25l-4 -12zM72 254v180l57 -32l7 10l-68 38v18l59 -34l43 -28l28 -14l3 10l-103 64l-13 7l-41 33l2 -78l19 -17v-5h-21l19 -14l1 -11l-20 7l18 -18l-4 -7l3 -97zM227 432l11 5l16 12l6 12l2 13l-22 -4l6 -10l-12 -13
l-14 -1l-6 8l1 4l14 2l-13 6l2 7l-20 -1l3 -19l14 -15zM329 430l18 10l6 9l5 20l-30 2l7 -5l1 -11l-7 -11h-12l-5 7l11 8l-15 2v6l-23 4l3 -17l8 -14l20 -9zM201 130l18 4l2 40l41 -3l3 9l-44 6v16l48 -6l1 9l-47 7l1 22l43 -3l3 6l-45 9l3 94h74l11 10h-79l2 9h74l8 7h-82
l2 22l117 4l140 -4v11l-4 7h-205l-66 -3l-7 -9l-6 -44l-48 20l-11 -4l57 -27l1 -45l-5 -73v-91zM529 386h5l5 7v7l-10 -4v-10zM350 336h53l4 30l-54 5zM173 231l-1 60l4 40l-66 39v-7l-2 -13l1 -27v-48zM510 300l8 2l20 15l13 13l11 18l-7 5h-14l-10 3l-14 7l-17 -3l-6 -48z
M437 346l44 4l4 9h-48v-13zM449 142l12 79l4 36l-15 3l-1 8l20 1l5 3l-28 16l2 5l30 -6l-30 15l5 5l21 -5l4 10l3 19l-54 1l-1 -24v-6l-2 -31l19 -3l-8 -61l-48 3l-8 -6l51 -5l-2 -9h-49l-4 -5l53 -7l-6 -35zM291 302h73v10h-73v-10zM559 234v78l-6 -3l-33 -27zM364 271v10
l-72 7l-6 -13zM286 250h68v6l-68 4v-10zM172 189l4 14l-74 50l20 -23zM350 161v53l-64 4v-51z" />
    <glyph glyph-name=".null" horiz-adv-x="0" 
 />
    <glyph glyph-name="nonmarkingreturn" horiz-adv-x="333" 
 />
    <glyph glyph-name="CR" unicode="&#xd;" horiz-adv-x="320" 
 />
    <glyph glyph-name="space" unicode=" " horiz-adv-x="240" 
 />
    <glyph glyph-name="exclam" unicode="!" horiz-adv-x="259" 
d="M118 214l-28 195l-5 301h88l-5 -300l-28 -196h-22zM110 -5l-25 5l-4 49l6 40l62 4l25 -4l4 -48l-5 -41z" />
    <glyph glyph-name="quotedbl" unicode="&#x22;" horiz-adv-x="353" 
d="M94 460l-45 185l11 60h84l11 -60l-45 -185h-16zM247 460l-45 185l11 60h84l11 -60l-45 -185h-16z" />
    <glyph glyph-name="numbersign" unicode="#" horiz-adv-x="617" 
d="M151 0l24 201h-135l4 34h136l21 184h-134l4 34h135l25 202h36l-25 -202h163l25 202h37l-25 -202h135l-5 -34h-134l-23 -184h135l-4 -34h-135l-24 -201h-37l24 201h-163l-24 -201h-36zM216 235h163l22 184h-163z" />
    <glyph glyph-name="dollar" unicode="$" horiz-adv-x="542" 
d="M496 201q0 -144 -194 -206v-75h-30v67l-16 -4q-115 0 -201 63l-11 143h37l38 -95q27 -31 67.5 -50.5t85.5 -20.5v297l-87 43q-60 30 -91.5 65.5t-31.5 93.5q0 73 56.5 121.5t153.5 70.5v67h30v-64q94 -5 167 -51v-142h-26l-38 105q-46 45 -103 51v-271l56 -28
q67 -32 102.5 -74t35.5 -106zM244 437l28 -14v259q-60 -1 -95 -33.5t-35 -85.5q0 -42 25.5 -71.5t76.5 -54.5zM302 25q54 7 84.5 43t30.5 89q0 49 -28.5 84t-85.5 64h-1v-280z" />
    <glyph glyph-name="percent" unicode="%" horiz-adv-x="796" 
d="M194 358q-69 0 -109 47t-40 122q0 76 41 120t134 59q69 0 109.5 -47t40.5 -122q0 -76 -42 -120.5t-134 -58.5zM140 -5l494 710h45l-494 -710h-45zM214 380q42 0 63.5 39.5t21.5 102.5q0 73 -24 117t-74 44q-43 0 -64.5 -39.5t-21.5 -102.5q0 -73 24.5 -117t74.5 -44z
M576 -6q-69 0 -109.5 46.5t-40.5 121.5q0 76 41.5 120.5t133.5 59.5q69 0 109.5 -47t40.5 -123t-41.5 -120t-133.5 -58zM595 16q42 0 63.5 39.5t21.5 102.5q0 73 -24 117t-74 44q-43 0 -64.5 -39.5t-21.5 -102.5q0 -73 24.5 -117t74.5 -44z" />
    <glyph glyph-name="ampersand" unicode="&#x26;" horiz-adv-x="690" 
d="M260 -17q-91 0 -153 48.5t-62 124.5q0 34 11.5 64t23 48.5t39.5 42.5t39 31t43 29q-62 71 -82.5 105t-20.5 72q0 61 45 100.5t144 69.5q75 0 120 -40t45 -96q0 -52 -38.5 -93t-118.5 -92l166 -192l101 136l-55 7l2 19l76 -2l82 2l3 -19l-66 -8l-122 -157l136 -155l56 -8
l-3 -20l-90 1l-56 -1l-99 112q-70 -79 -166 -129zM278 416q50 37 68.5 74t18.5 87q0 48 -25.5 77.5t-67.5 29.5q-41 0 -66 -27.5t-25 -75.5q0 -31 22 -65.5t75 -99.5zM267 53q41 0 72 21t66 62l-186 215q-90 -59 -90 -157q0 -58 40 -99.5t98 -41.5z" />
    <glyph glyph-name="quotesingle" unicode="'" horiz-adv-x="196" 
d="M94 460l-45 182l11 63h84l11 -63l-45 -182h-16z" />
    <glyph glyph-name="parenleft" unicode="(" horiz-adv-x="273" 
d="M243 -236q-113 138 -155.5 237t-42.5 245q0 148 43 248.5t155 227.5l15 -13q-79 -94 -111.5 -203.5t-32.5 -258.5q0 -298 144 -470z" />
    <glyph glyph-name="parenright" unicode=")" horiz-adv-x="273" 
d="M30 -236l-15 13q144 172 144 470q0 149 -32.5 258.5t-111.5 203.5l15 13q112 -127 155 -227.5t43 -248.5q0 -146 -42.5 -245t-155.5 -237z" />
    <glyph glyph-name="asterisk" unicode="*" horiz-adv-x="398" 
d="M139 421l-56 41l98 96l-136 19l21 66l120 -62l-22 134h70l-22 -134l120 62l21 -66l-134 -19l97 -96l-56 -41l-61 120z" />
    <glyph glyph-name="plus" unicode="+" 
d="M289 0v233h-237v42h237v240h42v-240h236v-42h-236v-233h-42z" />
    <glyph glyph-name="comma" unicode="," horiz-adv-x="213" 
d="M101 -141l-20 8q31 69 48 130l-18 -1l-31 4l-5 53l7 43l66 5l28 -5l5 -51l-7 -45z" />
    <glyph glyph-name="hyphen" unicode="-" horiz-adv-x="370" 
d="M34 254v43h302v-43h-302z" />
    <glyph glyph-name="period" unicode="." horiz-adv-x="216" 
d="M101 -5l-26 5l-5 53l6 43l68 5l27 -5l4 -51l-6 -45z" />
    <glyph glyph-name="slash" unicode="/" horiz-adv-x="476" 
d="M-10 -230l453 948h41l-451 -948h-43z" />
    <glyph glyph-name="zero" unicode="0" horiz-adv-x="567" 
d="M272 -15q-101 0 -166.5 67.5t-65.5 170.5q0 104 63 166.5t192 90.5q101 0 166.5 -67t65.5 -171q0 -208 -255 -257zM296 20q66 0 102.5 57t36.5 140q0 100 -41 163.5t-123 63.5q-67 0 -102.5 -56.5t-35.5 -139.5q0 -101 40.5 -164.5t122.5 -63.5z" />
    <glyph glyph-name="one" unicode="1" horiz-adv-x="433" 
d="M33 -1l-2 20l153 12v370l2 9l-21 -10l-126 -39l-10 21l217 92h20v-443l149 -12l-2 -20l-187 2z" />
    <glyph glyph-name="two" unicode="2" horiz-adv-x="477" 
d="M32 0l-12 25l135 102q87 66 123 117t36 98q0 50 -24.5 75.5t-68.5 25.5q-29 0 -68 -18l-31 -111h-67v94l183 77q81 0 124 -35.5t43 -92.5q-1 -65 -49 -119.5t-147 -114.5l-96 -56l49 12h285v-17l-25 -62h-390z" />
    <glyph glyph-name="three" unicode="3" horiz-adv-x="460" 
d="M26 -230v80h215q85 56 85 139q0 63 -53.5 101t-140.5 38l-6 19l47 21q67 30 96.5 68.5t29.5 94.5q0 48 -26.5 79.5t-66.5 31.5q-39 0 -74 -19l-36 -113h-66v101l202 74q69 0 111 -35.5t42 -93.5q0 -114 -153 -182q79 -5 130.5 -47t51.5 -102q0 -68 -42.5 -115.5
t-142.5 -92.5l-99 -47h-104z" />
    <glyph glyph-name="four" unicode="4" horiz-adv-x="540" 
d="M308 -231v233h-277l-21 23l315 443h95v-20l-359 -417l19 7h228v149l68 48h12v-197h140v-36h-140v-233h-80z" />
    <glyph glyph-name="five" unicode="5" horiz-adv-x="469" 
d="M44 -230v80h191q112 64 112 177q0 61 -34 96.5t-92 34.5q-54 0 -111 -29l-38 -18l-16 9l38 350h336v-15l-15 -62h-297l-27 -244l149 80q90 0 142.5 -46t52.5 -120q0 -81 -48 -137t-160 -108l-100 -48h-83z" />
    <glyph glyph-name="six" unicode="6" horiz-adv-x="535" 
d="M303 447q87 0 136 -59.5t49 -148.5q0 -94 -57.5 -160.5t-176.5 -93.5q-96 0 -151.5 80t-55.5 201q0 100 36 185.5t117.5 157t201.5 112.5l9 -24q-152 -60 -211.5 -149.5t-61.5 -227.5zM276 22q60 0 93 48.5t33 138.5q0 80 -30 127t-79 47q-25 0 -49.5 -14t-68.5 -49
l-37 -30q3 -127 40 -197.5t98 -70.5z" />
    <glyph glyph-name="seven" unicode="7" horiz-adv-x="478" 
d="M100 -229v17l286 588l15 15h-381v79h427l11 -13l-282 -686h-76z" />
    <glyph glyph-name="eight" unicode="8" horiz-adv-x="535" 
d="M357 352q61 -42 94 -81.5t33 -90.5q0 -77 -57 -124t-173 -71q-87 0 -145.5 49.5t-58.5 129.5q0 59 42 108.5t115 83.5l-26 22q-111 73 -111 163q0 63 50 105t154 69q93 0 144.5 -39t51.5 -106q0 -105 -150 -188zM156 578q0 -46 35 -85.5t106 -91.5l5 -4q81 60 81 152
q0 57 -32 94.5t-90 37.5q-47 0 -76 -27.5t-29 -75.5zM272 20q51 0 88.5 31t37.5 92q0 17 -3.5 32t-14.5 30.5t-17 24.5t-26 25.5t-25.5 21t-31 22.5t-28.5 20l-29 24q-45 -32 -66 -68.5t-21 -87.5q0 -71 40.5 -119t95.5 -48z" />
    <glyph glyph-name="nine" unicode="9" horiz-adv-x="531" 
d="M269 485q93 0 150 -78t57 -205q0 -155 -91 -270.5t-261 -174.5l-10 23q137 59 201 145t68 223l-160 -125q-83 0 -135.5 58.5t-52.5 151.5q0 195 234 252zM236 90q22 0 43.5 11.5t63.5 45.5l41 32q-1 119 -35.5 194t-104.5 75q-56 0 -89.5 -49.5t-33.5 -133.5
q0 -81 31 -128t84 -47z" />
    <glyph glyph-name="colon" unicode=":" horiz-adv-x="230" 
d="M106 375l-26 5l-5 53l6 43l68 5l27 -5l4 -51l-6 -45zM106 -5l-26 5l-5 53l6 43l68 5l27 -5l4 -51l-6 -45z" />
    <glyph glyph-name="semicolon" unicode=";" horiz-adv-x="250" 
d="M106 375l-26 5l-5 53l6 43l68 5l27 -5l4 -51l-6 -45zM100 -141l-20 8q31 69 48 130l-18 -1l-31 4l-5 53l7 43l66 5l28 -5l5 -51l-7 -45z" />
    <glyph glyph-name="less" unicode="&#x3c;" 
d="M570 34l-520 234v36l520 235v-50l-460 -202l460 -202v-51z" />
    <glyph glyph-name="equal" unicode="=" 
d="M52 320v42h516v-42h-516zM52 128v42h516v-42h-516z" />
    <glyph glyph-name="greater" unicode="&#x3e;" 
d="M50 34v51l460 202l-460 202v50l520 -235v-36z" />
    <glyph glyph-name="question" unicode="?" horiz-adv-x="402" 
d="M137 213l-13 136l40 27q100 66 100 168q0 131 -113 135l-28 -98h-60v114l87 12q101 -6 151.5 -53.5t50.5 -111.5q0 -117 -117 -172l-58 -28l-5 -129h-35zM139 -7l-25 4l-5 49l6 40l63 4l25 -4l4 -47l-6 -42z" />
    <glyph glyph-name="at" unicode="@" horiz-adv-x="906" 
d="M443 -114q-175 0 -284 104.5t-109 267.5q0 142 93 253t245 160l93 29q179 0 279.5 -83t100.5 -214q0 -127 -91 -219.5t-208 -94.5l-55 65l34 113l-147 -180q-54 2 -93.5 44t-39.5 107q0 82 46.5 147.5t125.5 101.5l108 50l106 -66l-78 -360q78 0 149 79t71 200
q0 126 -76 200t-207 74q-70 0 -137.5 -26t-121.5 -73.5t-87 -121.5t-33 -162q0 -112 51 -192.5t131 -118t178 -37.5q88 0 185 56l10 -17q-55 -31 -123 -55t-116 -31zM422 158l113 128l37 150l-85 56q-81 -37 -115 -99.5t-34 -124.5q0 -47 22 -75.5t62 -34.5z" />
    <glyph glyph-name="A" unicode="A" horiz-adv-x="720" 
d="M10 -1l-2 20l79 9l246 659l50 23l251 -682l78 -9l-2 -20l-131 2l-129 -2l-3 20l87 10l-76 217h-252l-76 -217l88 -10l-2 -20l-110 2zM216 275h232l-109 313l-3 26z" />
    <glyph glyph-name="B" unicode="B" horiz-adv-x="630" 
d="M32 -1l-2 20l89 10v642l-89 10l2 20l136 -2l186 2q92 0 142.5 -44.5t50.5 -107.5q0 -66 -52 -115t-125 -60q105 -3 162 -51t57 -120q0 -182 -266 -204l-160 2zM209 382h99q67 0 106 46t39 115q0 60 -34.5 96t-97.5 37l-112 -5v-289zM306 24q99 0 143.5 49.5t44.5 124.5
q0 72 -45.5 114t-121.5 42h-118v-325z" />
    <glyph glyph-name="C" unicode="C" horiz-adv-x="686" 
d="M390 -17q-144 0 -247 96t-103 261t98.5 261.5t263.5 115.5q125 0 235 -67v-142h-30l-43 111q-67 67 -169 67q-112 0 -183 -85t-71 -242q0 -89 29 -165t93 -126.5t152 -50.5q76 0 143 60l55 125h30l-13 -147q-119 -56 -240 -72z" />
    <glyph glyph-name="D" unicode="D" horiz-adv-x="728" 
d="M32 -1l-2 20l94 10v642l-94 10l2 20l138 -2l184 2q154 0 244 -88t90 -247q0 -162 -87 -259t-252 -108l-179 2zM346 25q108 0 174.5 91t66.5 242q0 144 -66 231t-197 87l-110 -5v-639z" />
    <glyph glyph-name="E" unicode="E" horiz-adv-x="614" 
d="M32 -1l-2 20l89 10v642l-89 10l2 20l133 -2l399 2l5 -179h-19l-60 149l-281 1v-293l160 2l40 111h20l-5 -123l5 -127h-20l-40 110l-160 2v-326l291 1l64 153h22l-18 -183l-403 2z" />
    <glyph glyph-name="F" unicode="F" horiz-adv-x="583" 
d="M32 -1l-2 20l89 10v642l-89 10l2 20l133 -2l399 2l4 -181h-18l-60 151l-281 1v-306l160 2l40 117h20l-5 -129l5 -135h-20l-40 117l-160 2v-311l105 -10l-2 -20l-147 2z" />
    <glyph glyph-name="G" unicode="G" horiz-adv-x="730" 
d="M385 -17q-146 0 -245.5 95.5t-99.5 262.5q0 163 96.5 260t264.5 116q70 0 134 -21t101 -46v-142h-27l-44 109q-67 69 -172 69q-116 0 -184 -91t-68 -242q0 -137 71.5 -237.5t191.5 -100.5q47 0 86 19t61 44v211l-86 10l2 20l129 -1l107 1l2 -20l-64 -10v-235
q-136 -61 -256 -71z" />
    <glyph glyph-name="H" unicode="H" horiz-adv-x="751" 
d="M32 -1l-2 20l89 10v642l-89 10l2 20l132 -2l130 2l3 -20l-88 -10v-293h336v293l-90 10l2 20l133 -2l129 2l3 -20l-87 -10v-642l87 -10l-3 -20l-129 2l-133 -2l-2 20l90 10v319h-336v-319l88 -10l-3 -20l-130 2z" />
    <glyph glyph-name="I" unicode="I" horiz-adv-x="329" 
d="M32 -1l-2 21l89 9v642l-89 10l2 20l133 -2l132 2l2 -20l-90 -10v-642l90 -9l-2 -21l-132 2z" />
    <glyph glyph-name="J" unicode="J" horiz-adv-x="329" 
d="M0 -175v81h110l6 21q12 35 12 165v579l-108 10l3 20l150 -2l129 2l3 -20l-87 -10v-578q0 -61 -9 -93.5t-35 -62.5l-98 -112h-76z" />
    <glyph glyph-name="K" unicode="K" horiz-adv-x="690" 
d="M32 -1l-2 20l89 10v642l-89 10l2 20l134 -2l122 2l3 -20l-82 -10v-303l14 10l313 293l-82 10l3 20l101 -2l93 2l3 -20l-80 -11l-312 -298l43 1l314 -346l60 -8l-2 -20l-94 2l-66 -2l-300 341l-8 14v-325l82 -10l-3 -20l-122 2z" />
    <glyph glyph-name="L" unicode="L" horiz-adv-x="570" 
d="M32 -1l-2 20l89 10v642l-89 10l2 20l134 -2l131 2l2 -20l-90 -10v-643l263 2l65 154h22l-17 -185l-376 2z" />
    <glyph glyph-name="M" unicode="M" horiz-adv-x="914" 
d="M35 -1l-3 20l85 10v641l-87 11l2 20l102 -2l90 2l232 -578l5 -26l235 604l76 -2l110 2l2 -20l-87 -10v-642l85 -10l-3 -20l-122 2l-132 -2l-2 20l84 10v561l6 59l-255 -652h-49l-236 596l-19 57v-621l85 -10l-4 -20l-96 2z" />
    <glyph glyph-name="N" unicode="N" horiz-adv-x="718" 
d="M569 -4l-404 618l-8 33v-618l88 -10l-3 -20l-101 2l-109 -2l-2 20l89 10v638l-87 14l2 20l108 -2l66 2l363 -548l10 -28v546l-87 10l2 20l100 -2l109 2l3 -20l-90 -10v-675h-49z" />
    <glyph glyph-name="O" unicode="O" horiz-adv-x="765" 
d="M373 -17q-146 0 -239.5 101t-93.5 252q0 328 352 381q146 0 239.5 -100.5t93.5 -252.5q0 -328 -352 -381zM401 20q107 0 165.5 88t58.5 226q0 91 -28.5 168t-89 127.5t-142.5 50.5q-107 0 -165.5 -88t-58.5 -226q0 -142 69.5 -244t190.5 -102z" />
    <glyph glyph-name="P" unicode="P" horiz-adv-x="579" 
d="M32 -1l-2 20l89 10v642l-89 10l2 20l130 -2l189 2q94 0 155 -47t61 -132q0 -159 -242 -213h-116v-280l109 -10l-3 -20l-151 2zM209 339h91q75 0 121.5 48.5t46.5 123.5q0 74 -38 120t-117 46l-104 -6v-332z" />
    <glyph glyph-name="Q" unicode="Q" horiz-adv-x="765" 
d="M516 -45l119 -93l52 -11l-2 -19h-144l-167 151h-1q-146 0 -239.5 101t-93.5 252q0 328 352 381q146 0 239.5 -100.5t93.5 -252.5q0 -313 -319 -375zM141 366q0 -142 69.5 -244t190.5 -102q107 0 165.5 88t58.5 226q0 91 -28.5 168t-89 127.5t-142.5 50.5
q-107 0 -165.5 -88t-58.5 -226z" />
    <glyph glyph-name="R" unicode="R" horiz-adv-x="660" 
d="M601 28l54 -10l-2 -19l-82 2l-62 -2l-214 323l-5 5h-81v-298l84 -10l-2 -20l-127 2l-132 -2l-2 20l89 10v642l-89 10l2 20l134 -2l176 2q96 0 158.5 -43t62.5 -131q0 -148 -227 -196l81 -32zM209 354h68q87 0 136.5 46t49.5 120q0 76 -42 115.5t-110 41.5l-102 -6v-317z
" />
    <glyph glyph-name="S" unicode="S" horiz-adv-x="540" 
d="M255 -17q-115 0 -201 63l-11 143h37l38 -95q62 -71 155 -71q66 0 104.5 37t38.5 97q0 49 -28.5 84t-85.5 64l-118 58q-60 30 -91.5 65.5t-31.5 93.5q0 76 60.5 125.5t164.5 69.5q102 0 182 -51v-142h-26l-38 105q-55 53 -130 53q-61 0 -97 -32.5t-36 -86.5
q0 -42 25.5 -71.5t76.5 -54.5l114 -56q67 -32 102.5 -74t35.5 -106q0 -72 -56 -130t-184 -88z" />
    <glyph glyph-name="T" unicode="T" horiz-adv-x="585" 
d="M143 -1l-2 20l106 10v643l-157 -1l-56 -154h-21v184l279 -2l280 2v-184h-22l-55 154l-158 1v-643l104 -10l-2 -20l-146 2z" />
    <glyph glyph-name="U" unicode="U" horiz-adv-x="692" 
d="M355 -17q-253 0 -253 264v424l-89 10l2 20l133 -2l131 2l3 -20l-87 -10v-437q0 -96 46 -152.5t135 -56.5q79 0 124 57.5t45 152.5v436l-90 10l3 20l112 -2l107 2l3 -20l-87 -10v-429q0 -104 -52 -168.5t-186 -90.5z" />
    <glyph glyph-name="V" unicode="V" horiz-adv-x="716" 
d="M342 -13l-259 685l-78 9l3 20l127 -2l134 2l3 -20l-87 -10l199 -555l3 -25l204 580l-89 10l3 20l109 -2l95 2l2 -20l-79 -9l-243 -664z" />
    <glyph glyph-name="W" unicode="W" horiz-adv-x="981" 
d="M295 -8l-223 680l-62 9l3 20l113 -2l125 2l3 -20l-87 -10l169 -537l2 -27l132 431l-44 134l-65 9l2 20l118 -2l124 2l3 -20l-86 -10l169 -537l1 -26l176 564l-90 9l3 20l107 -2l80 2l3 -20l-63 -9l-213 -664l-46 -16l-155 470l-1 28l-153 -482z" />
    <glyph glyph-name="X" unicode="X" horiz-adv-x="701" 
d="M13 -1l-3 21l91 8l210 303l-219 342l-76 8l2 20l136 -2l131 2l2 -20l-84 -9l157 -256l6 -19l182 274l-101 10l2 20l118 -2l115 2l3 -20l-91 -9l-206 -299l225 -345l72 -8l-2 -21l-128 2l-138 -2l-2 21l86 9l-160 257l-9 20l-186 -277l99 -9l-3 -21l-117 2z" />
    <glyph glyph-name="Y" unicode="Y" horiz-adv-x="696" 
d="M194 -1l-3 20l117 10v245l-226 399l-77 8l3 20l131 -2l132 2l3 -20l-89 -9l190 -338l5 -19l189 357l-95 9l2 20l116 -2l96 2l3 -19l-78 -8l-216 -393l1 -252l114 -10l-2 -20l-156 2z" />
    <glyph glyph-name="Z" unicode="Z" horiz-adv-x="564" 
d="M25 0l-5 28l396 627l19 18l-299 -3l-62 -151h-24v181h476l5 -25l-397 -630l-19 -18l322 3l72 157h27l-18 -187h-493z" />
    <glyph glyph-name="bracketleft" unicode="[" horiz-adv-x="319" 
d="M86 -231v946l63 -1l135 1v-20l-134 -8q0 -26 -1.5 -182.5t-1.5 -232.5q0 -65 0.5 -143.5t1.5 -175.5t1 -156l134 -8v-20l-135 2z" />
    <glyph glyph-name="backslash" unicode="\" horiz-adv-x="432" 
d="M420 -230l-451 948h41l453 -948h-43z" />
    <glyph glyph-name="bracketright" unicode="]" horiz-adv-x="318" 
d="M35 -231v20l134 8q3 173 3 489q0 189 -3 401l-134 8v20l137 -1l60 1v-946l-61 2z" />
    <glyph glyph-name="asciicircum" unicode="^" horiz-adv-x="373" 
d="M50 460l123 245h27l123 -245h-47l-89 194l-90 -194h-47z" />
    <glyph glyph-name="underscore" unicode="_" horiz-adv-x="606" 
d="M26 -112v37h555v-37h-555z" />
    <glyph glyph-name="grave" unicode="`" horiz-adv-x="600" 
d="M269 547l-127 163h93l55 -163h-21z" />
    <glyph glyph-name="a" unicode="a" horiz-adv-x="452" 
d="M167 -15q-62 0 -99.5 32.5t-37.5 88.5q0 53 43 96l220 73v53q0 27 -2 42.5t-9 32t-24 24t-44 7.5q-26 0 -76 -16l-21 -89h-72v70l176 81q93 0 122.5 -33t29.5 -121v-207q0 -46 18 -84l53 3l3 -19l-126 -24l-25 82zM179 44q36 0 76 30l38 26v152l-147 -58q-34 -31 -34 -73
q0 -37 19 -57t48 -20z" />
    <glyph glyph-name="b" unicode="b" horiz-adv-x="530" 
d="M247 -15q-58 0 -92.5 10.5t-71.5 31.5v640l-69 -7l-4 20l125 32l28 2v-329l139 95q80 0 134 -59.5t54 -159.5q0 -128 -64.5 -192.5t-178.5 -83.5zM266 17q60 0 99.5 58.5t39.5 155.5q0 84 -30.5 135t-85.5 51q-42 0 -97 -40l-29 -21v-293q33 -46 103 -46z" />
    <glyph glyph-name="c" unicode="c" horiz-adv-x="437" 
d="M256 -15q-96 0 -157 62t-61 172q0 111 66.5 176.5t166.5 84.5q30 0 70 -15.5t62 -34.5v-89h-63l-32 92q-25 13 -53 13q-59 0 -98 -50.5t-39 -140.5q0 -89 45 -147.5t119 -58.5q57 0 121 47l9 -20q-67 -55 -156 -91z" />
    <glyph glyph-name="d" unicode="d" horiz-adv-x="547" 
d="M230 -15q-86 0 -140.5 65t-54.5 163q0 111 61 180t174 87q45 0 92 -26v214l-69 -8l-4 20l126 32l27 2v-594q0 -43 18 -81l64 4l3 -20l-135 -28l-26 84zM237 49q40 0 97 42l28 22v292q-34 44 -99 44q-68 0 -105.5 -55t-37.5 -150q0 -85 32.5 -140t84.5 -55z" />
    <glyph glyph-name="e" unicode="e" horiz-adv-x="463" 
d="M418 94l10 -20q-76 -56 -168 -89q-93 0 -159 62.5t-66 173.5q0 109 59.5 173.5t158.5 85.5q171 0 171 -184v-31h-310v-3q0 -99 48 -155.5t130 -56.5q56 0 126 44zM232 445q-50 0 -81.5 -41.5t-35.5 -114.5l219 4v3q0 73 -21 111t-81 38z" />
    <glyph glyph-name="f" unicode="f" horiz-adv-x="325" 
d="M36 -1l-2 20l70 8v407h-79v8l15 21h64v11q0 48 9.5 79t34.5 59l87 98h115v-71h-139l-12 -19q-15 -30 -15 -120v-40h124v-26h-124v-407l114 -6l-2 -22l-149 2z" />
    <glyph glyph-name="g" unicode="g" horiz-adv-x="494" 
d="M222 -243q-103 0 -152.5 33t-49.5 102v17l111 85q-49 15 -65.5 39t-16.5 61v8l98 70q-46 17 -73.5 51.5t-27.5 79.5q0 127 187 177q49 0 89 -18.5t61 -51.5l56 70h50v-79h-71l-22 -13q11 -25 11 -51q0 -128 -187 -176q-30 0 -49 5l-51 -54q0 -26 14.5 -39.5t38.5 -13.5
h176q58 0 88.5 -26.5t30.5 -69.5q0 -62 -68 -117.5t-178 -88.5zM236 193q42 0 65.5 29.5t23.5 81.5q0 24 -5 47t-16.5 46t-33.5 37t-52 14q-43 0 -66.5 -31t-23.5 -86q0 -23 5 -45t16.5 -44t34 -35.5t52.5 -13.5zM225 -201q67 1 117.5 39.5t50.5 90.5q0 61 -93 61h-149
q-53 -53 -53 -97q0 -42 35 -68t92 -26z" />
    <glyph glyph-name="h" unicode="h" horiz-adv-x="571" 
d="M36 -1l-3 20l70 8v641l-69 -8l-4 19l125 33l28 2v-338l164 104q81 0 105 -38.5t24 -123.5v-291l78 -8l-3 -20l-113 2l-91 -2l-3 20l51 8v306q0 45 -16.5 64.5t-49.5 19.5q-16 0 -36.5 -7.5t-32 -14t-41.5 -24.5l-36 -22v-322l54 -8l-2 -20l-90 2z" />
    <glyph glyph-name="i" unicode="i" horiz-adv-x="276" 
d="M120 593l-24 5l-5 50l9 42l63 5l25 -5l5 -49l-9 -43zM37 -1l-3 20l70 8v400l-71 -12l-3 20l127 35l27 2v-445l72 -8l-2 -20l-109 2z" />
    <glyph glyph-name="j" unicode="j" horiz-adv-x="256" 
d="M122 593l-24 5l-5 50l9 42l63 5l25 -5l5 -49l-9 -43zM-19 -236v78h103l6 18q14 37 14 104v463l-71 -12l-3 20l127 35l27 2v-492q0 -62 -41 -110l-87 -106h-75z" />
    <glyph glyph-name="k" unicode="k" horiz-adv-x="527" 
d="M35 -1l-2 20l69 8v640l-68 -8l-4 20l125 33l27 2v-450l14 6l196 169l-48 7v20l79 -2l75 2l2 -20l-60 -7l-210 -173l40 -2l206 -238l46 -7l-2 -20l-81 2l-54 -2l-197 242l-6 11v-225l63 -8l-3 -20l-96 2z" />
    <glyph glyph-name="l" unicode="l" horiz-adv-x="270" 
d="M36 -1l-3 20l70 8v640l-69 -8l-4 20l125 33l28 2v-687l72 -8l-3 -20l-108 2z" />
    <glyph glyph-name="m" unicode="m" horiz-adv-x="845" 
d="M37 -1l-3 20l70 8v400l-71 -12l-3 20l127 35l24 1l2 -96l156 105q63 0 92 -25.5t34 -80.5l157 106q78 0 103 -36t25 -126v-291l78 -8l-2 -20l-114 2l-92 -2l-2 20l52 8v306q0 45 -16 64t-48 19q-37 0 -103 -44l-36 -24v-321l49 -8l-2 -20l-83 2l-91 -2l-2 20l49 8v306
q0 45 -16 64t-48 19q-37 0 -103 -44l-36 -24v-321l52 -8l-3 -20l-87 2z" />
    <glyph glyph-name="n" unicode="n" horiz-adv-x="572" 
d="M37 -1l-3 20l70 8v400l-71 -12l-3 20l126 35l24 1l3 -96l165 105q79 0 104 -34.5t25 -120.5v-298l78 -8l-2 -20l-113 2l-93 -2l-2 20l51 8v306q0 45 -16.5 64.5t-50.5 19.5q-18 0 -38.5 -7.5t-31 -14t-39.5 -24.5l-36 -23v-321l54 -8l-2 -20l-89 2z" />
    <glyph glyph-name="o" unicode="o" horiz-adv-x="525" 
d="M251 -15q-96 0 -156 67.5t-60 169.5q0 214 239 258q96 0 156 -67.5t60 -169.5q0 -215 -239 -258zM276 18q62 0 95.5 57t33.5 147q0 100 -43.5 162t-112.5 62q-62 0 -95.5 -56t-33.5 -147q0 -94 43.5 -159.5t112.5 -65.5z" />
    <glyph glyph-name="p" unicode="p" horiz-adv-x="531" 
d="M21 -231l-2 20l70 8v631l-71 -12l-3 19l126 35l24 1l3 -88l137 97q88 0 139.5 -62t51.5 -162q0 -114 -61 -182t-175 -89q-55 0 -91 27v-215l105 -8l-3 -20l-139 2zM275 17q61 0 98.5 56.5t37.5 149.5q0 86 -31.5 141t-85.5 55q-16 0 -33.5 -7t-28 -13.5t-37.5 -24.5
l-26 -19v-283q35 -55 106 -55z" />
    <glyph glyph-name="q" unicode="q" horiz-adv-x="518" 
d="M260 -231l-2 20l105 8v277l-131 -89q-86 0 -141.5 61.5t-55.5 164.5q0 113 67 183.5t178 85.5q62 0 124 -38l28 34h10v-679l71 -8l-2 -20l-109 2zM243 48q35 0 76 26l44 29v282q-28 64 -97 64q-64 0 -105 -53.5t-41 -151.5q0 -86 33.5 -141t89.5 -55z" />
    <glyph glyph-name="r" unicode="r" horiz-adv-x="374" 
d="M37 -1l-3 20l70 8v400l-71 -12l-3 20l127 35l22 1l1 -139l110 143h68v-88h-88q-8 -1 -34 -28t-42 -47l-10 -12v-271l97 -8l-2 -22l-135 2z" />
    <glyph glyph-name="s" unicode="s" horiz-adv-x="394" 
d="M187 -15q-73 0 -148 45l-9 116h35l42 -93q43 -34 90 -34q42 0 64 22t22 55q0 34 -17.5 53.5t-62.5 44.5l-77 44q-82 46 -82 113q0 48 41 78.5t123 50.5q75 0 139 -41v-109h-30l-34 88q-35 30 -87 30q-33 0 -55.5 -18t-22.5 -48q0 -27 17.5 -44.5t57.5 -40.5l78 -43
q49 -28 69 -56t20 -69q-1 -56 -44.5 -90t-128.5 -54z" />
    <glyph glyph-name="t" unicode="t" horiz-adv-x="334" 
d="M206 -15q-62 0 -87.5 32t-25.5 94v323h-88v8l17 21h73v72l66 54h11v-130h151v-25h-150v-323q0 -31 16 -48t41 -17q38 0 86 26l10 -19z" />
    <glyph glyph-name="u" unicode="u" horiz-adv-x="548" 
d="M217 -15q-81 0 -106.5 34.5t-25.5 120.5v288l-72 -7l-3 22l128 25l27 2v-339q0 -84 67 -84q38 0 105 45l37 22v314l-67 -7l-2 22l122 25l26 2v-342q0 -44 13 -92l54 3l3 -19l-125 -25l-22 89z" />
    <glyph glyph-name="v" unicode="v" horiz-adv-x="532" 
d="M241 -15l-175 453l-61 8l3 20l108 -2l100 2l2 -20l-63 -8l130 -355l4 -33l133 388l-61 8l3 20l84 -2l76 2l3 -20l-64 -8l-158 -421z" />
    <glyph glyph-name="w" unicode="w" horiz-adv-x="823" 
d="M228 -15l-162 453l-61 8l3 20l102 -2l97 2l3 -20l-58 -8l122 -358l4 -28l113 325l-22 61l-50 8l2 20l93 -2l96 2l2 -20l-58 -8l123 -358l4 -28l132 386l-60 8l2 20l76 -2l84 2l3 -20l-64 -8l-154 -421l-69 -32l-117 325l-2 32l-115 -325z" />
    <glyph glyph-name="x" unicode="x" horiz-adv-x="526" 
d="M13 -1l-3 20l75 8l148 192l-148 219l-59 8l3 20l111 -2l81 2l3 -20l-37 -8l95 -148l4 -12l110 160l-71 8l3 20l86 -2l96 2l2 -20l-75 -8l-132 -176l156 -235l60 -8l-3 -20l-109 2l-85 -2l-3 20l39 8l-105 161l-3 10l-124 -171l68 -8l-2 -20l-86 2z" />
    <glyph glyph-name="y" unicode="y" horiz-adv-x="529" 
d="M88 -235v87h88l101 173l-47 -21l-164 434l-61 8l3 20l107 -2l101 2l2 -20l-63 -8l128 -350l3 -33l132 383l-59 8l2 20l83 -2l78 2l2 -20l-64 -8l-153 -413l-115 -260h-104z" />
    <glyph glyph-name="z" unicode="z" horiz-adv-x="453" 
d="M41 0l-6 18l280 409l19 15l-200 -2l-49 -113h-22v138h354l8 -18l-280 -411l-17 -13l214 2l58 116h24l-14 -141h-369z" />
    <glyph glyph-name="braceleft" unicode="{" horiz-adv-x="340" 
d="M251 -230q-60 0 -97.5 38.5t-37.5 101.5v286l-66 52v7q23 8 37.5 21t20 32.5t7 34t1.5 41.5v191q0 63 37 101.5t95 38.5h48v-20h-50q-30 0 -50 -25t-19 -82l3 -203q0 -87 -78 -125l78 -49l-3 -314q-1 -57 20 -82t52 -25h50v-20h-48z" />
    <glyph glyph-name="bar" unicode="|" horiz-adv-x="259" 
d="M110 -245v963h39v-963h-39z" />
    <glyph glyph-name="braceright" unicode="}" horiz-adv-x="340" 
d="M44 -230v20h50q30 0 50 25t19 82l-3 223q0 87 78 125l-78 50l3 293q1 57 -20.5 82t-52.5 25h-50v20h49q60 0 97.5 -38.5t37.5 -101.5l-1 -265l66 -53v-7q-23 -8 -37.5 -20.5t-20 -32t-7 -34t-1.5 -41.5l1 -212q0 -63 -37 -101.5t-95 -38.5h-48z" />
    <glyph glyph-name="asciitilde" unicode="~" horiz-adv-x="669" 
d="M50 198l38 88l96 20l371 -56l44 68h20l-39 -89l-94 -19l-372 57l-44 -69h-20z" />
    <glyph glyph-name="uni00A0" unicode="&#xa0;" horiz-adv-x="178" 
 />
    <glyph glyph-name="exclamdown" unicode="&#xa1;" horiz-adv-x="248" 
d="M104 376l-25 4l-4 48l6 41l63 5l24 -5l5 -49l-6 -40zM81 -241l5 301l28 195h21l28 -194l5 -302h-87z" />
    <glyph glyph-name="cent" unicode="&#xa2;" horiz-adv-x="447" 
d="M418 76q-63 -51 -139 -84v-72h-29v65q-91 5 -148.5 66.5t-57.5 167.5q0 105 60 169t152 87v70h28v-65q31 -2 68 -17t57 -33v-89h-63l-32 92q-25 13 -53 13q-59 0 -98 -50.5t-39 -140.5q0 -89 45 -147.5t119 -58.5q57 0 121 47z" />
    <glyph glyph-name="sterling" unicode="&#xa3;" horiz-adv-x="559" 
d="M492 157h27l-13 -157l-338 1l-126 -1l-3 21l95 27v293h-88v8l14 20h74v115q0 101 42.5 149.5t169.5 81.5q96 0 137 -48v-117h-35l-30 93q-21 22 -39.5 31t-47.5 9q-55 0 -86 -39t-31 -100v-175h186v-29l-186 1v-178q0 -101 -36 -135l261 2z" />
    <glyph glyph-name="currency" unicode="&#xa4;" 
d="M115 130l-31 31l64 64q-47 56 -47 131t47 131l-64 64l31 31l63 -64q58 47 132 47t132 -47l63 64l31 -31l-64 -64q47 -56 47 -131t-47 -131l64 -64l-31 -31l-63 64q-58 -47 -132 -47t-132 47zM310 182q72 0 121.5 51t49.5 123t-49.5 123t-121.5 51t-121.5 -51t-49.5 -123
t49.5 -123t121.5 -51z" />
    <glyph glyph-name="yen" unicode="&#xa5;" horiz-adv-x="669" 
d="M571 673l-183 -392v-10h130v-26h-130v-69h130v-25h-131v-122l114 -10l-2 -20l-157 2l-160 -2l-2 20l117 10v122h-127v25h127v69h-127v26h127v1l-200 400l-77 9l3 20l132 -2l131 2l3 -20l-89 -10l163 -347l5 -18l159 365l-95 10l3 20l114 -2l97 2l3 -20z" />
    <glyph glyph-name="brokenbar" unicode="&#xa6;" horiz-adv-x="259" 
d="M110 288v430h39v-430h-39zM110 -245v430h39v-430h-39z" />
    <glyph glyph-name="section" unicode="&#xa7;" horiz-adv-x="521" 
d="M479 239q0 -128 -120 -188l81 -56v-39q0 -153 -192 -201q-42 0 -88 16t-74 40v118h30l31 -89q51 -53 118 -53q52 0 81 34.5t29 95.5v16l-176 120q-82 57 -116 104.5t-34 99.5q0 93 110 150q-69 66 -69 135q0 64 50.5 110t140.5 63q108 -3 149 -49v-109h-31l-28 84
q-36 43 -102 43q-54 0 -83 -27t-29 -77q0 -43 33 -82.5t125 -104.5l164 -116v-38zM414 198v15l-151 109q-59 43 -90 71q-58 -33 -58 -101q0 -40 29 -76t109 -92l87 -60q74 44 74 134z" />
    <glyph glyph-name="dieresis" unicode="&#xa8;" horiz-adv-x="600" 
d="M143 586l-22 5l-4 44l8 36l54 4l22 -4l5 -43l-9 -37zM314 586l-22 5l-5 44l8 36l55 4l22 -4l5 -43l-9 -37z" />
    <glyph glyph-name="copyright" unicode="&#xa9;" horiz-adv-x="833" 
d="M418 -15q-155 2 -261.5 102t-106.5 269q0 153 97.5 243.5t268.5 115.5q154 -2 260.5 -102t106.5 -269q0 -153 -97.5 -243.5t-267.5 -115.5zM416 12q130 0 221.5 90.5t91.5 241.5q0 84 -30.5 152.5t-78.5 108.5t-100.5 61.5t-101.5 21.5q-130 0 -222 -90.5t-92 -241.5
q0 -84 30.5 -152.5t78.5 -108.5t100.5 -61.5t102.5 -21.5zM428 141q-89 0 -151.5 54t-62.5 148q0 95 59.5 149.5t161.5 66.5q80 0 143 -38v-87h-20l-31 67q-36 38 -93 38q-64 0 -103.5 -47.5t-39.5 -136.5q0 -80 40 -136t112 -56q49 0 81 32l37 76h21l-8 -90
q-83 -33 -146 -40z" />
    <glyph glyph-name="ordfeminine" unicode="&#xaa;" horiz-adv-x="418" 
d="M158 313q-51 0 -82.5 26t-31.5 72q0 42 37 78l180 58v45q0 21 -1.5 33t-7 24t-19 17.5t-34.5 5.5q-27 0 -60 -12l-16 -74h-66v59l149 65q76 0 102 -26.5t26 -95.5v-166q0 -36 15 -66l43 3l2 -18l-109 -21l-21 66zM173 363q26 0 59 23l29 19v122l-114 -43q-27 -22 -27 -59
q0 -30 15 -46t38 -16z" />
    <glyph glyph-name="guillemotleft" unicode="&#xab;" horiz-adv-x="427" 
d="M196 15l-181 220l182 220h25l-129 -221l129 -219h-26zM371 15l-181 220l182 220h25l-130 -221l130 -219h-26z" />
    <glyph glyph-name="logicalnot" unicode="&#xac;" 
d="M525 180v143h-473v42h515v-185h-42z" />
    <glyph glyph-name="uni00AD" unicode="&#xad;" horiz-adv-x="370" 
d="M34 254v43h302v-43h-302z" />
    <glyph glyph-name="registered" unicode="&#xae;" horiz-adv-x="592" 
d="M295 685q105 -1 178.5 -69.5t73.5 -184.5q0 -105 -67 -167t-183 -79q-106 1 -179 69.5t-73 184.5q0 105 66.5 167t183.5 79zM295 204q87 0 148.5 62t61.5 165q0 58 -20.5 104.5t-52.5 74t-67 42t-68 14.5q-87 0 -148.5 -62t-61.5 -165q0 -110 67 -172.5t141 -62.5z
M352 417l68 -99l20 -4l-1 -13l-41 1l-35 -1l-82 126h-27v-110l32 -3l-1 -13l-59 1l-59 -1l-1 13l32 3v240l-32 3l1 12l59 -1l87 1q39 0 64.5 -17t25.5 -50q0 -59 -99 -73zM254 557v-115h25q29 0 46.5 16t17.5 44q0 27 -15.5 42.5t-39.5 15.5z" />
    <glyph glyph-name="macron" unicode="&#xaf;" horiz-adv-x="600" 
d="M110 613v41h280v-41h-280z" />
    <glyph glyph-name="degree" unicode="&#xb0;" horiz-adv-x="417" 
d="M208 446q-62 0 -107.5 45t-45.5 108q0 62 37 97.5t117 56.5q62 0 107.5 -45t45.5 -108q0 -62 -37 -97.5t-117 -56.5zM208 488q49 0 81 32.5t32 78.5t-33 79.5t-79 33.5q-49 0 -81 -33t-32 -79t33 -79t79 -33z" />
    <glyph glyph-name="plusminus" unicode="&#xb1;" 
d="M284 141v232h-237v42h237v241h42v-241h236v-42h-236v-232h-42zM47 0v42h526v-42h-526z" />
    <glyph glyph-name="uni00B2" unicode="&#xb2;" horiz-adv-x="371" 
d="M37 400l-10 16l88 89q61 61 88 104.5t27 83.5q0 33 -16.5 53t-41.5 20q-17 0 -43 -8l-20 -78h-61v68l136 46q61 0 94 -27.5t33 -69.5q0 -52 -34.5 -94.5t-111.5 -95.5l-80 -57l29 11h211v-16l-18 -45h-270z" />
    <glyph glyph-name="uni00B3" unicode="&#xb3;" horiz-adv-x="347" 
d="M42 399v62h141q35 27 35 63q0 32 -27 52t-77 19l-3 15l28 14q37 17 51 35.5t14 47.5q0 26 -14 41.5t-35 15.5q-14 0 -35 -7l-20 -71h-58v64l137 44q51 0 75.5 -21t24.5 -50q0 -60 -100 -92q54 -2 85 -27t31 -58q0 -21 -8 -37t-28.5 -30.5t-35 -22.5t-47.5 -24l-73 -33
h-61z" />
    <glyph glyph-name="acute" unicode="&#xb4;" horiz-adv-x="600" 
d="M143 547l55 163h93l-127 -163h-21z" />
    <glyph glyph-name="uni00B5" unicode="&#xb5;" 
d="M460 59q16 -31 74 -42l-2 -17h-109l-43 75v8l-144 -98q-96 0 -117 55v-70l63 -200h-97v695h80v-317q0 -101 76 -101q15 0 35 8t29 13t39 24l36 22v351h80v-406z" />
    <glyph glyph-name="paragraph" unicode="&#xb6;" horiz-adv-x="474" 
d="M177 -159v569q-63 0 -105 35.5t-42 94.5q0 45 36.5 80.5t108.5 79.5h259v-28l-50 -8v-823h-38v824h-131v-824h-38z" />
    <glyph glyph-name="periodcentered" unicode="&#xb7;" horiz-adv-x="215" 
d="M86 351l-26 4l-5 53l6 43l67 4l27 -4l5 -51l-6 -45z" />
    <glyph glyph-name="cedilla" unicode="&#xb8;" horiz-adv-x="600" 
d="M170 -243l25 36h76q31 21 31 65q0 30 -21.5 44.5t-53.5 16.5l62 88l18 -5l-34 -51q34 -2 58 -22.5t24 -53.5q0 -66 -85 -97l-60 -21h-40z" />
    <glyph glyph-name="uni00B9" unicode="&#xb9;" horiz-adv-x="308" 
d="M43 399l-2 17l85 7v314l2 7l-13 -8l-71 -18l-8 16l139 55h24v-366l84 -7l-1 -17l-118 2z" />
    <glyph glyph-name="ordmasculine" unicode="&#xba;" horiz-adv-x="473" 
d="M226 313q-79 0 -128.5 54t-49.5 136q0 170 199 207q78 0 128 -53.5t50 -135.5q0 -171 -199 -208zM247 341q48 0 74 43t26 115q0 84 -34 133t-88 49q-48 0 -74 -42.5t-26 -115.5q0 -78 34.5 -130t87.5 -52z" />
    <glyph glyph-name="guillemotright" unicode="&#xbb;" horiz-adv-x="427" 
d="M30 15l129 219l-129 221h25l182 -220l-181 -220h-26zM205 15l129 219l-129 221h25l182 -220l-181 -220h-26z" />
    <glyph glyph-name="onequarter" unicode="&#xbc;" horiz-adv-x="790" 
d="M148 -50l387 760h40l-385 -760h-42zM43 314l-2 17l85 7v314l2 7l-13 -8l-71 -18l-8 16l139 55h24v-366l84 -7l-1 -17l-118 2zM616 0v110h-159l-14 22l188 253h76v-19l-231 -230l16 6h124v75l60 42h9v-117h78v-32h-78v-110h-69z" />
    <glyph glyph-name="onehalf" unicode="&#xbd;" horiz-adv-x="786" 
d="M148 -50l387 760h40l-385 -760h-42zM43 314l-2 17l85 7v314l2 7l-13 -8l-71 -18l-8 16l139 55h24v-366l84 -7l-1 -17l-118 2zM452 0l-10 16l88 89q61 61 88 104.5t27 83.5q0 33 -16.5 53t-41.5 20q-17 0 -43 -8l-20 -78h-61v68l136 46q61 0 94 -27.5t33 -69.5
q0 -52 -34.5 -94.5t-111.5 -95.5l-80 -57l29 11h211v-16l-18 -45h-270z" />
    <glyph glyph-name="threequarters" unicode="&#xbe;" horiz-adv-x="829" 
d="M187 -50l387 760h40l-385 -760h-42zM42 314v62h141q35 27 35 63q0 32 -27 52t-77 19l-3 15l28 14q37 17 51 35.5t14 47.5q0 26 -14 41.5t-35 15.5q-14 0 -35 -7l-20 -71h-58v64l137 44q51 0 75.5 -21t24.5 -50q0 -60 -100 -92q54 -2 85 -27t31 -58q0 -21 -8 -37
t-28.5 -30.5t-35 -22.5t-47.5 -24l-73 -33h-61zM655 0v110h-159l-14 22l188 253h76v-19l-231 -230l16 6h124v75l60 42h9v-117h78v-32h-78v-110h-69z" />
    <glyph glyph-name="questiondown" unicode="&#xbf;" horiz-adv-x="368" 
d="M232 471l25 -4l5 -49l-6 -40l-63 -4l-25 4l-4 47l6 42zM234 251l13 -136l-40 -27q-100 -66 -100 -168q0 -131 113 -135l28 98h60v-114l-87 -12q-101 6 -151.5 53.5t-50.5 111.5q0 117 117 172l58 28l5 129h35z" />
    <glyph glyph-name="Agrave" unicode="&#xc0;" horiz-adv-x="720" 
d="M358 767l-121 133h94l58 -133h-31zM10 -1l-2 20l79 9l246 659l50 23l251 -682l78 -9l-2 -20l-131 2l-129 -2l-3 20l87 10l-76 217h-252l-76 -217l88 -10l-2 -20l-110 2zM216 275h232l-109 313l-3 26z" />
    <glyph glyph-name="Aacute" unicode="&#xc1;" horiz-adv-x="720" 
d="M343 767l58 133h95l-122 -133h-31zM10 -1l-2 20l79 9l246 659l50 23l251 -682l78 -9l-2 -20l-131 2l-129 -2l-3 20l87 10l-76 217h-252l-76 -217l88 -10l-2 -20l-110 2zM216 275h232l-109 313l-3 26z" />
    <glyph glyph-name="Acircumflex" unicode="&#xc2;" horiz-adv-x="720" 
d="M219 767l117 137h46l117 -137h-31l-103 76l-6 6l-6 -6l-103 -76h-31zM10 -1l-2 20l79 9l246 659l50 23l251 -682l78 -9l-2 -20l-131 2l-129 -2l-3 20l87 10l-76 217h-252l-76 -217l88 -10l-2 -20l-110 2zM216 275h232l-109 313l-3 26z" />
    <glyph glyph-name="Atilde" unicode="&#xc3;" horiz-adv-x="720" 
d="M203 770l25 96l67 21l176 -67l32 70h15l-24 -96l-68 -21l-175 68l-33 -71h-15zM10 -1l-2 20l79 9l246 659l50 23l251 -682l78 -9l-2 -20l-131 2l-129 -2l-3 20l87 10l-76 217h-252l-76 -217l88 -10l-2 -20l-110 2zM216 275h232l-109 313l-3 26z" />
    <glyph glyph-name="Adieresis" unicode="&#xc4;" horiz-adv-x="720" 
d="M232 787l-21 4l-5 45l8 35l54 5l23 -5l4 -42l-9 -38zM449 787l-23 4l-4 45l8 35l54 5l22 -5l5 -42l-8 -38zM10 -1l-2 20l79 9l246 659l50 23l251 -682l78 -9l-2 -20l-131 2l-129 -2l-3 20l87 10l-76 217h-252l-76 -217l88 -10l-2 -20l-110 2zM216 275h232l-109 313l-3 26
z" />
    <glyph glyph-name="Aring" unicode="&#xc5;" horiz-adv-x="720" 
d="M358 729q-41 0 -70.5 23t-29.5 68q0 22 7.5 38t24 27t29.5 16.5t39 13.5q41 0 71.5 -23t30.5 -68q0 -22 -7.5 -38t-25 -26.5t-31 -16.5t-38.5 -14zM358 755q30 0 48 18.5t18 48.5t-18 48.5t-48 18.5q-29 0 -47 -18t-18 -49t18 -49t47 -18zM10 -1l-2 20l79 9l246 659
l50 23l251 -682l78 -9l-2 -20l-131 2l-129 -2l-3 20l87 10l-76 217h-252l-76 -217l88 -10l-2 -20l-110 2zM216 275h232l-109 313l-3 26z" />
    <glyph glyph-name="AE" unicode="&#xc6;" horiz-adv-x="977" 
d="M8 0l-3 19l79 9l421 673l53 -2l372 2l5 -179h-20l-59 149l-254 1v-322l132 2l40 110h21l-5 -122l5 -127h-21l-40 109l-132 2v-296l263 1l65 154h21l-17 -184l-377 2l-133 -2l-2 20l90 10v294h-205l-179 -294l83 -10l-2 -19l-104 1zM322 349h190v317z" />
    <glyph glyph-name="Ccedilla" unicode="&#xc7;" horiz-adv-x="686" 
d="M390 -17h-8l-21 -32q34 -2 58 -22.5t24 -53.5q0 -66 -85 -97l-60 -21h-40l25 36h76q31 21 31 65q0 30 -21.5 44.5t-53.5 16.5l46 65q-135 10 -228 104.5t-93 251.5q0 165 98.5 261.5t263.5 115.5q125 0 235 -67v-142h-30l-43 111q-67 67 -169 67q-112 0 -183 -85
t-71 -242q0 -89 29 -165t93 -126.5t152 -50.5q76 0 143 60l55 125h30l-13 -147q-119 -56 -240 -72z" />
    <glyph glyph-name="Egrave" unicode="&#xc8;" horiz-adv-x="614" 
d="M330 767l-121 133h94l58 -133h-31zM32 -1l-2 20l89 10v642l-89 10l2 20l133 -2l399 2l5 -179h-19l-60 149l-281 1v-293l160 2l40 111h20l-5 -123l5 -127h-20l-40 110l-160 2v-326l291 1l64 153h22l-18 -183l-403 2z" />
    <glyph glyph-name="Eacute" unicode="&#xc9;" horiz-adv-x="614" 
d="M315 767l58 133h95l-122 -133h-31zM32 -1l-2 20l89 10v642l-89 10l2 20l133 -2l399 2l5 -179h-19l-60 149l-281 1v-293l160 2l40 111h20l-5 -123l5 -127h-20l-40 110l-160 2v-326l291 1l64 153h22l-18 -183l-403 2z" />
    <glyph glyph-name="Ecircumflex" unicode="&#xca;" horiz-adv-x="614" 
d="M191 767l117 137h46l117 -137h-31l-103 76l-6 6l-6 -6l-103 -76h-31zM32 -1l-2 20l89 10v642l-89 10l2 20l133 -2l399 2l5 -179h-19l-60 149l-281 1v-293l160 2l40 111h20l-5 -123l5 -127h-20l-40 110l-160 2v-326l291 1l64 153h22l-18 -183l-403 2z" />
    <glyph glyph-name="Edieresis" unicode="&#xcb;" horiz-adv-x="614" 
d="M204 787l-21 4l-5 45l8 35l54 5l23 -5l4 -42l-9 -38zM421 787l-23 4l-4 45l8 35l54 5l22 -5l5 -42l-8 -38zM32 -1l-2 20l89 10v642l-89 10l2 20l133 -2l399 2l5 -179h-19l-60 149l-281 1v-293l160 2l40 111h20l-5 -123l5 -127h-20l-40 110l-160 2v-326l291 1l64 153h22
l-18 -183l-403 2z" />
    <glyph glyph-name="Igrave" unicode="&#xcc;" horiz-adv-x="329" 
d="M164 767l-121 133h94l58 -133h-31zM32 -1l-2 21l89 9v642l-89 10l2 20l133 -2l132 2l2 -20l-90 -10v-642l90 -9l-2 -21l-132 2z" />
    <glyph glyph-name="Iacute" unicode="&#xcd;" horiz-adv-x="329" 
d="M149 767l58 133h95l-122 -133h-31zM32 -1l-2 21l89 9v642l-89 10l2 20l133 -2l132 2l2 -20l-90 -10v-642l90 -9l-2 -21l-132 2z" />
    <glyph glyph-name="Icircumflex" unicode="&#xce;" horiz-adv-x="329" 
d="M25 767l117 137h46l117 -137h-31l-103 76l-6 6l-6 -6l-103 -76h-31zM32 -1l-2 21l89 9v642l-89 10l2 20l133 -2l132 2l2 -20l-90 -10v-642l90 -9l-2 -21l-132 2z" />
    <glyph glyph-name="Idieresis" unicode="&#xcf;" horiz-adv-x="329" 
d="M38 787l-21 4l-5 45l8 35l54 5l23 -5l4 -42l-9 -38zM255 787l-23 4l-4 45l8 35l54 5l22 -5l5 -42l-8 -38zM32 -1l-2 21l89 9v642l-89 10l2 20l133 -2l132 2l2 -20l-90 -10v-642l90 -9l-2 -21l-132 2z" />
    <glyph glyph-name="Eth" unicode="&#xd0;" horiz-adv-x="728" 
d="M354 701q154 0 244 -88t90 -247q0 -162 -87 -259t-252 -108l-179 2l-138 -2l-2 20l94 10v325h-84v22h84v295l-94 10l2 20l138 -2zM346 25q108 0 174.5 91t66.5 242q0 144 -66 231t-197 87l-110 -5v-295h136v-22h-136v-322z" />
    <glyph glyph-name="Ntilde" unicode="&#xd1;" horiz-adv-x="718" 
d="M217 770l25 96l67 21l176 -67l32 70h15l-24 -96l-68 -21l-175 68l-33 -71h-15zM569 -4l-404 618l-8 33v-618l88 -10l-3 -20l-101 2l-109 -2l-2 20l89 10v638l-87 14l2 20l108 -2l66 2l363 -548l10 -28v546l-87 10l2 20l100 -2l109 2l3 -20l-90 -10v-675h-49z" />
    <glyph glyph-name="Ograve" unicode="&#xd2;" horiz-adv-x="765" 
d="M384 767l-121 133h94l58 -133h-31zM373 -17q-146 0 -239.5 101t-93.5 252q0 328 352 381q146 0 239.5 -100.5t93.5 -252.5q0 -328 -352 -381zM401 20q107 0 165.5 88t58.5 226q0 91 -28.5 168t-89 127.5t-142.5 50.5q-107 0 -165.5 -88t-58.5 -226q0 -142 69.5 -244
t190.5 -102z" />
    <glyph glyph-name="Oacute" unicode="&#xd3;" horiz-adv-x="765" 
d="M369 767l58 133h95l-122 -133h-31zM373 -17q-146 0 -239.5 101t-93.5 252q0 328 352 381q146 0 239.5 -100.5t93.5 -252.5q0 -328 -352 -381zM401 20q107 0 165.5 88t58.5 226q0 91 -28.5 168t-89 127.5t-142.5 50.5q-107 0 -165.5 -88t-58.5 -226q0 -142 69.5 -244
t190.5 -102z" />
    <glyph glyph-name="Ocircumflex" unicode="&#xd4;" horiz-adv-x="765" 
d="M245 767l117 137h46l117 -137h-31l-103 76l-6 6l-6 -6l-103 -76h-31zM373 -17q-146 0 -239.5 101t-93.5 252q0 328 352 381q146 0 239.5 -100.5t93.5 -252.5q0 -328 -352 -381zM401 20q107 0 165.5 88t58.5 226q0 91 -28.5 168t-89 127.5t-142.5 50.5q-107 0 -165.5 -88
t-58.5 -226q0 -142 69.5 -244t190.5 -102z" />
    <glyph glyph-name="Otilde" unicode="&#xd5;" horiz-adv-x="765" 
d="M229 770l25 96l67 21l176 -67l32 70h15l-24 -96l-68 -21l-175 68l-33 -71h-15zM373 -17q-146 0 -239.5 101t-93.5 252q0 328 352 381q146 0 239.5 -100.5t93.5 -252.5q0 -328 -352 -381zM401 20q107 0 165.5 88t58.5 226q0 91 -28.5 168t-89 127.5t-142.5 50.5
q-107 0 -165.5 -88t-58.5 -226q0 -142 69.5 -244t190.5 -102z" />
    <glyph glyph-name="Odieresis" unicode="&#xd6;" horiz-adv-x="765" 
d="M258 787l-21 4l-5 45l8 35l54 5l23 -5l4 -42l-9 -38zM475 787l-23 4l-4 45l8 35l54 5l22 -5l5 -42l-8 -38zM373 -17q-146 0 -239.5 101t-93.5 252q0 328 352 381q146 0 239.5 -100.5t93.5 -252.5q0 -328 -352 -381zM401 20q107 0 165.5 88t58.5 226q0 91 -28.5 168
t-89 127.5t-142.5 50.5q-107 0 -165.5 -88t-58.5 -226q0 -142 69.5 -244t190.5 -102z" />
    <glyph glyph-name="multiply" unicode="&#xd7;" 
d="M135 24l-30 30l175 175l-175 175l30 29l175 -175l174 175l30 -29l-175 -175l175 -175l-29 -29l-175 175z" />
    <glyph glyph-name="Oslash" unicode="&#xd8;" horiz-adv-x="765" 
d="M619 629q106 -101 106 -265q0 -328 -352 -381q-115 0 -203 67l-50 -65h-35l64 83q-109 103 -109 268q0 328 352 381q120 0 207 -70l53 68h33zM141 366q0 -135 61 -231l349 450q-72 95 -186 95q-107 0 -165.5 -88t-58.5 -226zM401 20q107 0 165.5 88t58.5 226
q0 133 -59 228l-348 -450q71 -92 183 -92z" />
    <glyph glyph-name="Ugrave" unicode="&#xd9;" horiz-adv-x="692" 
d="M365 767l-121 133h94l58 -133h-31zM355 -17q-253 0 -253 264v424l-89 10l2 20l133 -2l131 2l3 -20l-87 -10v-437q0 -96 46 -152.5t135 -56.5q79 0 124 57.5t45 152.5v436l-90 10l3 20l112 -2l107 2l3 -20l-87 -10v-429q0 -104 -52 -168.5t-186 -90.5z" />
    <glyph glyph-name="Uacute" unicode="&#xda;" horiz-adv-x="692" 
d="M350 767l58 133h95l-122 -133h-31zM355 -17q-253 0 -253 264v424l-89 10l2 20l133 -2l131 2l3 -20l-87 -10v-437q0 -96 46 -152.5t135 -56.5q79 0 124 57.5t45 152.5v436l-90 10l3 20l112 -2l107 2l3 -20l-87 -10v-429q0 -104 -52 -168.5t-186 -90.5z" />
    <glyph glyph-name="Ucircumflex" unicode="&#xdb;" horiz-adv-x="692" 
d="M226 767l117 137h46l117 -137h-31l-103 76l-6 6l-6 -6l-103 -76h-31zM355 -17q-253 0 -253 264v424l-89 10l2 20l133 -2l131 2l3 -20l-87 -10v-437q0 -96 46 -152.5t135 -56.5q79 0 124 57.5t45 152.5v436l-90 10l3 20l112 -2l107 2l3 -20l-87 -10v-429
q0 -104 -52 -168.5t-186 -90.5z" />
    <glyph glyph-name="Udieresis" unicode="&#xdc;" horiz-adv-x="692" 
d="M239 787l-21 4l-5 45l8 35l54 5l23 -5l4 -42l-9 -38zM456 787l-23 4l-4 45l8 35l54 5l22 -5l5 -42l-8 -38zM355 -17q-253 0 -253 264v424l-89 10l2 20l133 -2l131 2l3 -20l-87 -10v-437q0 -96 46 -152.5t135 -56.5q79 0 124 57.5t45 152.5v436l-90 10l3 20l112 -2l107 2
l3 -20l-87 -10v-429q0 -104 -52 -168.5t-186 -90.5z" />
    <glyph glyph-name="Yacute" unicode="&#xdd;" horiz-adv-x="696" 
d="M361 767l58 133h95l-122 -133h-31zM194 -1l-3 20l117 10v245l-226 399l-77 8l3 20l131 -2l132 2l3 -20l-89 -9l190 -338l5 -19l189 357l-95 9l2 20l116 -2l96 2l3 -19l-78 -8l-216 -393l1 -252l114 -10l-2 -20l-156 2z" />
    <glyph glyph-name="Thorn" unicode="&#xde;" horiz-adv-x="584" 
d="M33 -1l-2 21l90 9v642l-90 10l2 20l133 -2l132 2l2 -20l-89 -10v-118l141 1q96 0 156.5 -47t60.5 -132q0 -162 -243 -214h-115v-132l105 -9l-2 -21l-148 2zM211 191h90q74 0 121 48.5t47 124.5q0 73 -37.5 118.5t-116.5 45.5l-104 -3v-334z" />
    <glyph glyph-name="germandbls" unicode="&#xdf;" horiz-adv-x="572" 
d="M383 -17q-70 0 -140 45l-3 113h28l36 -87q48 -36 93 -36q37 0 59 24.5t22 59.5q0 57 -69 106l-61 43q-80 55 -84 144l62 35q80 45 80 145q0 43 -27 77.5t-79 34.5q-116 0 -116 -170v-517l-37 1l-111 -2l-2 18l70 7v408h-79v8l15 20l64 3v37q0 54 30 105t92 80l73 33
q86 0 139 -35t53 -97q0 -109 -159 -176q2 -29 18.5 -51.5t56.5 -48.5l65 -44q80 -52 80 -123q0 -56 -49 -100t-120 -60z" />
    <glyph glyph-name="agrave" unicode="&#xe0;" horiz-adv-x="452" 
d="M218 547l-127 163h93l55 -163h-21zM167 -15q-62 0 -99.5 32.5t-37.5 88.5q0 53 43 96l220 73v53q0 27 -2 42.5t-9 32t-24 24t-44 7.5q-26 0 -76 -16l-21 -89h-72v70l176 81q93 0 122.5 -33t29.5 -121v-207q0 -46 18 -84l53 3l3 -19l-126 -24l-25 82zM179 44q36 0 76 30
l38 26v152l-147 -58q-34 -31 -34 -73q0 -37 19 -57t48 -20z" />
    <glyph glyph-name="aacute" unicode="&#xe1;" horiz-adv-x="452" 
d="M214 547l55 163h93l-127 -163h-21zM167 -15q-62 0 -99.5 32.5t-37.5 88.5q0 53 43 96l220 73v53q0 27 -2 42.5t-9 32t-24 24t-44 7.5q-26 0 -76 -16l-21 -89h-72v70l176 81q93 0 122.5 -33t29.5 -121v-207q0 -46 18 -84l53 3l3 -19l-126 -24l-25 82zM179 44q36 0 76 30
l38 26v152l-147 -58q-34 -31 -34 -73q0 -37 19 -57t48 -20z" />
    <glyph glyph-name="acircumflex" unicode="&#xe2;" horiz-adv-x="452" 
d="M86 547l116 163h40l116 -163h-25l-102 85l-9 14l-9 -14l-102 -85h-25zM167 -15q-62 0 -99.5 32.5t-37.5 88.5q0 53 43 96l220 73v53q0 27 -2 42.5t-9 32t-24 24t-44 7.5q-26 0 -76 -16l-21 -89h-72v70l176 81q93 0 122.5 -33t29.5 -121v-207q0 -46 18 -84l53 3l3 -19
l-126 -24l-25 82zM179 44q36 0 76 30l38 26v152l-147 -58q-34 -31 -34 -73q0 -37 19 -57t48 -20z" />
    <glyph glyph-name="atilde" unicode="&#xe3;" horiz-adv-x="452" 
d="M286 577l-176 71l-28 -72h-17l23 94l69 22l175 -72l29 72h17l-25 -96zM167 -15q-62 0 -99.5 32.5t-37.5 88.5q0 53 43 96l220 73v53q0 27 -2 42.5t-9 32t-24 24t-44 7.5q-26 0 -76 -16l-21 -89h-72v70l176 81q93 0 122.5 -33t29.5 -121v-207q0 -46 18 -84l53 3l3 -19
l-126 -24l-25 82zM179 44q36 0 76 30l38 26v152l-147 -58q-34 -31 -34 -73q0 -37 19 -57t48 -20z" />
    <glyph glyph-name="adieresis" unicode="&#xe4;" horiz-adv-x="452" 
d="M118 586l-22 5l-4 44l8 36l54 4l22 -4l5 -43l-9 -37zM289 586l-22 5l-5 44l8 36l55 4l22 -4l5 -43l-9 -37zM167 -15q-62 0 -99.5 32.5t-37.5 88.5q0 53 43 96l220 73v53q0 27 -2 42.5t-9 32t-24 24t-44 7.5q-26 0 -76 -16l-21 -89h-72v70l176 81q93 0 122.5 -33
t29.5 -121v-207q0 -46 18 -84l53 3l3 -19l-126 -24l-25 82zM179 44q36 0 76 30l38 26v152l-147 -58q-34 -31 -34 -73q0 -37 19 -57t48 -20z" />
    <glyph glyph-name="aring" unicode="&#xe5;" horiz-adv-x="452" 
d="M223 539q-43 0 -72.5 22t-29.5 69q0 22 7.5 38t24 27t29.5 16.5t39 13.5q45 0 73 -22.5t28 -70.5q0 -12 -2.5 -22t-5 -17t-10 -13.5t-11.5 -10t-15.5 -9t-16 -7.5t-19.5 -7t-19 -7zM222 567q28 0 46.5 17.5t18.5 46.5t-18.5 47.5t-46.5 18.5q-29 0 -47 -18.5t-18 -47.5
t18 -46.5t47 -17.5zM167 -15q-62 0 -99.5 32.5t-37.5 88.5q0 53 43 96l220 73v53q0 27 -2 42.5t-9 32t-24 24t-44 7.5q-26 0 -76 -16l-21 -89h-72v70l176 81q93 0 122.5 -33t29.5 -121v-207q0 -46 18 -84l53 3l3 -19l-126 -24l-25 82zM179 44q36 0 76 30l38 26v152l-147 -58
q-34 -31 -34 -73q0 -37 19 -57t48 -20z" />
    <glyph glyph-name="ae" unicode="&#xe6;" horiz-adv-x="704" 
d="M659 95l10 -22q-70 -52 -171 -88q-61 0 -112.5 27t-78.5 80l-140 -107q-61 0 -99 32.5t-38 86.5q0 55 43 98l212 73v53q0 21 -0.5 33t-4.5 28t-11 24t-20.5 14t-32.5 6q-35 0 -77 -15l-20 -91h-74v72l174 81q64 0 94 -15t42 -56q50 49 145 71q164 0 164 -183v-35h-297v-3
q0 -98 45.5 -153.5t122.5 -55.5q56 0 124 45zM480 445q-52 0 -80 -43.5t-32 -116.5l206 5q0 75 -19.5 115t-74.5 40zM250 77l42 32q-6 36 -6 78v66l-140 -59q-34 -29 -34 -75q0 -35 19.5 -55.5t47.5 -20.5q27 0 71 34z" />
    <glyph glyph-name="ccedilla" unicode="&#xe7;" horiz-adv-x="437" 
d="M231 -49q34 -2 58 -22.5t24 -53.5q0 -66 -85 -97l-60 -21h-40l25 36h76q31 21 31 65q0 30 -21.5 44.5t-53.5 16.5l47 67q-87 8 -140.5 69.5t-53.5 163.5q0 111 66.5 176.5t166.5 84.5q30 0 70 -15.5t62 -34.5v-89h-63l-32 92q-25 13 -53 13q-59 0 -98 -50.5t-39 -140.5
q0 -89 45 -147.5t119 -58.5q57 0 121 47l9 -20q-67 -55 -156 -91h-2z" />
    <glyph glyph-name="egrave" unicode="&#xe8;" horiz-adv-x="463" 
d="M271 547h-21l-127 163h93zM418 94l10 -20q-76 -56 -168 -89q-93 0 -159 62.5t-66 173.5q0 109 59.5 173.5t158.5 85.5q171 0 171 -184v-31h-310v-3q0 -99 48 -155.5t130 -56.5q56 0 126 44zM232 445q-50 0 -81.5 -41.5t-35.5 -114.5l219 4v3q0 73 -21 111t-81 38z" />
    <glyph glyph-name="eacute" unicode="&#xe9;" horiz-adv-x="463" 
d="M394 710l-127 -163h-21l55 163h93zM418 94l10 -20q-76 -56 -168 -89q-93 0 -159 62.5t-66 173.5q0 109 59.5 173.5t158.5 85.5q171 0 171 -184v-31h-310v-3q0 -99 48 -155.5t130 -56.5q56 0 126 44zM232 445q-50 0 -81.5 -41.5t-35.5 -114.5l219 4v3q0 73 -21 111t-81 38
z" />
    <glyph glyph-name="ecircumflex" unicode="&#xea;" horiz-adv-x="463" 
d="M245 632l-102 -85h-25l116 163h40l116 -163h-25l-102 85l-9 14zM418 94l10 -20q-76 -56 -168 -89q-93 0 -159 62.5t-66 173.5q0 109 59.5 173.5t158.5 85.5q171 0 171 -184v-31h-310v-3q0 -99 48 -155.5t130 -56.5q56 0 126 44zM232 445q-50 0 -81.5 -41.5t-35.5 -114.5
l219 4v3q0 73 -21 111t-81 38z" />
    <glyph glyph-name="edieresis" unicode="&#xeb;" horiz-adv-x="463" 
d="M150 586l-22 5l-4 44l8 36l54 4l22 -4l5 -43l-9 -37zM321 586l-22 5l-5 44l8 36l55 4l22 -4l5 -43l-9 -37zM418 94l10 -20q-76 -56 -168 -89q-93 0 -159 62.5t-66 173.5q0 109 59.5 173.5t158.5 85.5q171 0 171 -184v-31h-310v-3q0 -99 48 -155.5t130 -56.5q56 0 126 44z
M232 445q-50 0 -81.5 -41.5t-35.5 -114.5l219 4v3q0 73 -21 111t-81 38z" />
    <glyph glyph-name="igrave" unicode="&#xec;" horiz-adv-x="276" 
d="M138 547l-127 163h93l55 -163h-21zM37 -1l-3 20l70 8v400l-71 -12l-3 20l127 35l27 2v-445l72 -8l-2 -20l-109 2z" />
    <glyph glyph-name="iacute" unicode="&#xed;" horiz-adv-x="276" 
d="M134 547l55 163h93l-127 -163h-21zM37 -1l-3 20l70 8v400l-71 -12l-3 20l127 35l27 2v-445l72 -8l-2 -20l-109 2z" />
    <glyph glyph-name="icircumflex" unicode="&#xee;" horiz-adv-x="276" 
d="M6 547l116 163h40l116 -163h-25l-102 85l-9 14l-9 -14l-102 -85h-25zM37 -1l-3 20l70 8v400l-71 -12l-3 20l127 35l27 2v-445l72 -8l-2 -20l-109 2z" />
    <glyph glyph-name="idieresis" unicode="&#xef;" horiz-adv-x="276" 
d="M38 586l-22 5l-4 44l8 36l54 4l22 -4l5 -43l-9 -37zM209 586l-22 5l-5 44l8 36l55 4l22 -4l5 -43l-9 -37zM37 -1l-3 20l70 8v400l-71 -12l-3 20l127 35l27 2v-445l72 -8l-2 -20l-109 2z" />
    <glyph glyph-name="eth" unicode="&#xf0;" horiz-adv-x="516" 
d="M302 629q176 -129 176 -353q0 -123 -56 -200.5t-161 -90.5q-109 16 -170 87t-61 178q0 93 49 157.5t139 66.5l165 -87q-23 138 -119 223l-124 -60v31l100 49q-51 38 -129 68l11 22q88 -30 154 -73l116 57v-31zM249 18q65 0 103 78t38 200q0 33 -3 63l-37 20
q-70 38 -114 38q-56 0 -87 -50t-31 -137q0 -102 35.5 -157t95.5 -55z" />
    <glyph glyph-name="ntilde" unicode="&#xf1;" horiz-adv-x="572" 
d="M350 577l-176 71l-28 -72h-17l23 94l69 22l175 -72l29 72h17l-25 -96zM37 -1l-3 20l70 8v400l-71 -12l-3 20l126 35l24 1l3 -96l165 105q79 0 104 -34.5t25 -120.5v-298l78 -8l-2 -20l-113 2l-93 -2l-2 20l51 8v306q0 45 -16.5 64.5t-50.5 19.5q-18 0 -38.5 -7.5t-31 -14
t-39.5 -24.5l-36 -23v-321l54 -8l-2 -20l-89 2z" />
    <glyph glyph-name="ograve" unicode="&#xf2;" horiz-adv-x="525" 
d="M259 547l-127 163h93l55 -163h-21zM251 -15q-96 0 -156 67.5t-60 169.5q0 214 239 258q96 0 156 -67.5t60 -169.5q0 -215 -239 -258zM276 18q62 0 95.5 57t33.5 147q0 100 -43.5 162t-112.5 62q-62 0 -95.5 -56t-33.5 -147q0 -94 43.5 -159.5t112.5 -65.5z" />
    <glyph glyph-name="oacute" unicode="&#xf3;" horiz-adv-x="525" 
d="M255 547l55 163h93l-127 -163h-21zM251 -15q-96 0 -156 67.5t-60 169.5q0 214 239 258q96 0 156 -67.5t60 -169.5q0 -215 -239 -258zM276 18q62 0 95.5 57t33.5 147q0 100 -43.5 162t-112.5 62q-62 0 -95.5 -56t-33.5 -147q0 -94 43.5 -159.5t112.5 -65.5z" />
    <glyph glyph-name="ocircumflex" unicode="&#xf4;" horiz-adv-x="525" 
d="M127 547l116 163h40l116 -163h-25l-102 85l-9 14l-9 -14l-102 -85h-25zM251 -15q-96 0 -156 67.5t-60 169.5q0 214 239 258q96 0 156 -67.5t60 -169.5q0 -215 -239 -258zM276 18q62 0 95.5 57t33.5 147q0 100 -43.5 162t-112.5 62q-62 0 -95.5 -56t-33.5 -147
q0 -94 43.5 -159.5t112.5 -65.5z" />
    <glyph glyph-name="otilde" unicode="&#xf5;" horiz-adv-x="525" 
d="M327 577l-176 71l-28 -72h-17l23 94l69 22l175 -72l29 72h17l-25 -96zM251 -15q-96 0 -156 67.5t-60 169.5q0 214 239 258q96 0 156 -67.5t60 -169.5q0 -215 -239 -258zM276 18q62 0 95.5 57t33.5 147q0 100 -43.5 162t-112.5 62q-62 0 -95.5 -56t-33.5 -147
q0 -94 43.5 -159.5t112.5 -65.5z" />
    <glyph glyph-name="odieresis" unicode="&#xf6;" horiz-adv-x="525" 
d="M159 586l-22 5l-4 44l8 36l54 4l22 -4l5 -43l-9 -37zM330 586l-22 5l-5 44l8 36l55 4l22 -4l5 -43l-9 -37zM251 -15q-96 0 -156 67.5t-60 169.5q0 214 239 258q96 0 156 -67.5t60 -169.5q0 -215 -239 -258zM276 18q62 0 95.5 57t33.5 147q0 100 -43.5 162t-112.5 62
q-62 0 -95.5 -56t-33.5 -147q0 -94 43.5 -159.5t112.5 -65.5z" />
    <glyph glyph-name="divide" unicode="&#xf7;" 
d="M292 373l-25 5l-4 49l5 40l63 4l25 -4l4 -47l-5 -42zM47 223v43h525v-43h-525zM292 9l-25 5l-4 48l5 41l63 3l25 -3l4 -48l-5 -41z" />
    <glyph glyph-name="oslash" unicode="&#xf8;" horiz-adv-x="526" 
d="M428 415q62 -68 62 -172q0 -215 -239 -258q-82 0 -139 51l-38 -46h-33l53 63q-59 69 -59 169q0 214 239 258q80 0 137 -49l41 49h30zM120 243q0 -71 26 -128l220 262q-44 69 -117 69q-62 0 -95.5 -56t-33.5 -147zM276 18q62 0 95.5 57t33.5 147q0 76 -27 133l-220 -264
q46 -73 118 -73z" />
    <glyph glyph-name="ugrave" unicode="&#xf9;" horiz-adv-x="548" 
d="M262 547l-127 163h93l55 -163h-21zM217 -15q-81 0 -106.5 34.5t-25.5 120.5v288l-72 -7l-3 22l128 25l27 2v-339q0 -84 67 -84q38 0 105 45l37 22v314l-67 -7l-2 22l122 25l26 2v-342q0 -44 13 -92l54 3l3 -19l-125 -25l-22 89z" />
    <glyph glyph-name="uacute" unicode="&#xfa;" horiz-adv-x="548" 
d="M258 547l55 163h93l-127 -163h-21zM217 -15q-81 0 -106.5 34.5t-25.5 120.5v288l-72 -7l-3 22l128 25l27 2v-339q0 -84 67 -84q38 0 105 45l37 22v314l-67 -7l-2 22l122 25l26 2v-342q0 -44 13 -92l54 3l3 -19l-125 -25l-22 89z" />
    <glyph glyph-name="ucircumflex" unicode="&#xfb;" horiz-adv-x="548" 
d="M130 547l116 163h40l116 -163h-25l-102 85l-9 14l-9 -14l-102 -85h-25zM217 -15q-81 0 -106.5 34.5t-25.5 120.5v288l-72 -7l-3 22l128 25l27 2v-339q0 -84 67 -84q38 0 105 45l37 22v314l-67 -7l-2 22l122 25l26 2v-342q0 -44 13 -92l54 3l3 -19l-125 -25l-22 89z" />
    <glyph glyph-name="udieresis" unicode="&#xfc;" horiz-adv-x="548" 
d="M162 586l-22 5l-4 44l8 36l54 4l22 -4l5 -43l-9 -37zM333 586l-22 5l-5 44l8 36l55 4l22 -4l5 -43l-9 -37zM217 -15q-81 0 -106.5 34.5t-25.5 120.5v288l-72 -7l-3 22l128 25l27 2v-339q0 -84 67 -84q38 0 105 45l37 22v314l-67 -7l-2 22l122 25l26 2v-342q0 -44 13 -92
l54 3l3 -19l-125 -25l-22 89z" />
    <glyph glyph-name="yacute" unicode="&#xfd;" horiz-adv-x="529" 
d="M262 547l55 163h93l-127 -163h-21zM88 -235v87h88l101 173l-47 -21l-164 434l-61 8l3 20l107 -2l101 2l2 -20l-63 -8l128 -350l3 -33l132 383l-59 8l2 20l83 -2l78 2l2 -20l-64 -8l-153 -413l-115 -260h-104z" />
    <glyph glyph-name="thorn" unicode="&#xfe;" horiz-adv-x="534" 
d="M21 -231l-2 20l70 8v873l-71 -12l-3 19l127 35l27 2v-331l136 97q88 0 139.5 -62t51.5 -162q0 -114 -61 -182t-175 -89q-55 0 -91 27v-215l105 -8l-2 -20l-141 2zM276 17q60 0 97.5 56.5t37.5 149.5q0 86 -31.5 141t-84.5 55q-17 0 -34.5 -7t-28 -13.5t-37.5 -24.5
l-26 -19v-283q35 -55 107 -55z" />
    <glyph glyph-name="ydieresis" unicode="&#xff;" horiz-adv-x="529" 
d="M166 586l-22 5l-4 44l8 36l54 4l22 -4l5 -43l-9 -37zM337 586l-22 5l-5 44l8 36l55 4l22 -4l5 -43l-9 -37zM88 -235v87h88l101 173l-47 -21l-164 434l-61 8l3 20l107 -2l101 2l2 -20l-63 -8l128 -350l3 -33l132 383l-59 8l2 20l83 -2l78 2l2 -20l-64 -8l-153 -413
l-115 -260h-104z" />
    <glyph glyph-name="Amacron" unicode="&#x100;" horiz-adv-x="720" 
d="M219 800v39h280v-39h-280zM10 -1l-2 20l79 9l246 659l50 23l251 -682l78 -9l-2 -20l-131 2l-129 -2l-3 20l87 10l-76 217h-252l-76 -217l88 -10l-2 -20l-110 2zM216 275h232l-109 313l-3 26z" />
    <glyph glyph-name="amacron" unicode="&#x101;" horiz-adv-x="452" 
d="M82 613v41h280v-41h-280zM167 -15q-62 0 -99.5 32.5t-37.5 88.5q0 53 43 96l220 73v53q0 27 -2 42.5t-9 32t-24 24t-44 7.5q-26 0 -76 -16l-21 -89h-72v70l176 81q93 0 122.5 -33t29.5 -121v-207q0 -46 18 -84l53 3l3 -19l-126 -24l-25 82zM179 44q36 0 76 30l38 26v152
l-147 -58q-34 -31 -34 -73q0 -37 19 -57t48 -20z" />
    <glyph glyph-name="Abreve" unicode="&#x102;" horiz-adv-x="720" 
d="M372 754q-92 0 -143 114l15 12q47 -73 115 -73q65 0 115 73l14 -11q-11 -22 -19.5 -36t-34.5 -38t-62 -41zM10 -1l-2 20l79 9l246 659l50 23l251 -682l78 -9l-2 -20l-131 2l-129 -2l-3 20l87 10l-76 217h-252l-76 -217l88 -10l-2 -20l-110 2zM216 275h232l-109 313l-3 26
z" />
    <glyph glyph-name="abreve" unicode="&#x103;" horiz-adv-x="452" 
d="M234 561q-54 0 -96 38t-58 89l17 12q49 -76 123 -76q29 0 54.5 14t37 27t27.5 36l19 -12q-39 -81 -124 -128zM167 -15q-62 0 -99.5 32.5t-37.5 88.5q0 53 43 96l220 73v53q0 27 -2 42.5t-9 32t-24 24t-44 7.5q-26 0 -76 -16l-21 -89h-72v70l176 81q93 0 122.5 -33
t29.5 -121v-207q0 -46 18 -84l53 3l3 -19l-126 -24l-25 82zM179 44q36 0 76 30l38 26v152l-147 -58q-34 -31 -34 -73q0 -37 19 -57t48 -20z" />
    <glyph glyph-name="Aogonek" unicode="&#x104;" horiz-adv-x="720" 
d="M553 1l-61 -114v-44q0 -68 111 -68v-18q-94 0 -135 25.5t-41 78.5v39l110 118l-79 228h-252l-76 -217l88 -10l-2 -20l-110 2l-96 -2l-2 20l79 9l246 659l50 23l251 -682l78 -9l-2 -20zM216 275h232l-109 313l-3 26z" />
    <glyph glyph-name="aogonek" unicode="&#x105;" horiz-adv-x="452" 
d="M288 -157q0 -68 111 -68v-18q-94 0 -135 25.5t-41 78.5v39l96 102l-23 75l-129 -92q-62 0 -99.5 32.5t-37.5 88.5q0 53 43 96l220 73v53q0 27 -2 42.5t-9 32t-24 24t-44 7.5q-26 0 -76 -16l-21 -89h-72v70l176 81q93 0 122.5 -33t29.5 -121v-207q0 -46 18 -84l53 3l3 -19
l-99 -19l-60 -113v-44zM293 100v152l-147 -58q-34 -31 -34 -73q0 -37 19 -57t48 -20q36 0 76 30z" />
    <glyph glyph-name="Cacute" unicode="&#x106;" horiz-adv-x="686" 
d="M375 767l58 133h95l-122 -133h-31zM390 -17q-144 0 -247 96t-103 261t98.5 261.5t263.5 115.5q125 0 235 -67v-142h-30l-43 111q-67 67 -169 67q-112 0 -183 -85t-71 -242q0 -89 29 -165t93 -126.5t152 -50.5q76 0 143 60l55 125h30l-13 -147q-119 -56 -240 -72z" />
    <glyph glyph-name="cacute" unicode="&#x107;" horiz-adv-x="437" 
d="M246 547l55 163h93l-127 -163h-21zM256 -15q-96 0 -157 62t-61 172q0 111 66.5 176.5t166.5 84.5q30 0 70 -15.5t62 -34.5v-89h-63l-32 92q-25 13 -53 13q-59 0 -98 -50.5t-39 -140.5q0 -89 45 -147.5t119 -58.5q57 0 121 47l9 -20q-67 -55 -156 -91z" />
    <glyph glyph-name="Ccircumflex" unicode="&#x108;" horiz-adv-x="686" 
d="M251 767l117 137h46l117 -137h-31l-103 76l-6 6l-6 -6l-103 -76h-31zM390 -17q-144 0 -247 96t-103 261t98.5 261.5t263.5 115.5q125 0 235 -67v-142h-30l-43 111q-67 67 -169 67q-112 0 -183 -85t-71 -242q0 -89 29 -165t93 -126.5t152 -50.5q76 0 143 60l55 125h30
l-13 -147q-119 -56 -240 -72z" />
    <glyph glyph-name="ccircumflex" unicode="&#x109;" horiz-adv-x="437" 
d="M118 547l116 163h40l116 -163h-25l-102 85l-9 14l-9 -14l-102 -85h-25zM256 -15q-96 0 -157 62t-61 172q0 111 66.5 176.5t166.5 84.5q30 0 70 -15.5t62 -34.5v-89h-63l-32 92q-25 13 -53 13q-59 0 -98 -50.5t-39 -140.5q0 -89 45 -147.5t119 -58.5q57 0 121 47l9 -20
q-67 -55 -156 -91z" />
    <glyph glyph-name="Cdotaccent" unicode="&#x10a;" horiz-adv-x="686" 
d="M371 784l-23 4l-5 50l9 42l64 5l24 -5l5 -48l-9 -44zM390 -17q-144 0 -247 96t-103 261t98.5 261.5t263.5 115.5q125 0 235 -67v-142h-30l-43 111q-67 67 -169 67q-112 0 -183 -85t-71 -242q0 -89 29 -165t93 -126.5t152 -50.5q76 0 143 60l55 125h30l-13 -147
q-119 -56 -240 -72z" />
    <glyph glyph-name="cdotaccent" unicode="&#x10b;" horiz-adv-x="437" 
d="M230 587l-23 5l-5 51l8 42l67 5l24 -5l5 -50l-10 -43zM256 -15q-96 0 -157 62t-61 172q0 111 66.5 176.5t166.5 84.5q30 0 70 -15.5t62 -34.5v-89h-63l-32 92q-25 13 -53 13q-59 0 -98 -50.5t-39 -140.5q0 -89 45 -147.5t119 -58.5q57 0 121 47l9 -20q-67 -55 -156 -91z
" />
    <glyph glyph-name="Ccaron" unicode="&#x10c;" horiz-adv-x="686" 
d="M368 763l-117 137h31l103 -75l6 -7l5 7l103 75h31l-116 -137h-46zM390 -17q-144 0 -247 96t-103 261t98.5 261.5t263.5 115.5q125 0 235 -67v-142h-30l-43 111q-67 67 -169 67q-112 0 -183 -85t-71 -242q0 -89 29 -165t93 -126.5t152 -50.5q76 0 143 60l55 125h30
l-13 -147q-119 -56 -240 -72z" />
    <glyph glyph-name="ccaron" unicode="&#x10d;" horiz-adv-x="437" 
d="M233 547l-115 163h26l101 -86l9 -13l10 13l100 86h26l-115 -163h-42zM256 -15q-96 0 -157 62t-61 172q0 111 66.5 176.5t166.5 84.5q30 0 70 -15.5t62 -34.5v-89h-63l-32 92q-25 13 -53 13q-59 0 -98 -50.5t-39 -140.5q0 -89 45 -147.5t119 -58.5q57 0 121 47l9 -20
q-67 -55 -156 -91z" />
    <glyph glyph-name="Dcaron" unicode="&#x10e;" horiz-adv-x="728" 
d="M301 763l-117 137h31l103 -75l6 -7l5 7l103 75h31l-116 -137h-46zM32 -1l-2 20l94 10v642l-94 10l2 20l138 -2l184 2q154 0 244 -88t90 -247q0 -162 -87 -259t-252 -108l-179 2zM346 25q108 0 174.5 91t66.5 242q0 144 -66 231t-197 87l-110 -5v-639z" />
    <glyph glyph-name="dcaron" unicode="&#x10f;" horiz-adv-x="577" 
d="M230 -15q-86 0 -140.5 65t-54.5 163q0 111 61 180t174 87q45 0 92 -26v214l-69 -8l-4 20l126 32l27 2v-594q0 -43 18 -81l64 4l3 -20l-135 -28l-26 84zM513 460l-20 7q31 75 49 140l-19 -1l-31 4l-5 53l6 43l67 4l28 -4l5 -51l-7 -45zM237 49q40 0 97 42l28 22v292
q-34 44 -99 44q-68 0 -105.5 -55t-37.5 -150q0 -85 32.5 -140t84.5 -55z" />
    <glyph glyph-name="Dcroat" unicode="&#x110;" horiz-adv-x="728" 
d="M354 701q154 0 244 -88t90 -247q0 -162 -87 -259t-252 -108l-179 2l-138 -2l-2 20l94 10v325h-84v22h84v295l-94 10l2 20l138 -2zM346 25q108 0 174.5 91t66.5 242q0 144 -66 231t-197 87l-110 -5v-295h136v-22h-136v-322z" />
    <glyph glyph-name="dcroat" unicode="&#x111;" horiz-adv-x="547" 
d="M524 43l3 -20l-135 -28l-26 84l-136 -94q-86 0 -140.5 65t-54.5 163q0 111 61 180t174 87q45 0 92 -26v116h-123v23h123v75l-69 -8l-4 20l126 32l27 2v-121h76v-23h-76v-450q0 -43 18 -81zM362 113v292q-34 44 -99 44q-68 0 -105.5 -55t-37.5 -150q0 -85 32.5 -140
t84.5 -55q40 0 97 42z" />
    <glyph glyph-name="Emacron" unicode="&#x112;" horiz-adv-x="614" 
d="M191 800v39h280v-39h-280zM32 -1l-2 20l89 10v642l-89 10l2 20l133 -2l399 2l5 -179h-19l-60 149l-281 1v-293l160 2l40 111h20l-5 -123l5 -127h-20l-40 110l-160 2v-326l291 1l64 153h22l-18 -183l-403 2z" />
    <glyph glyph-name="emacron" unicode="&#x113;" horiz-adv-x="463" 
d="M394 654v-41h-280v41h280zM418 94l10 -20q-76 -56 -168 -89q-93 0 -159 62.5t-66 173.5q0 109 59.5 173.5t158.5 85.5q171 0 171 -184v-31h-310v-3q0 -99 48 -155.5t130 -56.5q56 0 126 44zM232 445q-50 0 -81.5 -41.5t-35.5 -114.5l219 4v3q0 73 -21 111t-81 38z" />
    <glyph glyph-name="Ebreve" unicode="&#x114;" horiz-adv-x="614" 
d="M344 754q-92 0 -143 114l15 12q47 -73 115 -73q65 0 115 73l14 -11q-11 -22 -19.5 -36t-34.5 -38t-62 -41zM32 -1l-2 20l89 10v642l-89 10l2 20l133 -2l399 2l5 -179h-19l-60 149l-281 1v-293l160 2l40 111h20l-5 -123l5 -127h-20l-40 110l-160 2v-326l291 1l64 153h22
l-18 -183l-403 2z" />
    <glyph glyph-name="ebreve" unicode="&#x115;" horiz-adv-x="463" 
d="M266 561q-54 0 -96 38t-58 89l17 12q49 -76 123 -76q29 0 54.5 14t37 27t27.5 36l19 -12q-39 -81 -124 -128zM418 94l10 -20q-76 -56 -168 -89q-93 0 -159 62.5t-66 173.5q0 109 59.5 173.5t158.5 85.5q171 0 171 -184v-31h-310v-3q0 -99 48 -155.5t130 -56.5
q56 0 126 44zM232 445q-50 0 -81.5 -41.5t-35.5 -114.5l219 4v3q0 73 -21 111t-81 38z" />
    <glyph glyph-name="Edotaccent" unicode="&#x116;" horiz-adv-x="614" 
d="M307 784l-23 4l-5 50l9 42l64 5l24 -5l5 -48l-9 -44zM32 -1l-2 20l89 10v642l-89 10l2 20l133 -2l399 2l5 -179h-19l-60 149l-281 1v-293l160 2l40 111h20l-5 -123l5 -127h-20l-40 110l-160 2v-326l291 1l64 153h22l-18 -183l-403 2z" />
    <glyph glyph-name="edotaccent" unicode="&#x117;" horiz-adv-x="463" 
d="M230 587l-23 5l-5 51l8 42l67 5l24 -5l5 -50l-10 -43zM418 94l10 -20q-76 -56 -168 -89q-93 0 -159 62.5t-66 173.5q0 109 59.5 173.5t158.5 85.5q171 0 171 -184v-31h-310v-3q0 -99 48 -155.5t130 -56.5q56 0 126 44zM232 445q-50 0 -81.5 -41.5t-35.5 -114.5l219 4v3
q0 73 -21 111t-81 38z" />
    <glyph glyph-name="Eogonek" unicode="&#x118;" horiz-adv-x="614" 
d="M508 -1l-60 -112v-44q0 -68 111 -68v-18q-94 0 -135 25.5t-41 78.5v39l93 99l-311 2l-133 -2l-2 20l89 10v642l-89 10l2 20l133 -2l399 2l5 -179h-19l-60 149l-281 1v-293l160 2l40 111h20l-5 -123l5 -127h-20l-40 110l-160 2v-326l291 1l64 153h22l-18 -183h-60z" />
    <glyph glyph-name="eogonek" unicode="&#x119;" horiz-adv-x="463" 
d="M239 -157q0 -68 111 -68v-18q-94 0 -135 25.5t-41 78.5v39l80 85q-91 2 -155 64.5t-64 171.5t59.5 173.5t158.5 85.5q171 0 171 -184v-31h-310v-3q0 -99 48 -155.5t130 -56.5q56 0 126 44l10 -20q-61 -45 -129 -74l-60 -113v-44zM232 445q-50 0 -81.5 -41.5t-35.5 -114.5
l219 4v3q0 73 -21 111t-81 38z" />
    <glyph glyph-name="Ecaron" unicode="&#x11a;" horiz-adv-x="614" 
d="M308 763l-117 137h31l103 -75l6 -7l5 7l103 75h31l-116 -137h-46zM32 -1l-2 20l89 10v642l-89 10l2 20l133 -2l399 2l5 -179h-19l-60 149l-281 1v-293l160 2l40 111h20l-5 -123l5 -127h-20l-40 110l-160 2v-326l291 1l64 153h22l-18 -183l-403 2z" />
    <glyph glyph-name="ecaron" unicode="&#x11b;" horiz-adv-x="463" 
d="M275 547h-42l-115 163h26l101 -86l9 -13l10 13l100 86h26zM418 94l10 -20q-76 -56 -168 -89q-93 0 -159 62.5t-66 173.5q0 109 59.5 173.5t158.5 85.5q171 0 171 -184v-31h-310v-3q0 -99 48 -155.5t130 -56.5q56 0 126 44zM232 445q-50 0 -81.5 -41.5t-35.5 -114.5l219 4
v3q0 73 -21 111t-81 38z" />
    <glyph glyph-name="Gcircumflex" unicode="&#x11c;" horiz-adv-x="730" 
d="M263 767l117 137h46l117 -137h-31l-103 76l-6 6l-6 -6l-103 -76h-31zM385 -17q-146 0 -245.5 95.5t-99.5 262.5q0 163 96.5 260t264.5 116q70 0 134 -21t101 -46v-142h-27l-44 109q-67 69 -172 69q-116 0 -184 -91t-68 -242q0 -137 71.5 -237.5t191.5 -100.5q47 0 86 19
t61 44v211l-86 10l2 20l129 -1l107 1l2 -20l-64 -10v-235q-136 -61 -256 -71z" />
    <glyph glyph-name="gcircumflex" unicode="&#x11d;" horiz-adv-x="494" 
d="M111 547l116 163h40l116 -163h-25l-102 85l-9 14l-9 -14l-102 -85h-25zM222 -243q-103 0 -152.5 33t-49.5 102v17l111 85q-49 15 -65.5 39t-16.5 61v8l98 70q-46 17 -73.5 51.5t-27.5 79.5q0 127 187 177q49 0 89 -18.5t61 -51.5l56 70h50v-79h-71l-22 -13q11 -25 11 -51
q0 -128 -187 -176q-30 0 -49 5l-51 -54q0 -26 14.5 -39.5t38.5 -13.5h176q58 0 88.5 -26.5t30.5 -69.5q0 -62 -68 -117.5t-178 -88.5zM236 193q42 0 65.5 29.5t23.5 81.5q0 24 -5 47t-16.5 46t-33.5 37t-52 14q-43 0 -66.5 -31t-23.5 -86q0 -23 5 -45t16.5 -44t34 -35.5
t52.5 -13.5zM225 -201q67 1 117.5 39.5t50.5 90.5q0 61 -93 61h-149q-53 -53 -53 -97q0 -42 35 -68t92 -26z" />
    <glyph glyph-name="Gbreve" unicode="&#x11e;" horiz-adv-x="730" 
d="M416 754q-92 0 -143 114l15 12q47 -73 115 -73q65 0 115 73l14 -11q-11 -22 -19.5 -36t-34.5 -38t-62 -41zM385 -17q-146 0 -245.5 95.5t-99.5 262.5q0 163 96.5 260t264.5 116q70 0 134 -21t101 -46v-142h-27l-44 109q-67 69 -172 69q-116 0 -184 -91t-68 -242
q0 -137 71.5 -237.5t191.5 -100.5q47 0 86 19t61 44v211l-86 10l2 20l129 -1l107 1l2 -20l-64 -10v-235q-136 -61 -256 -71z" />
    <glyph glyph-name="gbreve" unicode="&#x11f;" horiz-adv-x="494" 
d="M259 561q-54 0 -96 38t-58 89l17 12q49 -76 123 -76q29 0 54.5 14t37 27t27.5 36l19 -12q-39 -81 -124 -128zM222 -243q-103 0 -152.5 33t-49.5 102v17l111 85q-49 15 -65.5 39t-16.5 61v8l98 70q-46 17 -73.5 51.5t-27.5 79.5q0 127 187 177q49 0 89 -18.5t61 -51.5
l56 70h50v-79h-71l-22 -13q11 -25 11 -51q0 -128 -187 -176q-30 0 -49 5l-51 -54q0 -26 14.5 -39.5t38.5 -13.5h176q58 0 88.5 -26.5t30.5 -69.5q0 -62 -68 -117.5t-178 -88.5zM236 193q42 0 65.5 29.5t23.5 81.5q0 24 -5 47t-16.5 46t-33.5 37t-52 14q-43 0 -66.5 -31
t-23.5 -86q0 -23 5 -45t16.5 -44t34 -35.5t52.5 -13.5zM225 -201q67 1 117.5 39.5t50.5 90.5q0 61 -93 61h-149q-53 -53 -53 -97q0 -42 35 -68t92 -26z" />
    <glyph glyph-name="Gdotaccent" unicode="&#x120;" horiz-adv-x="730" 
d="M379 784l-23 4l-5 50l9 42l64 5l24 -5l5 -48l-9 -44zM385 -17q-146 0 -245.5 95.5t-99.5 262.5q0 163 96.5 260t264.5 116q70 0 134 -21t101 -46v-142h-27l-44 109q-67 69 -172 69q-116 0 -184 -91t-68 -242q0 -137 71.5 -237.5t191.5 -100.5q47 0 86 19t61 44v211
l-86 10l2 20l129 -1l107 1l2 -20l-64 -10v-235q-136 -61 -256 -71z" />
    <glyph glyph-name="gdotaccent" unicode="&#x121;" horiz-adv-x="494" 
d="M223 587l-23 5l-5 51l8 42l67 5l24 -5l5 -50l-10 -43zM222 -243q-103 0 -152.5 33t-49.5 102v17l111 85q-49 15 -65.5 39t-16.5 61v8l98 70q-46 17 -73.5 51.5t-27.5 79.5q0 127 187 177q49 0 89 -18.5t61 -51.5l56 70h50v-79h-71l-22 -13q11 -25 11 -51
q0 -128 -187 -176q-30 0 -49 5l-51 -54q0 -26 14.5 -39.5t38.5 -13.5h176q58 0 88.5 -26.5t30.5 -69.5q0 -62 -68 -117.5t-178 -88.5zM236 193q42 0 65.5 29.5t23.5 81.5q0 24 -5 47t-16.5 46t-33.5 37t-52 14q-43 0 -66.5 -31t-23.5 -86q0 -23 5 -45t16.5 -44t34 -35.5
t52.5 -13.5zM225 -201q67 1 117.5 39.5t50.5 90.5q0 61 -93 61h-149q-53 -53 -53 -97q0 -42 35 -68t92 -26z" />
    <glyph glyph-name="Gcommaaccent" unicode="&#x122;" horiz-adv-x="730" 
d="M385 -17q-146 0 -245.5 95.5t-99.5 262.5q0 163 96.5 260t264.5 116q70 0 134 -21t101 -46v-142h-27l-44 109q-67 69 -172 69q-116 0 -184 -91t-68 -242q0 -137 71.5 -237.5t191.5 -100.5q47 0 86 19t61 44v211l-86 10l2 20l129 -1l107 1l2 -20l-64 -10v-235
q-136 -61 -256 -71zM367 -235l-16 6l35 104l-29 30v42h86v-76z" />
    <glyph glyph-name="gcommaaccent" unicode="&#x123;" horiz-adv-x="494" 
d="M200 547v72l72 95l21 -6l-37 -87l31 -30v-44h-87zM222 -243q-103 0 -152.5 33t-49.5 102v17l111 85q-49 15 -65.5 39t-16.5 61v8l98 70q-46 17 -73.5 51.5t-27.5 79.5q0 127 187 177q49 0 89 -18.5t61 -51.5l56 70h50v-79h-71l-22 -13q11 -25 11 -51q0 -128 -187 -176
q-30 0 -49 5l-51 -54q0 -26 14.5 -39.5t38.5 -13.5h176q58 0 88.5 -26.5t30.5 -69.5q0 -62 -68 -117.5t-178 -88.5zM236 193q42 0 65.5 29.5t23.5 81.5q0 24 -5 47t-16.5 46t-33.5 37t-52 14q-43 0 -66.5 -31t-23.5 -86q0 -23 5 -45t16.5 -44t34 -35.5t52.5 -13.5zM225 -201
q67 1 117.5 39.5t50.5 90.5q0 61 -93 61h-149q-53 -53 -53 -97q0 -42 35 -68t92 -26z" />
    <glyph glyph-name="Hcircumflex" unicode="&#x124;" horiz-adv-x="751" 
d="M236 767l117 137h46l117 -137h-31l-103 76l-6 6l-6 -6l-103 -76h-31zM32 -1l-2 20l89 10v642l-89 10l2 20l132 -2l130 2l3 -20l-88 -10v-293h336v293l-90 10l2 20l133 -2l129 2l3 -20l-87 -10v-642l87 -10l-3 -20l-129 2l-133 -2l-2 20l90 10v319h-336v-319l88 -10
l-3 -20l-130 2z" />
    <glyph glyph-name="hcircumflex" unicode="&#x125;" horiz-adv-x="571" 
d="M-1 767l117 137h46l117 -137h-31l-103 76l-6 6l-6 -6l-103 -76h-31zM36 -1l-3 20l70 8v641l-69 -8l-4 19l125 33l28 2v-338l164 104q81 0 105 -38.5t24 -123.5v-291l78 -8l-3 -20l-113 2l-91 -2l-3 20l51 8v306q0 45 -16.5 64.5t-49.5 19.5q-16 0 -36.5 -7.5t-32 -14
t-41.5 -24.5l-36 -22v-322l54 -8l-2 -20l-90 2z" />
    <glyph glyph-name="Hbar" unicode="&#x126;" horiz-adv-x="751" 
d="M635 671v-642l87 -10l-3 -20l-129 2l-133 -2l-2 20l90 10v319h-336v-319l88 -10l-3 -20l-130 2l-132 -2l-2 20l89 10v642l-89 10l2 20l132 -2l130 2l3 -20l-88 -10v-171h336v171l-90 10l2 20l133 -2l129 2l3 -20zM209 378h336v100h-336v-100z" />
    <glyph glyph-name="hbar" unicode="&#x127;" horiz-adv-x="571" 
d="M476 27l78 -8l-3 -20l-113 2l-91 -2l-3 20l51 8v306q0 45 -16.5 64.5t-49.5 19.5q-16 0 -36.5 -7.5t-32 -14t-41.5 -24.5l-36 -22v-322l54 -8l-2 -20l-90 2l-109 -2l-3 20l70 8v541h-73v22h73v78l-69 -8l-4 19l125 33l28 2v-124h139v-22h-139v-192l164 104
q81 0 105 -38.5t24 -123.5v-291z" />
    <glyph glyph-name="Itilde" unicode="&#x128;" horiz-adv-x="329" 
d="M9 770l25 96l67 21l176 -67l32 70h15l-24 -96l-68 -21l-175 68l-33 -71h-15zM32 -1l-2 21l89 9v642l-89 10l2 20l133 -2l132 2l2 -20l-90 -10v-642l90 -9l-2 -21l-132 2z" />
    <glyph glyph-name="itilde" unicode="&#x129;" horiz-adv-x="276" 
d="M206 577l-176 71l-28 -72h-17l23 94l69 22l175 -72l29 72h17l-25 -96zM37 -1l-3 20l70 8v400l-71 -12l-3 20l127 35l27 2v-445l72 -8l-2 -20l-109 2z" />
    <glyph glyph-name="Imacron" unicode="&#x12a;" horiz-adv-x="329" 
d="M25 800v39h280v-39h-280zM32 -1l-2 21l89 9v642l-89 10l2 20l133 -2l132 2l2 -20l-90 -10v-642l90 -9l-2 -21l-132 2z" />
    <glyph glyph-name="imacron" unicode="&#x12b;" horiz-adv-x="276" 
d="M2 613v41h280v-41h-280zM37 -1l-3 20l70 8v400l-71 -12l-3 20l127 35l27 2v-445l72 -8l-2 -20l-109 2z" />
    <glyph glyph-name="Ibreve" unicode="&#x12c;" horiz-adv-x="329" 
d="M178 754q-92 0 -143 114l15 12q47 -73 115 -73q65 0 115 73l14 -11q-11 -22 -19.5 -36t-34.5 -38t-62 -41zM32 -1l-2 21l89 9v642l-89 10l2 20l133 -2l132 2l2 -20l-90 -10v-642l90 -9l-2 -21l-132 2z" />
    <glyph glyph-name="ibreve" unicode="&#x12d;" horiz-adv-x="276" 
d="M154 561q-54 0 -96 38t-58 89l17 12q49 -76 123 -76q29 0 54.5 14t37 27t27.5 36l19 -12q-39 -81 -124 -128zM37 -1l-3 20l70 8v400l-71 -12l-3 20l127 35l27 2v-445l72 -8l-2 -20l-109 2z" />
    <glyph glyph-name="Iogonek" unicode="&#x12e;" horiz-adv-x="329" 
d="M209 671v-642l90 -9l-2 -21l-120 2l-61 -114v-44q0 -68 111 -68v-18q-94 0 -135 25.5t-41 78.5v39l94 101l-113 -2l-2 21l89 9v642l-89 10l2 20l133 -2l132 2l2 -20z" />
    <glyph glyph-name="iogonek" unicode="&#x12f;" horiz-adv-x="276" 
d="M120 593l-24 5l-5 50l9 42l63 5l25 -5l5 -49l-9 -43zM158 1l-61 -114v-44q0 -68 111 -68v-18q-94 0 -135 25.5t-41 78.5v39l94 101l-89 -2l-3 20l70 8v400l-71 -12l-3 20l127 35l27 2v-445l72 -8l-2 -20z" />
    <glyph glyph-name="Idotaccent" unicode="&#x130;" horiz-adv-x="329" 
d="M141 784l-23 4l-5 50l9 42l64 5l24 -5l5 -48l-9 -44zM32 -1l-2 21l89 9v642l-89 10l2 20l133 -2l132 2l2 -20l-90 -10v-642l90 -9l-2 -21l-132 2z" />
    <glyph glyph-name="dotlessi" unicode="&#x131;" horiz-adv-x="276" 
d="M37 -1l-3 20l70 8v400l-71 -12l-3 20l127 35l27 2v-445l72 -8l-2 -20l-109 2z" />
    <glyph glyph-name="IJ" unicode="&#x132;" horiz-adv-x="658" 
d="M32 -1l-2 21l89 9v642l-89 10l2 20l133 -2l132 2l2 -20l-90 -10v-642l90 -9l-2 -21l-132 2zM329 -175v81h110l6 21q12 35 12 165v579l-108 10l3 20l150 -2l129 2l3 -20l-87 -10v-578q0 -61 -9 -93.5t-35 -62.5l-98 -112h-76z" />
    <glyph glyph-name="ij" unicode="&#x133;" horiz-adv-x="532" 
d="M120 593l-24 5l-5 50l9 42l63 5l25 -5l5 -49l-9 -43zM398 593l-24 5l-5 50l9 42l63 5l25 -5l5 -49l-9 -43zM37 -1l-3 20l70 8v400l-71 -12l-3 20l127 35l27 2v-445l72 -8l-2 -20l-109 2zM257 -236v78h103l6 18q14 37 14 104v463l-71 -12l-3 20l127 35l27 2v-492
q0 -62 -41 -110l-87 -106h-75z" />
    <glyph glyph-name="Jcircumflex" unicode="&#x134;" horiz-adv-x="329" 
d="M25 767l117 137h46l117 -137h-31l-103 76l-6 6l-6 -6l-103 -76h-31zM0 -175v81h110l6 21q12 35 12 165v579l-108 10l3 20l150 -2l129 2l3 -20l-87 -10v-578q0 -61 -9 -93.5t-35 -62.5l-98 -112h-76z" />
    <glyph glyph-name="jcircumflex" unicode="&#x135;" horiz-adv-x="256" 
d="M8 547l116 163h40l116 -163h-25l-102 85l-9 14l-9 -14l-102 -85h-25zM-19 -236v78h103l6 18q14 37 14 104v463l-71 -12l-3 20l127 35l27 2v-492q0 -62 -41 -110l-87 -106h-75z" />
    <glyph glyph-name="Kcommaaccent" unicode="&#x136;" horiz-adv-x="690" 
d="M32 -1l-2 20l89 10v642l-89 10l2 20l134 -2l122 2l3 -20l-82 -10v-303l14 10l313 293l-82 10l3 20l101 -2l93 2l3 -20l-80 -11l-312 -298l43 1l314 -346l60 -8l-2 -20l-94 2l-66 -2l-300 341l-8 14v-325l82 -10l-3 -20l-122 2zM317 -235l-16 6l35 104l-29 30v42h86v-76z
" />
    <glyph glyph-name="kcommaaccent" unicode="&#x137;" horiz-adv-x="527" 
d="M35 -1l-2 20l69 8v640l-68 -8l-4 20l125 33l27 2v-450l14 6l196 169l-48 7v20l79 -2l75 2l2 -20l-60 -7l-210 -173l40 -2l206 -238l46 -7l-2 -20l-81 2l-54 -2l-197 242l-6 11v-225l63 -8l-3 -20l-96 2zM248 -235l-16 6l35 104l-29 30v42h86v-76z" />
    <glyph glyph-name="kgreenlandic" unicode="&#x138;" horiz-adv-x="522" 
d="M35 -1l-2 20l69 8v395l-68 -10l-4 20l125 33l27 2v-201l14 6l199 167l-49 7v20l80 -2l74 2l3 -20l-59 -7l-194 -158l10 -6l211 -249l46 -7l-2 -20l-82 2l-53 -2l-192 241l-6 11v-224l63 -8l-3 -20l-97 2z" />
    <glyph glyph-name="Lacute" unicode="&#x139;" horiz-adv-x="570" 
d="M155 767l58 133h95l-122 -133h-31zM32 -1l-2 20l89 10v642l-89 10l2 20l134 -2l131 2l2 -20l-90 -10v-643l263 2l65 154h22l-17 -185l-376 2z" />
    <glyph glyph-name="lacute" unicode="&#x13a;" horiz-adv-x="270" 
d="M125 767l58 133h95l-122 -133h-31zM36 -1l-3 20l70 8v640l-69 -8l-4 20l125 33l28 2v-687l72 -8l-3 -20l-108 2z" />
    <glyph glyph-name="Lcommaaccent" unicode="&#x13b;" horiz-adv-x="570" 
d="M32 -1l-2 20l89 10v642l-89 10l2 20l134 -2l131 2l2 -20l-90 -10v-643l263 2l65 154h22l-17 -185l-376 2zM281 -235l-16 6l35 104l-29 30v42h86v-76z" />
    <glyph glyph-name="lcommaaccent" unicode="&#x13c;" horiz-adv-x="270" 
d="M36 -1l-3 20l70 8v640l-69 -8l-4 20l125 33l28 2v-687l72 -8l-3 -20l-108 2zM106 -235l-16 6l35 104l-29 30v42h86v-76z" />
    <glyph glyph-name="Lcaron" unicode="&#x13d;" horiz-adv-x="573" 
d="M464 460l-20 7q31 75 49 140l-19 -1l-31 4l-5 53l6 43l67 4l28 -4l5 -51l-7 -45zM32 -1l-2 20l89 10v642l-89 10l2 20l134 -2l131 2l2 -20l-90 -10v-643l263 2l65 154h22l-17 -185l-376 2z" />
    <glyph glyph-name="lcaron" unicode="&#x13e;" horiz-adv-x="337" 
d="M36 -1l-3 20l70 8v640l-69 -8l-4 20l125 33l28 2v-687l72 -8l-3 -20l-108 2zM255 460l-20 7q31 75 49 140l-19 -1l-31 4l-5 53l6 43l67 4l28 -4l5 -51l-7 -45z" />
    <glyph glyph-name="Ldot" unicode="&#x13f;" horiz-adv-x="570" 
d="M32 -1l-2 20l89 10v642l-89 10l2 20l134 -2l131 2l2 -20l-90 -10v-643l263 2l65 154h22l-17 -185l-376 2zM341 351l-26 4l-5 53l6 43l67 4l27 -4l5 -51l-6 -45z" />
    <glyph glyph-name="ldot" unicode="&#x140;" horiz-adv-x="361" 
d="M36 -1l-3 20l70 8v640l-69 -8l-4 20l125 33l28 2v-687l72 -8l-3 -20l-108 2zM285 351l-26 4l-5 53l6 43l67 4l27 -4l5 -51l-6 -45z" />
    <glyph glyph-name="Lslash" unicode="&#x141;" horiz-adv-x="570" 
d="M537 184h22l-17 -185l-376 2l-134 -2l-2 20l89 10v316l-88 -44v29l88 44v297l-89 10l2 20l134 -2l131 2l2 -20l-90 -10v-253l105 52v-29l-105 -52v-361l263 2z" />
    <glyph glyph-name="lslash" unicode="&#x142;" horiz-adv-x="270" 
d="M255 432l-72 -35v-370l72 -8l-3 -20l-108 2l-108 -2l-3 20l70 8v330l-72 -35v26l72 36v283l-69 -8l-4 20l125 33l28 2v-291l72 36v-27z" />
    <glyph glyph-name="Nacute" unicode="&#x143;" horiz-adv-x="718" 
d="M357 767l58 133h95l-122 -133h-31zM569 -4l-404 618l-8 33v-618l88 -10l-3 -20l-101 2l-109 -2l-2 20l89 10v638l-87 14l2 20l108 -2l66 2l363 -548l10 -28v546l-87 10l2 20l100 -2l109 2l3 -20l-90 -10v-675h-49z" />
    <glyph glyph-name="nacute" unicode="&#x144;" horiz-adv-x="572" 
d="M278 547l55 163h93l-127 -163h-21zM37 -1l-3 20l70 8v400l-71 -12l-3 20l126 35l24 1l3 -96l165 105q79 0 104 -34.5t25 -120.5v-298l78 -8l-2 -20l-113 2l-93 -2l-2 20l51 8v306q0 45 -16.5 64.5t-50.5 19.5q-18 0 -38.5 -7.5t-31 -14t-39.5 -24.5l-36 -23v-321l54 -8
l-2 -20l-89 2z" />
    <glyph glyph-name="Ncommaaccent" unicode="&#x145;" horiz-adv-x="718" 
d="M569 -4l-404 618l-8 33v-618l88 -10l-3 -20l-101 2l-109 -2l-2 20l89 10v638l-87 14l2 20l108 -2l66 2l363 -548l10 -28v546l-87 10l2 20l100 -2l109 2l3 -20l-90 -10v-675h-49zM332 -235l-16 6l35 104l-29 30v42h86v-76z" />
    <glyph glyph-name="ncommaaccent" unicode="&#x146;" horiz-adv-x="572" 
d="M37 -1l-3 20l70 8v400l-71 -12l-3 20l126 35l24 1l3 -96l165 105q79 0 104 -34.5t25 -120.5v-298l78 -8l-2 -20l-113 2l-93 -2l-2 20l51 8v306q0 45 -16.5 64.5t-50.5 19.5q-18 0 -38.5 -7.5t-31 -14t-39.5 -24.5l-36 -23v-321l54 -8l-2 -20l-89 2zM257 -235l-16 6
l35 104l-29 30v42h86v-76z" />
    <glyph glyph-name="Ncaron" unicode="&#x147;" horiz-adv-x="718" 
d="M350 763l-117 137h31l103 -75l6 -7l5 7l103 75h31l-116 -137h-46zM569 -4l-404 618l-8 33v-618l88 -10l-3 -20l-101 2l-109 -2l-2 20l89 10v638l-87 14l2 20l108 -2l66 2l363 -548l10 -28v546l-87 10l2 20l100 -2l109 2l3 -20l-90 -10v-675h-49z" />
    <glyph glyph-name="ncaron" unicode="&#x148;" horiz-adv-x="572" 
d="M265 547l-115 163h26l101 -86l9 -13l10 13l100 86h26l-115 -163h-42zM37 -1l-3 20l70 8v400l-71 -12l-3 20l126 35l24 1l3 -96l165 105q79 0 104 -34.5t25 -120.5v-298l78 -8l-2 -20l-113 2l-93 -2l-2 20l51 8v306q0 45 -16.5 64.5t-50.5 19.5q-18 0 -38.5 -7.5t-31 -14
t-39.5 -24.5l-36 -23v-321l54 -8l-2 -20l-89 2z" />
    <glyph glyph-name="napostrophe" unicode="&#x149;" horiz-adv-x="572" 
d="M51 521l-20 6l59 104l-35 36v43h91v-78zM37 -1l-3 20l70 8v400l-71 -12l-3 20l126 35l24 1l3 -96l165 105q79 0 104 -34.5t25 -120.5v-298l78 -8l-2 -20l-113 2l-93 -2l-2 20l51 8v306q0 45 -16.5 64.5t-50.5 19.5q-18 0 -38.5 -7.5t-31 -14t-39.5 -24.5l-36 -23v-321
l54 -8l-2 -20l-89 2z" />
    <glyph glyph-name="Eng" unicode="&#x14a;" horiz-adv-x="718" 
d="M397 -235v76h70l82 127l44 28h-24l-404 618l-8 34v-619l87 -10l-3 -20l-101 2l-108 -2l-2 20l89 10v638l-88 14l3 20l99 -2l75 2l363 -548l10 -29v547l-88 10l3 20l100 -2l109 2l3 -20l-90 -10v-675l-118 -231h-103z" />
    <glyph glyph-name="eng" unicode="&#x14b;" horiz-adv-x="517" 
d="M273 -235v82h104l7 18q13 44 13 105v363q0 45 -17 64.5t-51 19.5q-18 0 -38.5 -7.5t-31 -14t-39.5 -24.5l-36 -23v-321l54 -8l-2 -20l-90 2l-109 -2l-3 20l70 8v400l-71 -12l-3 20l126 35l24 1l3 -96l165 105q79 0 104 -34.5t25 -120.5v-329q0 -39 -11 -66.5t-39 -62.5
l-78 -102h-76z" />
    <glyph glyph-name="Omacron" unicode="&#x14c;" horiz-adv-x="765" 
d="M245 800v39h280v-39h-280zM373 -17q-146 0 -239.5 101t-93.5 252q0 328 352 381q146 0 239.5 -100.5t93.5 -252.5q0 -328 -352 -381zM401 20q107 0 165.5 88t58.5 226q0 91 -28.5 168t-89 127.5t-142.5 50.5q-107 0 -165.5 -88t-58.5 -226q0 -142 69.5 -244t190.5 -102z
" />
    <glyph glyph-name="omacron" unicode="&#x14d;" horiz-adv-x="525" 
d="M123 613v41h280v-41h-280zM251 -15q-96 0 -156 67.5t-60 169.5q0 214 239 258q96 0 156 -67.5t60 -169.5q0 -215 -239 -258zM276 18q62 0 95.5 57t33.5 147q0 100 -43.5 162t-112.5 62q-62 0 -95.5 -56t-33.5 -147q0 -94 43.5 -159.5t112.5 -65.5z" />
    <glyph glyph-name="Obreve" unicode="&#x14e;" horiz-adv-x="765" 
d="M398 754q-92 0 -143 114l15 12q47 -73 115 -73q65 0 115 73l14 -11q-11 -22 -19.5 -36t-34.5 -38t-62 -41zM373 -17q-146 0 -239.5 101t-93.5 252q0 328 352 381q146 0 239.5 -100.5t93.5 -252.5q0 -328 -352 -381zM401 20q107 0 165.5 88t58.5 226q0 91 -28.5 168
t-89 127.5t-142.5 50.5q-107 0 -165.5 -88t-58.5 -226q0 -142 69.5 -244t190.5 -102z" />
    <glyph glyph-name="obreve" unicode="&#x14f;" horiz-adv-x="525" 
d="M275 561q-54 0 -96 38t-58 89l17 12q49 -76 123 -76q29 0 54.5 14t37 27t27.5 36l19 -12q-39 -81 -124 -128zM251 -15q-96 0 -156 67.5t-60 169.5q0 214 239 258q96 0 156 -67.5t60 -169.5q0 -215 -239 -258zM276 18q62 0 95.5 57t33.5 147q0 100 -43.5 162t-112.5 62
q-62 0 -95.5 -56t-33.5 -147q0 -94 43.5 -159.5t112.5 -65.5z" />
    <glyph glyph-name="Ohungarumlaut" unicode="&#x150;" horiz-adv-x="765" 
d="M300 767l67 133h103l-139 -133h-31zM452 767l67 133h103l-139 -133h-31zM373 -17q-146 0 -239.5 101t-93.5 252q0 328 352 381q146 0 239.5 -100.5t93.5 -252.5q0 -328 -352 -381zM401 20q107 0 165.5 88t58.5 226q0 91 -28.5 168t-89 127.5t-142.5 50.5
q-107 0 -165.5 -88t-58.5 -226q0 -142 69.5 -244t190.5 -102z" />
    <glyph glyph-name="ohungarumlaut" unicode="&#x151;" horiz-adv-x="525" 
d="M175 547l56 163h103l-138 -163h-21zM329 547l57 163h103l-139 -163h-21zM251 -15q-96 0 -156 67.5t-60 169.5q0 214 239 258q96 0 156 -67.5t60 -169.5q0 -215 -239 -258zM276 18q62 0 95.5 57t33.5 147q0 100 -43.5 162t-112.5 62q-62 0 -95.5 -56t-33.5 -147
q0 -94 43.5 -159.5t112.5 -65.5z" />
    <glyph glyph-name="OE" unicode="&#x152;" horiz-adv-x="942" 
d="M376 -10q-147 0 -241.5 98t-94.5 248q0 163 84.5 253.5t270.5 120.5l131 -10l372 1l4 -179h-19l-59 149l-260 1v-293l135 2l41 111h20l-5 -122l5 -128h-20l-41 110l-135 2v-326l266 1l65 154h21l-17 -184l-399 2zM474 27v643l-109 6q-106 0 -165 -85.5t-59 -225.5
q0 -144 76 -241.5t190 -97.5z" />
    <glyph glyph-name="oe" unicode="&#x153;" horiz-adv-x="830" 
d="M786 95l9 -21q-76 -56 -168 -89q-58 0 -108 26.5t-80 76.5q-59 -80 -188 -103q-96 0 -156 67t-60 169q0 213 239 259q57 0 103.5 -27.5t74.5 -75.5q54 78 168 103q171 0 171 -183v-32h-305v-4q0 -96 48.5 -153.5t129.5 -57.5q54 0 122 45zM274 18q62 0 96.5 57.5
t34.5 146.5q0 100 -43.5 162t-112.5 62q-63 0 -96.5 -56t-33.5 -147q0 -94 43.5 -159.5t111.5 -65.5zM602 445q-52 0 -81 -42.5t-34 -115.5l213 5q0 75 -20 114t-78 39z" />
    <glyph glyph-name="Racute" unicode="&#x154;" horiz-adv-x="660" 
d="M437 900l-122 -133h-31l58 133h95zM601 28l54 -10l-2 -19l-82 2l-62 -2l-214 323l-5 5h-81v-298l84 -10l-2 -20l-127 2l-132 -2l-2 20l89 10v642l-89 10l2 20l134 -2l176 2q96 0 158.5 -43t62.5 -131q0 -148 -227 -196l81 -32zM209 354h68q87 0 136.5 46t49.5 120
q0 76 -42 115.5t-110 41.5l-102 -6v-317z" />
    <glyph glyph-name="racute" unicode="&#x155;" horiz-adv-x="374" 
d="M179 547l55 163h93l-127 -163h-21zM37 -1l-3 20l70 8v400l-71 -12l-3 20l127 35l22 1l1 -139l110 143h68v-88h-88q-8 -1 -34 -28t-42 -47l-10 -12v-271l97 -8l-2 -22l-135 2z" />
    <glyph glyph-name="Rcommaaccent" unicode="&#x156;" horiz-adv-x="660" 
d="M601 28l54 -10l-2 -19l-82 2l-62 -2l-214 323l-5 5h-81v-298l84 -10l-2 -20l-127 2l-132 -2l-2 20l89 10v642l-89 10l2 20l134 -2l176 2q96 0 158.5 -43t62.5 -131q0 -148 -227 -196l81 -32zM209 354h68q87 0 136.5 46t49.5 120q0 76 -42 115.5t-110 41.5l-102 -6v-317z
M331 -95v42h86v-76l-76 -106l-16 6l35 104z" />
    <glyph glyph-name="rcommaaccent" unicode="&#x157;" horiz-adv-x="374" 
d="M37 -1l-3 20l70 8v400l-71 -12l-3 20l127 35l22 1l1 -139l110 143h68v-88h-88q-8 -1 -34 -28t-42 -47l-10 -12v-271l97 -8l-2 -22l-135 2zM118 -235l-16 6l35 104l-29 30v42h86v-76z" />
    <glyph glyph-name="Rcaron" unicode="&#x158;" horiz-adv-x="660" 
d="M323 763h-46l-117 137h31l103 -75l6 -7l5 7l103 75h31zM601 28l54 -10l-2 -19l-82 2l-62 -2l-214 323l-5 5h-81v-298l84 -10l-2 -20l-127 2l-132 -2l-2 20l89 10v642l-89 10l2 20l134 -2l176 2q96 0 158.5 -43t62.5 -131q0 -148 -227 -196l81 -32zM209 354h68
q87 0 136.5 46t49.5 120q0 76 -42 115.5t-110 41.5l-102 -6v-317z" />
    <glyph glyph-name="rcaron" unicode="&#x159;" horiz-adv-x="374" 
d="M166 547l-115 163h26l101 -86l9 -13l10 13l100 86h26l-115 -163h-42zM37 -1l-3 20l70 8v400l-71 -12l-3 20l127 35l22 1l1 -139l110 143h68v-88h-88q-8 -1 -34 -28t-42 -47l-10 -12v-271l97 -8l-2 -22l-135 2z" />
    <glyph glyph-name="Sacute" unicode="&#x15a;" horiz-adv-x="540" 
d="M273 767l58 133h95l-122 -133h-31zM255 -17q-115 0 -201 63l-11 143h37l38 -95q62 -71 155 -71q66 0 104.5 37t38.5 97q0 49 -28.5 84t-85.5 64l-118 58q-60 30 -91.5 65.5t-31.5 93.5q0 76 60.5 125.5t164.5 69.5q102 0 182 -51v-142h-26l-38 105q-55 53 -130 53
q-61 0 -97 -32.5t-36 -86.5q0 -42 25.5 -71.5t76.5 -54.5l114 -56q67 -32 102.5 -74t35.5 -106q0 -72 -56 -130t-184 -88z" />
    <glyph glyph-name="sacute" unicode="&#x15b;" horiz-adv-x="394" 
d="M189 547l55 163h93l-127 -163h-21zM187 -15q-73 0 -148 45l-9 116h35l42 -93q43 -34 90 -34q42 0 64 22t22 55q0 34 -17.5 53.5t-62.5 44.5l-77 44q-82 46 -82 113q0 48 41 78.5t123 50.5q75 0 139 -41v-109h-30l-34 88q-35 30 -87 30q-33 0 -55.5 -18t-22.5 -48
q0 -27 17.5 -44.5t57.5 -40.5l78 -43q49 -28 69 -56t20 -69q-1 -56 -44.5 -90t-128.5 -54z" />
    <glyph glyph-name="Scircumflex" unicode="&#x15c;" horiz-adv-x="540" 
d="M149 767l117 137h46l117 -137h-31l-103 76l-6 6l-6 -6l-103 -76h-31zM255 -17q-115 0 -201 63l-11 143h37l38 -95q62 -71 155 -71q66 0 104.5 37t38.5 97q0 49 -28.5 84t-85.5 64l-118 58q-60 30 -91.5 65.5t-31.5 93.5q0 76 60.5 125.5t164.5 69.5q102 0 182 -51v-142
h-26l-38 105q-55 53 -130 53q-61 0 -97 -32.5t-36 -86.5q0 -42 25.5 -71.5t76.5 -54.5l114 -56q67 -32 102.5 -74t35.5 -106q0 -72 -56 -130t-184 -88z" />
    <glyph glyph-name="scircumflex" unicode="&#x15d;" horiz-adv-x="394" 
d="M61 547l116 163h40l116 -163h-25l-102 85l-9 14l-9 -14l-102 -85h-25zM187 -15q-73 0 -148 45l-9 116h35l42 -93q43 -34 90 -34q42 0 64 22t22 55q0 34 -17.5 53.5t-62.5 44.5l-77 44q-82 46 -82 113q0 48 41 78.5t123 50.5q75 0 139 -41v-109h-30l-34 88q-35 30 -87 30
q-33 0 -55.5 -18t-22.5 -48q0 -27 17.5 -44.5t57.5 -40.5l78 -43q49 -28 69 -56t20 -69q-1 -56 -44.5 -90t-128.5 -54z" />
    <glyph glyph-name="Scedilla" unicode="&#x15e;" horiz-adv-x="540" 
d="M495 201q0 -69 -51.5 -125.5t-168.5 -87.5l-25 -37q34 -2 58 -22.5t24 -53.5q0 -66 -85 -97l-60 -21h-40l25 36h76q31 21 31 65q0 30 -21.5 44.5t-53.5 16.5l45 64q-110 1 -195 63l-11 143h37l38 -95q62 -71 155 -71q66 0 104.5 37t38.5 97q0 49 -28.5 84t-85.5 64
l-118 58q-60 30 -91.5 65.5t-31.5 93.5q0 76 60.5 125.5t164.5 69.5q102 0 182 -51v-142h-26l-38 105q-55 53 -130 53q-61 0 -97 -32.5t-36 -86.5q0 -42 25.5 -71.5t76.5 -54.5l114 -56q67 -32 102.5 -74t35.5 -106z" />
    <glyph glyph-name="scedilla" unicode="&#x15f;" horiz-adv-x="394" 
d="M360 129q-1 -54 -42 -87.5t-121 -54.5l-24 -36q34 -2 58 -22.5t24 -53.5q0 -66 -85 -97l-60 -21h-40l25 36h76q31 21 31 65q0 30 -21.5 44.5t-53.5 16.5l47 66q-70 5 -135 45l-9 116h35l42 -93q43 -34 90 -34q42 0 64 22t22 55q0 34 -17.5 53.5t-62.5 44.5l-77 44
q-82 46 -82 113q0 48 41 78.5t123 50.5q75 0 139 -41v-109h-30l-34 88q-35 30 -87 30q-33 0 -55.5 -18t-22.5 -48q0 -27 17.5 -44.5t57.5 -40.5l78 -43q49 -28 69 -56t20 -69z" />
    <glyph glyph-name="Scaron" unicode="&#x160;" horiz-adv-x="540" 
d="M266 763l-117 137h31l103 -75l6 -7l5 7l103 75h31l-116 -137h-46zM255 -17q-115 0 -201 63l-11 143h37l38 -95q62 -71 155 -71q66 0 104.5 37t38.5 97q0 49 -28.5 84t-85.5 64l-118 58q-60 30 -91.5 65.5t-31.5 93.5q0 76 60.5 125.5t164.5 69.5q102 0 182 -51v-142h-26
l-38 105q-55 53 -130 53q-61 0 -97 -32.5t-36 -86.5q0 -42 25.5 -71.5t76.5 -54.5l114 -56q67 -32 102.5 -74t35.5 -106q0 -72 -56 -130t-184 -88z" />
    <glyph glyph-name="scaron" unicode="&#x161;" horiz-adv-x="394" 
d="M176 547l-115 163h26l101 -86l9 -13l10 13l100 86h26l-115 -163h-42zM187 -15q-73 0 -148 45l-9 116h35l42 -93q43 -34 90 -34q42 0 64 22t22 55q0 34 -17.5 53.5t-62.5 44.5l-77 44q-82 46 -82 113q0 48 41 78.5t123 50.5q75 0 139 -41v-109h-30l-34 88q-35 30 -87 30
q-33 0 -55.5 -18t-22.5 -48q0 -27 17.5 -44.5t57.5 -40.5l78 -43q49 -28 69 -56t20 -69q-1 -56 -44.5 -90t-128.5 -54z" />
    <glyph glyph-name="uni0162" unicode="&#x162;" horiz-adv-x="585" 
d="M292 699l280 2v-184h-22l-55 154l-158 1v-643l104 -10l-2 -20l-142 2l-33 -50q34 -2 58 -22.5t24 -53.5q0 -66 -85 -97l-60 -21h-40l25 36h76q31 21 31 65q0 30 -21.5 44.5t-53.5 16.5l58 82l-133 -2l-2 20l106 10v643l-157 -1l-56 -154h-21v184z" />
    <glyph glyph-name="uni0163" unicode="&#x163;" horiz-adv-x="334" 
d="M172 -49q34 -2 58 -22.5t24 -53.5q0 -66 -85 -97l-60 -21h-40l25 36h76q31 21 31 65q0 30 -21.5 44.5t-53.5 16.5l48 69q-81 15 -81 123v323h-88v8l17 21h73v72l66 54h11v-130h151v-25h-150v-323q0 -31 16 -48t41 -17q38 0 86 26l10 -19l-120 -68h-11z" />
    <glyph glyph-name="Tcaron" unicode="&#x164;" horiz-adv-x="585" 
d="M270 763l-117 137h31l103 -75l6 -7l5 7l103 75h31l-116 -137h-46zM143 -1l-2 20l106 10v643l-157 -1l-56 -154h-21v184l279 -2l280 2v-184h-22l-55 154l-158 1v-643l104 -10l-2 -20l-146 2z" />
    <glyph glyph-name="tcaron" unicode="&#x165;" horiz-adv-x="374" 
d="M294 495l-16 7q24 58 43 123l-18 -1l-27 3l-4 46l6 37l58 4l25 -4l3 -44l-5 -39zM206 -15q-62 0 -87.5 32t-25.5 94v323h-88v8l17 21h73v72l66 54h11v-130h151v-25h-150v-323q0 -31 16 -48t41 -17q38 0 86 26l10 -19z" />
    <glyph glyph-name="Tbar" unicode="&#x166;" horiz-adv-x="585" 
d="M292 699l280 2v-184h-22l-55 154l-158 1v-219h108v-22h-108v-402l104 -10l-2 -20l-146 2l-150 -2l-2 20l106 10v402h-107v22h107v219l-157 -1l-56 -154h-21v184z" />
    <glyph glyph-name="tbar" unicode="&#x167;" horiz-adv-x="334" 
d="M316 72l10 -19l-120 -68q-62 0 -87.5 32t-25.5 94v189h-84v23h84v111h-88v8l17 21h73v72l66 54h11v-130h151v-25h-150v-111h134v-23h-134v-189q0 -31 16 -48t41 -17q38 0 86 26z" />
    <glyph glyph-name="Utilde" unicode="&#x168;" horiz-adv-x="692" 
d="M210 770l25 96l67 21l176 -67l32 70h15l-24 -96l-68 -21l-175 68l-33 -71h-15zM355 -17q-253 0 -253 264v424l-89 10l2 20l133 -2l131 2l3 -20l-87 -10v-437q0 -96 46 -152.5t135 -56.5q79 0 124 57.5t45 152.5v436l-90 10l3 20l112 -2l107 2l3 -20l-87 -10v-429
q0 -104 -52 -168.5t-186 -90.5z" />
    <glyph glyph-name="utilde" unicode="&#x169;" horiz-adv-x="548" 
d="M330 577l-176 71l-28 -72h-17l23 94l69 22l175 -72l29 72h17l-25 -96zM217 -15q-81 0 -106.5 34.5t-25.5 120.5v288l-72 -7l-3 22l128 25l27 2v-339q0 -84 67 -84q38 0 105 45l37 22v314l-67 -7l-2 22l122 25l26 2v-342q0 -44 13 -92l54 3l3 -19l-125 -25l-22 89z" />
    <glyph glyph-name="Umacron" unicode="&#x16a;" horiz-adv-x="692" 
d="M226 800v39h280v-39h-280zM355 -17q-253 0 -253 264v424l-89 10l2 20l133 -2l131 2l3 -20l-87 -10v-437q0 -96 46 -152.5t135 -56.5q79 0 124 57.5t45 152.5v436l-90 10l3 20l112 -2l107 2l3 -20l-87 -10v-429q0 -104 -52 -168.5t-186 -90.5z" />
    <glyph glyph-name="umacron" unicode="&#x16b;" horiz-adv-x="548" 
d="M126 613v41h280v-41h-280zM217 -15q-81 0 -106.5 34.5t-25.5 120.5v288l-72 -7l-3 22l128 25l27 2v-339q0 -84 67 -84q38 0 105 45l37 22v314l-67 -7l-2 22l122 25l26 2v-342q0 -44 13 -92l54 3l3 -19l-125 -25l-22 89z" />
    <glyph glyph-name="Ubreve" unicode="&#x16c;" horiz-adv-x="692" 
d="M379 754q-92 0 -143 114l15 12q47 -73 115 -73q65 0 115 73l14 -11q-11 -22 -19.5 -36t-34.5 -38t-62 -41zM355 -17q-253 0 -253 264v424l-89 10l2 20l133 -2l131 2l3 -20l-87 -10v-437q0 -96 46 -152.5t135 -56.5q79 0 124 57.5t45 152.5v436l-90 10l3 20l112 -2l107 2
l3 -20l-87 -10v-429q0 -104 -52 -168.5t-186 -90.5z" />
    <glyph glyph-name="ubreve" unicode="&#x16d;" horiz-adv-x="548" 
d="M278 561q-54 0 -96 38t-58 89l17 12q49 -76 123 -76q29 0 54.5 14t37 27t27.5 36l19 -12q-39 -81 -124 -128zM217 -15q-81 0 -106.5 34.5t-25.5 120.5v288l-72 -7l-3 22l128 25l27 2v-339q0 -84 67 -84q38 0 105 45l37 22v314l-67 -7l-2 22l122 25l26 2v-342
q0 -44 13 -92l54 3l3 -19l-125 -25l-22 89z" />
    <glyph glyph-name="Uring" unicode="&#x16e;" horiz-adv-x="692" 
d="M365 729q-41 0 -70.5 23t-29.5 68q0 22 7.5 38t24 27t29.5 16.5t39 13.5q41 0 71.5 -23t30.5 -68q0 -22 -7.5 -38t-25 -26.5t-31 -16.5t-38.5 -14zM365 755q29 0 47.5 18.5t18.5 48.5t-18.5 48.5t-47.5 18.5t-47 -18t-18 -49t18 -49t47 -18zM355 -17q-253 0 -253 264v424
l-89 10l2 20l133 -2l131 2l3 -20l-87 -10v-437q0 -96 46 -152.5t135 -56.5q79 0 124 57.5t45 152.5v436l-90 10l3 20l112 -2l107 2l3 -20l-87 -10v-429q0 -104 -52 -168.5t-186 -90.5z" />
    <glyph glyph-name="uring" unicode="&#x16f;" horiz-adv-x="548" 
d="M267 539q-43 0 -72.5 22t-29.5 69q0 22 7.5 38t24 27t29.5 16.5t39 13.5q45 0 73 -22.5t28 -70.5q0 -12 -2.5 -22t-5 -17t-10 -13.5t-11.5 -10t-15.5 -9t-16 -7.5t-19.5 -7t-19 -7zM266 567q28 0 46.5 17.5t18.5 46.5t-18.5 47.5t-46.5 18.5q-29 0 -47 -18.5t-18 -47.5
t18 -46.5t47 -17.5zM217 -15q-81 0 -106.5 34.5t-25.5 120.5v288l-72 -7l-3 22l128 25l27 2v-339q0 -84 67 -84q38 0 105 45l37 22v314l-67 -7l-2 22l122 25l26 2v-342q0 -44 13 -92l54 3l3 -19l-125 -25l-22 89z" />
    <glyph glyph-name="Uhungarumlaut" unicode="&#x170;" horiz-adv-x="692" 
d="M281 767l67 133h103l-139 -133h-31zM433 767l67 133h103l-139 -133h-31zM355 -17q-253 0 -253 264v424l-89 10l2 20l133 -2l131 2l3 -20l-87 -10v-437q0 -96 46 -152.5t135 -56.5q79 0 124 57.5t45 152.5v436l-90 10l3 20l112 -2l107 2l3 -20l-87 -10v-429
q0 -104 -52 -168.5t-186 -90.5z" />
    <glyph glyph-name="uhungarumlaut" unicode="&#x171;" horiz-adv-x="548" 
d="M178 547l56 163h103l-138 -163h-21zM332 547l57 163h103l-139 -163h-21zM217 -15q-81 0 -106.5 34.5t-25.5 120.5v288l-72 -7l-3 22l128 25l27 2v-339q0 -84 67 -84q38 0 105 45l37 22v314l-67 -7l-2 22l122 25l26 2v-342q0 -44 13 -92l54 3l3 -19l-125 -25l-22 89z" />
    <glyph glyph-name="Uogonek" unicode="&#x172;" horiz-adv-x="692" 
d="M677 701l3 -20l-87 -10v-429q0 -84 -33 -142t-114 -91l-65 -122v-44q0 -68 111 -68v-18q-94 0 -135 25.5t-41 78.5v39l89 95q-20 -5 -50 -12q-253 0 -253 264v424l-89 10l2 20l133 -2l131 2l3 -20l-87 -10v-437q0 -96 46 -152.5t135 -56.5q79 0 124 57.5t45 152.5v436
l-90 10l3 20l112 -2z" />
    <glyph glyph-name="uogonek" unicode="&#x173;" horiz-adv-x="548" 
d="M357 -157q0 -68 111 -68v-18q-94 0 -135 25.5t-41 78.5v39l102 109l-18 75l-159 -99q-81 0 -106.5 34.5t-25.5 120.5v288l-72 -7l-3 22l128 25l27 2v-339q0 -84 67 -84q38 0 105 45l37 22v314l-67 -7l-2 22l122 25l26 2v-342q0 -44 13 -92l54 3l3 -19l-107 -21l-59 -112
v-44z" />
    <glyph glyph-name="Wcircumflex" unicode="&#x174;" horiz-adv-x="981" 
d="M352 767l117 137h46l117 -137h-31l-103 76l-6 6l-6 -6l-103 -76h-31zM295 -8l-223 680l-62 9l3 20l113 -2l125 2l3 -20l-87 -10l169 -537l2 -27l132 431l-44 134l-65 9l2 20l118 -2l124 2l3 -20l-86 -10l169 -537l1 -26l176 564l-90 9l3 20l107 -2l80 2l3 -20l-63 -9
l-213 -664l-46 -16l-155 470l-1 28l-153 -482z" />
    <glyph glyph-name="wcircumflex" unicode="&#x175;" horiz-adv-x="823" 
d="M279 547l116 163h40l116 -163h-25l-102 85l-9 14l-9 -14l-102 -85h-25zM228 -15l-162 453l-61 8l3 20l102 -2l97 2l3 -20l-58 -8l122 -358l4 -28l113 325l-22 61l-50 8l2 20l93 -2l96 2l2 -20l-58 -8l123 -358l4 -28l132 386l-60 8l2 20l76 -2l84 2l3 -20l-64 -8
l-154 -421l-69 -32l-117 325l-2 32l-115 -325z" />
    <glyph glyph-name="Ycircumflex" unicode="&#x176;" horiz-adv-x="696" 
d="M237 767l117 137h46l117 -137h-31l-103 76l-6 6l-6 -6l-103 -76h-31zM194 -1l-3 20l117 10v245l-226 399l-77 8l3 20l131 -2l132 2l3 -20l-89 -9l190 -338l5 -19l189 357l-95 9l2 20l116 -2l96 2l3 -19l-78 -8l-216 -393l1 -252l114 -10l-2 -20l-156 2z" />
    <glyph glyph-name="ycircumflex" unicode="&#x177;" horiz-adv-x="529" 
d="M134 547l116 163h40l116 -163h-25l-102 85l-9 14l-9 -14l-102 -85h-25zM88 -235v87h88l101 173l-47 -21l-164 434l-61 8l3 20l107 -2l101 2l2 -20l-63 -8l128 -350l3 -33l132 383l-59 8l2 20l83 -2l78 2l2 -20l-64 -8l-153 -413l-115 -260h-104z" />
    <glyph glyph-name="Ydieresis" unicode="&#x178;" horiz-adv-x="696" 
d="M250 787l-21 4l-5 45l8 35l54 5l23 -5l4 -42l-9 -38zM467 787l-23 4l-4 45l8 35l54 5l22 -5l5 -42l-8 -38zM194 -1l-3 20l117 10v245l-226 399l-77 8l3 20l131 -2l132 2l3 -20l-89 -9l190 -338l5 -19l189 357l-95 9l2 20l116 -2l96 2l3 -19l-78 -8l-216 -393l1 -252
l114 -10l-2 -20l-156 2z" />
    <glyph glyph-name="Zacute" unicode="&#x179;" horiz-adv-x="564" 
d="M266 767l58 133h95l-122 -133h-31zM25 0l-5 28l396 627l19 18l-299 -3l-62 -151h-24v181h476l5 -25l-397 -630l-19 -18l322 3l72 157h27l-18 -187h-493z" />
    <glyph glyph-name="zacute" unicode="&#x17a;" horiz-adv-x="453" 
d="M226 547l55 163h93l-127 -163h-21zM41 0l-6 18l280 409l19 15l-200 -2l-49 -113h-22v138h354l8 -18l-280 -411l-17 -13l214 2l58 116h24l-14 -141h-369z" />
    <glyph glyph-name="Zdotaccent" unicode="&#x17b;" horiz-adv-x="564" 
d="M258 784l-23 4l-5 50l9 42l64 5l24 -5l5 -48l-9 -44zM25 0l-5 28l396 627l19 18l-299 -3l-62 -151h-24v181h476l5 -25l-397 -630l-19 -18l322 3l72 157h27l-18 -187h-493z" />
    <glyph glyph-name="zdotaccent" unicode="&#x17c;" horiz-adv-x="453" 
d="M210 587l-23 5l-5 51l8 42l67 5l24 -5l5 -50l-10 -43zM41 0l-6 18l280 409l19 15l-200 -2l-49 -113h-22v138h354l8 -18l-280 -411l-17 -13l214 2l58 116h24l-14 -141h-369z" />
    <glyph glyph-name="Zcaron" unicode="&#x17d;" horiz-adv-x="564" 
d="M259 763l-117 137h31l103 -75l6 -7l5 7l103 75h31l-116 -137h-46zM25 0l-5 28l396 627l19 18l-299 -3l-62 -151h-24v181h476l5 -25l-397 -630l-19 -18l322 3l72 157h27l-18 -187h-493z" />
    <glyph glyph-name="zcaron" unicode="&#x17e;" horiz-adv-x="453" 
d="M213 547l-115 163h26l101 -86l9 -13l10 13l100 86h26l-115 -163h-42zM41 0l-6 18l280 409l19 15l-200 -2l-49 -113h-22v138h354l8 -18l-280 -411l-17 -13l214 2l58 116h24l-14 -141h-369z" />
    <glyph glyph-name="longs" unicode="&#x17f;" horiz-adv-x="327" 
d="M36 -1l-2 20l70 8v407h-79v8l15 21h64v11q0 48 9.5 78.5t34.5 59.5l87 98h115v-71h-139l-12 -19q-15 -30 -15 -120v-473l114 -6l-2 -22l-147 2z" />
    <glyph glyph-name="florin" unicode="&#x192;" horiz-adv-x="300" 
d="M-20 -235v71h84l11 17q16 31 16 117v464h-79v8l14 21h65v11q0 48 9.5 78.5t34.5 59.5l87 98h103v-68h-125l-14 -21q-16 -33 -16 -119v-42h113v-26h-113v-436q0 -47 -8.5 -76t-32.5 -57l-89 -100h-60z" />
    <glyph glyph-name="AEacute" unicode="&#x1fc;" horiz-adv-x="977" 
d="M654 767l58 133h95l-122 -133h-31zM8 0l-3 19l79 9l421 673l53 -2l372 2l5 -179h-20l-59 149l-254 1v-322l132 2l40 110h21l-5 -122l5 -127h-21l-40 109l-132 2v-296l263 1l65 154h21l-17 -184l-377 2l-133 -2l-2 20l90 10v294h-205l-179 -294l83 -10l-2 -19l-104 1z
M322 349h190v317z" />
    <glyph glyph-name="aeacute" unicode="&#x1fd;" horiz-adv-x="704" 
d="M495 710l-127 -163h-21l55 163h93zM659 95l10 -22q-70 -52 -171 -88q-61 0 -112.5 27t-78.5 80l-140 -107q-61 0 -99 32.5t-38 86.5q0 55 43 98l212 73v53q0 21 -0.5 33t-4.5 28t-11 24t-20.5 14t-32.5 6q-35 0 -77 -15l-20 -91h-74v72l174 81q64 0 94 -15t42 -56
q50 49 145 71q164 0 164 -183v-35h-297v-3q0 -98 45.5 -153.5t122.5 -55.5q56 0 124 45zM480 445q-52 0 -80 -43.5t-32 -116.5l206 5q0 75 -19.5 115t-74.5 40zM250 77l42 32q-6 36 -6 78v66l-140 -59q-34 -29 -34 -75q0 -35 19.5 -55.5t47.5 -20.5q27 0 71 34z" />
    <glyph glyph-name="Oslashacute" unicode="&#x1fe;" horiz-adv-x="765" 
d="M520 900l-122 -133h-31l58 133h95zM619 629q106 -101 106 -265q0 -328 -352 -381q-115 0 -203 67l-50 -65h-35l64 83q-109 103 -109 268q0 328 352 381q120 0 207 -70l53 68h33zM141 366q0 -135 61 -231l349 450q-72 95 -186 95q-107 0 -165.5 -88t-58.5 -226zM401 20
q107 0 165.5 88t58.5 226q0 133 -59 228l-348 -450q71 -92 183 -92z" />
    <glyph glyph-name="oslashacute" unicode="&#x1ff;" horiz-adv-x="526" 
d="M402 710l-127 -163h-21l55 163h93zM428 415q62 -68 62 -172q0 -215 -239 -258q-82 0 -139 51l-38 -46h-33l53 63q-59 69 -59 169q0 214 239 258q80 0 137 -49l41 49h30zM120 243q0 -71 26 -128l220 262q-44 69 -117 69q-62 0 -95.5 -56t-33.5 -147zM276 18q62 0 95.5 57
t33.5 147q0 76 -27 133l-220 -264q46 -73 118 -73z" />
    <glyph glyph-name="Scommaaccent" unicode="&#x218;" horiz-adv-x="540" 
d="M255 -17q-115 0 -201 63l-11 143h37l38 -95q62 -71 155 -71q66 0 104.5 37t38.5 97q0 49 -28.5 84t-85.5 64l-118 58q-60 30 -91.5 65.5t-31.5 93.5q0 76 60.5 125.5t164.5 69.5q102 0 182 -51v-142h-26l-38 105q-55 53 -130 53q-61 0 -97 -32.5t-36 -86.5
q0 -42 25.5 -71.5t76.5 -54.5l114 -56q67 -32 102.5 -74t35.5 -106q0 -72 -56 -130t-184 -88zM245 -235l-16 6l35 104l-29 30v42h86v-76z" />
    <glyph glyph-name="scommaaccent" unicode="&#x219;" horiz-adv-x="394" 
d="M187 -15q-73 0 -148 45l-9 116h35l42 -93q43 -34 90 -34q42 0 64 22t22 55q0 34 -17.5 53.5t-62.5 44.5l-77 44q-82 46 -82 113q0 48 41 78.5t123 50.5q75 0 139 -41v-109h-30l-34 88q-35 30 -87 30q-33 0 -55.5 -18t-22.5 -48q0 -27 17.5 -44.5t57.5 -40.5l78 -43
q49 -28 69 -56t20 -69q-1 -56 -44.5 -90t-128.5 -54zM168 -235l-16 6l35 104l-29 30v42h86v-76z" />
    <glyph glyph-name="uni021A" unicode="&#x21a;" horiz-adv-x="585" 
d="M143 -1l-2 20l106 10v643l-157 -1l-56 -154h-21v184l279 -2l280 2v-184h-22l-55 154l-158 1v-643l104 -10l-2 -20l-146 2zM259 -235l-16 6l35 104l-29 30v42h86v-76z" />
    <glyph glyph-name="uni021B" unicode="&#x21b;" horiz-adv-x="334" 
d="M206 -15q-62 0 -87.5 32t-25.5 94v323h-88v8l17 21h73v72l66 54h11v-130h151v-25h-150v-323q0 -31 16 -48t41 -17q38 0 86 26l10 -19zM167 -235l-16 6l35 104l-29 30v42h86v-76z" />
    <glyph glyph-name="uni0237" unicode="&#x237;" horiz-adv-x="256" 
d="M-19 -236v78h103l6 18q14 37 14 104v463l-71 -12l-3 20l127 35l27 2v-492q0 -62 -41 -110l-87 -106h-75z" />
    <glyph glyph-name="uni02BC" unicode="&#x2bc;" horiz-adv-x="198" 
d="M74 460l-20 7q31 75 49 140l-19 -1l-31 4l-5 53l6 43l67 4l28 -4l5 -51l-7 -45z" />
    <glyph glyph-name="circumflex" unicode="&#x2c6;" horiz-adv-x="600" 
d="M108 547l116 163h40l116 -163h-25l-102 85l-9 14l-9 -14l-102 -85h-25z" />
    <glyph glyph-name="caron" unicode="&#x2c7;" horiz-adv-x="600" 
d="M223 547l-115 163h26l101 -86l9 -13l10 13l100 86h26l-115 -163h-42z" />
    <glyph glyph-name="breve" unicode="&#x2d8;" horiz-adv-x="600" 
d="M258 561q-54 0 -96 38t-58 89l17 12q49 -76 123 -76q29 0 54.5 14t37 27t27.5 36l19 -12q-39 -81 -124 -128z" />
    <glyph glyph-name="dotaccent" unicode="&#x2d9;" horiz-adv-x="600" 
d="M229 587l-23 5l-5 51l8 42l67 5l24 -5l5 -50l-10 -43z" />
    <glyph glyph-name="ring" unicode="&#x2da;" horiz-adv-x="600" 
d="M250 539q-43 0 -72.5 22t-29.5 69q0 22 7.5 38t24 27t29.5 16.5t39 13.5q45 0 73 -22.5t28 -70.5q0 -12 -2.5 -22t-5 -17t-10 -13.5t-11.5 -10t-15.5 -9t-16 -7.5t-19.5 -7t-19 -7zM249 567q28 0 46.5 17.5t18.5 46.5t-18.5 47.5t-46.5 18.5q-29 0 -47 -18.5t-18 -47.5
t18 -46.5t47 -17.5z" />
    <glyph glyph-name="ogonek" unicode="&#x2db;" horiz-adv-x="600" 
d="M350 -243q-94 0 -135 25.5t-41 78.5v39l118 126h21l-74 -139v-44q0 -68 111 -68v-18z" />
    <glyph glyph-name="tilde" unicode="&#x2dc;" horiz-adv-x="600" 
d="M314 575l-176 71l-28 -72h-17l23 94l69 22l175 -72l29 72h17l-25 -96z" />
    <glyph glyph-name="hungarumlaut" unicode="&#x2dd;" horiz-adv-x="600" 
d="M51 547l56 163h103l-138 -163h-21zM205 547l57 163h103l-139 -163h-21z" />
    <glyph glyph-name="gravecomb" unicode="&#x300;" horiz-adv-x="0" 
d="M-231 547l-127 163h93l55 -163h-21z" />
    <glyph glyph-name="acutecomb" unicode="&#x301;" horiz-adv-x="0" 
d="M-357 547l55 163h93l-127 -163h-21z" />
    <glyph glyph-name="uni0302" unicode="&#x302;" horiz-adv-x="0" 
d="M-392 547l116 163h40l116 -163h-25l-102 85l-9 14l-9 -14l-102 -85h-25z" />
    <glyph glyph-name="tildecomb" unicode="&#x303;" horiz-adv-x="0" 
d="M-186 575l-176 71l-28 -72h-17l23 94l69 22l175 -72l29 72h17l-25 -96z" />
    <glyph glyph-name="uni0304" unicode="&#x304;" horiz-adv-x="0" 
d="M-390 613v41h280v-41h-280z" />
    <glyph glyph-name="uni0306" unicode="&#x306;" horiz-adv-x="0" 
d="M-242 561q-54 0 -96 38t-58 89l17 12q49 -76 123 -76q29 0 54.5 14t37 27t27.5 36l19 -12q-39 -81 -124 -128z" />
    <glyph glyph-name="uni0307" unicode="&#x307;" horiz-adv-x="0" 
d="M-271 587l-23 5l-5 51l8 42l67 5l24 -5l5 -50l-10 -43z" />
    <glyph glyph-name="uni0308" unicode="&#x308;" horiz-adv-x="0" 
d="M-357 586l-22 5l-4 44l8 36l54 4l22 -4l5 -43l-9 -37zM-186 586l-22 5l-5 44l8 36l55 4l22 -4l5 -43l-9 -37z" />
    <glyph glyph-name="uni030A" unicode="&#x30a;" horiz-adv-x="0" 
d="M-250 539q-43 0 -72.5 22t-29.5 69q0 22 7.5 38t24 27t29.5 16.5t39 13.5q45 0 73 -22.5t28 -70.5q0 -12 -2.5 -22t-5 -17t-10 -13.5t-11.5 -10t-15.5 -9t-16 -7.5t-19.5 -7t-19 -7zM-251 567q28 0 46.5 17.5t18.5 46.5t-18.5 47.5t-46.5 18.5q-29 0 -47 -18.5t-18 -47.5
t18 -46.5t47 -17.5z" />
    <glyph glyph-name="uni030B" unicode="&#x30b;" horiz-adv-x="0" 
d="M-449 547l56 163h103l-138 -163h-21zM-295 547l57 163h103l-139 -163h-21z" />
    <glyph glyph-name="uni030C" unicode="&#x30c;" horiz-adv-x="0" 
d="M-277 547l-115 163h26l101 -86l9 -13l10 13l100 86h26l-115 -163h-42z" />
    <glyph glyph-name="uni0312" unicode="&#x312;" horiz-adv-x="0" 
d="M-300 547v72l72 95l21 -6l-37 -87l31 -30v-44h-87z" />
    <glyph glyph-name="uni0326" unicode="&#x326;" horiz-adv-x="0" 
d="M-281 -235l-16 6l35 104l-29 30v42h86v-76z" />
    <glyph glyph-name="uni0327" unicode="&#x327;" horiz-adv-x="0" 
d="M-330 -243l25 36h76q31 21 31 65q0 30 -21.5 44.5t-53.5 16.5l62 88l18 -5l-34 -51q34 -2 58 -22.5t24 -53.5q0 -66 -85 -97l-60 -21h-40z" />
    <glyph glyph-name="uni0328" unicode="&#x328;" horiz-adv-x="0" 
d="M-150 -243q-94 0 -135 25.5t-41 78.5v39l118 126h21l-74 -139v-44q0 -68 111 -68v-18z" />
    <glyph glyph-name="uni0394" unicode="&#x394;" horiz-adv-x="684" 
d="M20 0v27l301 668l50 20l293 -687v-28h-644zM64 32h498l-235 570l-3 28z" />
    <glyph glyph-name="uni03A9" unicode="&#x3a9;" horiz-adv-x="698" 
d="M32 0v164h19l32 -91l180 -17v75q-93 16 -160.5 88t-67.5 189q0 118 77 193t247 114q133 0 218.5 -84t85.5 -204q0 -229 -226 -290v-81l178 17l33 91h19v-164h-269v155q23 4 44 12.5t44 28t40 46t28 70t11 96.5q0 119 -62.5 193t-158.5 74q-94 0 -152 -67.5t-58 -176.5
q0 -117 49.5 -192t116.5 -83v-156h-268z" />
    <glyph glyph-name="uni03BC" unicode="&#x3bc;" 
d="M460 59q16 -31 74 -42l-2 -17h-109l-43 75v8l-144 -98q-96 0 -117 55v-70l63 -200h-97v695h80v-317q0 -101 76 -101q15 0 35 8t29 13t39 24l36 22v351h80v-406z" />
    <glyph glyph-name="pi" unicode="&#x3c0;" 
d="M156 0v434h-54l-47 -114h-19v143h548v-29h-118v-370q16 -35 74 -47l-2 -17h-109l-43 75v359h-150v-434h-80z" />
    <glyph glyph-name="uni0E3F" unicode="&#xe3f;" horiz-adv-x="630" 
d="M589 203q0 -179 -257 -203v-80h-30v79l-139 2l-131 -2l-2 20l89 10v642l-89 10l2 20l136 -2l134 1v81h30v-80h22q92 0 142.5 -44.5t50.5 -107.5q0 -66 -52 -115t-125 -60q105 -3 162 -51t57 -120zM453 543q0 58 -31.5 93.5t-89.5 39.5v-292q56 8 88.5 52.5t32.5 106.5z
M209 671v-289h93v293zM209 29l93 -5v330h-93v-325zM332 25q86 7 124 55.5t38 117.5q0 71 -44.5 112.5t-117.5 43.5v-329z" />
    <glyph glyph-name="Wgrave" unicode="&#x1e80;" horiz-adv-x="981" 
d="M491 767l-121 133h94l58 -133h-31zM295 -8l-223 680l-62 9l3 20l113 -2l125 2l3 -20l-87 -10l169 -537l2 -27l132 431l-44 134l-65 9l2 20l118 -2l124 2l3 -20l-86 -10l169 -537l1 -26l176 564l-90 9l3 20l107 -2l80 2l3 -20l-63 -9l-213 -664l-46 -16l-155 470l-1 28
l-153 -482z" />
    <glyph glyph-name="wgrave" unicode="&#x1e81;" horiz-adv-x="823" 
d="M411 547l-127 163h93l55 -163h-21zM228 -15l-162 453l-61 8l3 20l102 -2l97 2l3 -20l-58 -8l122 -358l4 -28l113 325l-22 61l-50 8l2 20l93 -2l96 2l2 -20l-58 -8l123 -358l4 -28l132 386l-60 8l2 20l76 -2l84 2l3 -20l-64 -8l-154 -421l-69 -32l-117 325l-2 32
l-115 -325z" />
    <glyph glyph-name="Wacute" unicode="&#x1e82;" horiz-adv-x="981" 
d="M476 767l58 133h95l-122 -133h-31zM295 -8l-223 680l-62 9l3 20l113 -2l125 2l3 -20l-87 -10l169 -537l2 -27l132 431l-44 134l-65 9l2 20l118 -2l124 2l3 -20l-86 -10l169 -537l1 -26l176 564l-90 9l3 20l107 -2l80 2l3 -20l-63 -9l-213 -664l-46 -16l-155 470l-1 28
l-153 -482z" />
    <glyph glyph-name="wacute" unicode="&#x1e83;" horiz-adv-x="823" 
d="M407 547l55 163h93l-127 -163h-21zM228 -15l-162 453l-61 8l3 20l102 -2l97 2l3 -20l-58 -8l122 -358l4 -28l113 325l-22 61l-50 8l2 20l93 -2l96 2l2 -20l-58 -8l123 -358l4 -28l132 386l-60 8l2 20l76 -2l84 2l3 -20l-64 -8l-154 -421l-69 -32l-117 325l-2 32
l-115 -325z" />
    <glyph glyph-name="Wdieresis" unicode="&#x1e84;" horiz-adv-x="981" 
d="M365 787l-21 4l-5 45l8 35l54 5l23 -5l4 -42l-9 -38zM582 787l-23 4l-4 45l8 35l54 5l22 -5l5 -42l-8 -38zM295 -8l-223 680l-62 9l3 20l113 -2l125 2l3 -20l-87 -10l169 -537l2 -27l132 431l-44 134l-65 9l2 20l118 -2l124 2l3 -20l-86 -10l169 -537l1 -26l176 564
l-90 9l3 20l107 -2l80 2l3 -20l-63 -9l-213 -664l-46 -16l-155 470l-1 28l-153 -482z" />
    <glyph glyph-name="wdieresis" unicode="&#x1e85;" horiz-adv-x="823" 
d="M311 586l-22 5l-4 44l8 36l54 4l22 -4l5 -43l-9 -37zM482 586l-22 5l-5 44l8 36l55 4l22 -4l5 -43l-9 -37zM228 -15l-162 453l-61 8l3 20l102 -2l97 2l3 -20l-58 -8l122 -358l4 -28l113 325l-22 61l-50 8l2 20l93 -2l96 2l2 -20l-58 -8l123 -358l4 -28l132 386l-60 8
l2 20l76 -2l84 2l3 -20l-64 -8l-154 -421l-69 -32l-117 325l-2 32l-115 -325z" />
    <glyph glyph-name="Ygrave" unicode="&#x1ef2;" horiz-adv-x="696" 
d="M376 767l-121 133h94l58 -133h-31zM194 -1l-3 20l117 10v245l-226 399l-77 8l3 20l131 -2l132 2l3 -20l-89 -9l190 -338l5 -19l189 357l-95 9l2 20l116 -2l96 2l3 -19l-78 -8l-216 -393l1 -252l114 -10l-2 -20l-156 2z" />
    <glyph glyph-name="ygrave" unicode="&#x1ef3;" horiz-adv-x="529" 
d="M266 547l-127 163h93l55 -163h-21zM88 -235v87h88l101 173l-47 -21l-164 434l-61 8l3 20l107 -2l101 2l2 -20l-63 -8l128 -350l3 -33l132 383l-59 8l2 20l83 -2l78 2l2 -20l-64 -8l-153 -413l-115 -260h-104z" />
    <glyph glyph-name="uni2002" unicode="&#x2002;" horiz-adv-x="500" 
 />
    <glyph glyph-name="uni2003" unicode="&#x2003;" horiz-adv-x="1000" 
 />
    <glyph glyph-name="uni2004" unicode="&#x2004;" horiz-adv-x="0" 
 />
    <glyph glyph-name="uni2005" unicode="&#x2005;" horiz-adv-x="250" 
 />
    <glyph glyph-name="uni2009" unicode="&#x2009;" horiz-adv-x="135" 
 />
    <glyph glyph-name="uni200A" unicode="&#x200a;" horiz-adv-x="75" 
 />
    <glyph glyph-name="endash" unicode="&#x2013;" horiz-adv-x="470" 
d="M35 260v34h400v-34h-400z" />
    <glyph glyph-name="emdash" unicode="&#x2014;" horiz-adv-x="870" 
d="M35 260v34h800v-34h-800z" />
    <glyph glyph-name="quoteleft" unicode="&#x2018;" horiz-adv-x="199" 
d="M132 715l20 -7q-31 -75 -49 -140l19 1l31 -4l5 -53l-6 -43l-67 -4l-28 4l-5 51l7 45z" />
    <glyph glyph-name="quoteright" unicode="&#x2019;" horiz-adv-x="198" 
d="M74 460l-20 7q31 75 49 140l-19 -1l-31 4l-5 53l6 43l67 4l28 -4l5 -51l-7 -45z" />
    <glyph glyph-name="quotesinglbase" unicode="&#x201a;" horiz-adv-x="186" 
d="M71 -142l-20 7q31 75 49 140l-19 -1l-31 4l-5 53l6 43l67 4l28 -4l5 -51l-7 -45z" />
    <glyph glyph-name="quotedblleft" unicode="&#x201c;" horiz-adv-x="331" 
d="M122 715l20 -7q-31 -75 -49 -140l19 1l31 -4l5 -53l-6 -43l-67 -4l-28 4l-5 51l7 45zM275 715l20 -7q-31 -75 -49 -140l19 1l31 -4l5 -53l-6 -43l-67 -4l-28 4l-5 51l7 45z" />
    <glyph glyph-name="quotedblright" unicode="&#x201d;" horiz-adv-x="333" 
d="M71 461l-20 7q31 75 49 140l-19 -1l-31 4l-5 53l6 43l67 4l28 -4l5 -51l-7 -45zM224 461l-20 7q31 75 49 140l-19 -1l-31 4l-5 53l6 43l67 4l28 -4l5 -51l-7 -45z" />
    <glyph glyph-name="quotedblbase" unicode="&#x201e;" horiz-adv-x="341" 
d="M73 -142l-20 7q31 75 49 140l-19 -1l-31 4l-5 53l6 43l67 4l28 -4l5 -51l-7 -45zM226 -142l-20 7q31 75 49 140l-19 -1l-31 4l-5 53l6 43l67 4l28 -4l5 -51l-7 -45z" />
    <glyph glyph-name="dagger" unicode="&#x2020;" horiz-adv-x="431" 
d="M207 -60l-19 286l-33 103l31 41l16 116l-177 -36v99l177 -36l-38 197h100l-38 -197l180 36v-99l-180 36l17 -116l31 -41l-34 -103l-18 -286h-15z" />
    <glyph glyph-name="daggerdbl" unicode="&#x2021;" horiz-adv-x="440" 
d="M169 -52l38 197l-177 -37v100l177 -36l-17 116l-31 41l31 41l17 116l-177 -36v99l177 -36l-38 197h99l-38 -197l180 36v-99l-179 36l16 -116l31 -41l-31 -41l-16 -116l179 36v-100l-180 37l38 -197h-99z" />
    <glyph glyph-name="bullet" unicode="&#x2022;" horiz-adv-x="219" 
d="M88 244l-33 5l-5 59l7 50l75 5l33 -5l4 -58l-7 -51z" />
    <glyph glyph-name="ellipsis" unicode="&#x2026;" horiz-adv-x="744" 
d="M106 -5l-26 5l-5 53l6 44l68 4l27 -4l5 -52l-6 -45zM350 -5l-26 5l-5 53l6 44l68 4l27 -4l5 -52l-6 -45zM594 -5l-26 5l-5 53l6 44l68 4l27 -4l5 -52l-7 -45z" />
    <glyph glyph-name="perthousand" unicode="&#x2030;" horiz-adv-x="1162" 
d="M194 358q-69 0 -109 47t-40 122q0 76 41 120t134 59q69 0 109.5 -47t40.5 -122q0 -76 -42 -120.5t-134 -58.5zM140 -5l494 710h45l-494 -710h-45zM214 380q42 0 63.5 39.5t21.5 102.5q0 73 -24 117t-74 44q-43 0 -64.5 -39.5t-21.5 -102.5q0 -73 24.5 -117t74.5 -44z
M576 -6q-69 0 -109.5 46.5t-40.5 121.5q0 76 41.5 120.5t133.5 59.5q69 0 109.5 -47t40.5 -123t-41.5 -120t-133.5 -58zM941 -6q-69 0 -109 46.5t-40 121.5q0 77 41 121t134 59q69 0 109.5 -47t40.5 -123t-42 -120t-134 -58zM595 16q42 0 63.5 39.5t21.5 102.5q0 73 -24 117
t-74 44q-43 0 -64.5 -39.5t-21.5 -102.5q0 -73 24.5 -117t74.5 -44zM961 16q42 0 63.5 39.5t21.5 102.5q0 73 -24 117t-74 44q-43 0 -64.5 -39.5t-21.5 -102.5q0 -73 24.5 -117t74.5 -44z" />
    <glyph glyph-name="guilsinglleft" unicode="&#x2039;" horiz-adv-x="274" 
d="M214 15l-181 220l182 220h24l-129 -221l129 -219h-25z" />
    <glyph glyph-name="guilsinglright" unicode="&#x203a;" horiz-adv-x="274" 
d="M40 15l129 219l-129 221h25l182 -220l-181 -220h-26z" />
    <glyph glyph-name="fraction" unicode="&#x2044;" horiz-adv-x="107" 
d="M-160 -50l387 760h40l-385 -760h-42z" />
    <glyph glyph-name="uni2070" unicode="&#x2070;" horiz-adv-x="405" 
d="M191 391q-68 0 -107 54t-39 141q0 88 40.5 139.5t129.5 68.5q67 0 106 -54t39 -141q0 -88 -40.5 -139.5t-128.5 -68.5zM208 416q35 0 52.5 45.5t17.5 120.5q0 187 -81 187q-35 0 -52.5 -45t-17.5 -120q0 -188 81 -188z" />
    <glyph glyph-name="uni2074" unicode="&#x2074;" horiz-adv-x="375" 
d="M201 400v110h-159l-14 22l188 253h76v-19l-231 -230l16 6h124v75l60 42h9v-117h78v-32h-78v-110h-69z" />
    <glyph glyph-name="uni2075" unicode="&#x2075;" horiz-adv-x="338" 
d="M45 399v63h122q49 33 49 81q0 28 -17.5 46.5t-51.5 18.5q-26 0 -64 -16l-22 -10l-11 8l25 195h215v-12l-14 -47h-187l-15 -121l104 51q56 0 85.5 -25.5t29.5 -64.5q0 -45 -30 -72t-92 -57l-76 -38h-50z" />
    <glyph glyph-name="uni2076" unicode="&#x2076;" horiz-adv-x="376" 
d="M222 647q54 0 82 -32.5t28 -77.5q0 -59 -38 -93.5t-114 -51.5q-62 0 -97.5 43t-35.5 111q0 83 56 149t175 102l6 -18q-87 -33 -120.5 -77.5t-36.5 -121.5zM195 415q60 0 60 100q0 39 -14 61.5t-36 22.5q-17 0 -59 -27l-19 -13q2 -144 68 -144z" />
    <glyph glyph-name="uni2077" unicode="&#x2077;" horiz-adv-x="335" 
d="M68 400v19l188 306l-3 -2h-224v62h263l11 -12l-176 -373h-59z" />
    <glyph glyph-name="uni2078" unicode="&#x2078;" horiz-adv-x="374" 
d="M248 602q79 -47 79 -100q0 -43 -35.5 -68.5t-110.5 -41.5q-57 1 -95.5 28t-38.5 72q0 59 93 95l-14 10q-71 43 -71 96q0 37 33.5 61.5t101.5 39.5q59 -2 93.5 -24.5t34.5 -60.5q0 -59 -92 -92zM183 771q-24 0 -38.5 -13t-14.5 -36q0 -42 73 -88l6 -4q35 28 35 74
q0 30 -16 48.5t-45 18.5zM190 414q25 0 43 15t18 45q0 19 -12 35.5t-24 25.5t-37 25l-21 15q-37 -29 -37 -76q0 -39 21 -62t49 -23z" />
    <glyph glyph-name="uni2079" unicode="&#x2079;" horiz-adv-x="369" 
d="M187 794q63 0 98.5 -43t35.5 -111q0 -82 -56.5 -147.5t-174.5 -101.5l-5 17q83 32 118 77.5t37 118.5l-93 -66q-54 0 -82.5 33.5t-28.5 77.5q0 58 38 92.5t113 52.5zM165 587q4 0 7.5 0.5t7.5 1.5t6.5 2t7.5 4t7 4.5t9 6t10 6.5l20 13q-2 145 -67 145q-60 0 -60 -96
q0 -41 14.5 -64t37.5 -23z" />
    <glyph glyph-name="uni207A" unicode="&#x207a;" horiz-adv-x="409" 
d="M190 439v125h-140v29h140v129h30v-129h139v-29h-139v-125h-30z" />
    <glyph glyph-name="uni207B" unicode="&#x207b;" horiz-adv-x="415" 
d="M50 578v29h315v-29h-315z" />
    <glyph glyph-name="uni207C" unicode="&#x207c;" horiz-adv-x="410" 
d="M50 608v29h310v-29h-310zM50 511v28h310v-28h-310z" />
    <glyph glyph-name="uni207D" unicode="&#x207d;" horiz-adv-x="213" 
d="M181 309q-73 69 -102 126t-29 138t29.5 139t101.5 125l12 -10q-47 -53 -67 -113t-20 -141q0 -156 87 -254z" />
    <glyph glyph-name="uni207E" unicode="&#x207e;" horiz-adv-x="198" 
d="M31 309l-11 10q86 100 86 254q0 80 -20 140t-66 114l11 10q73 -66 102.5 -124.5t29.5 -139.5t-29.5 -138.5t-102.5 -125.5z" />
    <glyph glyph-name="uni2080" unicode="&#x2080;" horiz-adv-x="405" 
d="M191 -159q-68 0 -107 54t-39 141q0 88 40.5 139.5t129.5 68.5q67 0 106 -54t39 -141q0 -88 -40.5 -139.5t-128.5 -68.5zM208 -134q35 0 52.5 45.5t17.5 120.5q0 187 -81 187q-35 0 -52.5 -45t-17.5 -120q0 -188 81 -188z" />
    <glyph glyph-name="uni2081" unicode="&#x2081;" horiz-adv-x="308" 
d="M43 -151l-2 17l85 7v314l2 7l-13 -8l-71 -18l-8 16l139 55h24v-366l84 -7l-1 -17l-118 2z" />
    <glyph glyph-name="uni2082" unicode="&#x2082;" horiz-adv-x="371" 
d="M37 -150l-10 16l88 89q61 61 88 104.5t27 83.5q0 33 -16.5 53t-41.5 20q-17 0 -43 -8l-20 -78h-61v68l136 46q61 0 94 -27.5t33 -69.5q0 -52 -34.5 -94.5t-111.5 -95.5l-80 -57l29 11h211v-16l-18 -45h-270z" />
    <glyph glyph-name="uni2083" unicode="&#x2083;" horiz-adv-x="347" 
d="M42 -151v62h141q35 27 35 63q0 32 -27 52t-77 19l-3 15l28 14q37 17 51 35.5t14 47.5q0 26 -14 41.5t-35 15.5q-14 0 -35 -7l-20 -71h-58v64l137 44q51 0 75.5 -21t24.5 -50q0 -60 -100 -92q54 -2 85 -27t31 -58q0 -21 -8 -37t-28.5 -30.5t-35 -22.5t-47.5 -24l-73 -33
h-61z" />
    <glyph glyph-name="uni2084" unicode="&#x2084;" horiz-adv-x="375" 
d="M201 -150v110h-159l-14 22l188 253h76v-19l-231 -230l16 6h124v75l60 42h9v-117h78v-32h-78v-110h-69z" />
    <glyph glyph-name="uni2085" unicode="&#x2085;" horiz-adv-x="338" 
d="M45 -151v63h122q49 33 49 81q0 28 -17.5 46.5t-51.5 18.5q-26 0 -64 -16l-22 -10l-11 8l25 195h215v-12l-14 -47h-187l-15 -121l104 51q56 0 85.5 -25.5t29.5 -64.5q0 -45 -30 -72t-92 -57l-76 -38h-50z" />
    <glyph glyph-name="uni2086" unicode="&#x2086;" horiz-adv-x="376" 
d="M222 97q54 0 82 -32.5t28 -77.5q0 -59 -38 -93.5t-114 -51.5q-62 0 -97.5 43t-35.5 111q0 83 56 149t175 102l6 -18q-87 -33 -120.5 -77.5t-36.5 -121.5zM195 -135q60 0 60 100q0 39 -14 61.5t-36 22.5q-17 0 -59 -27l-19 -13q2 -144 68 -144z" />
    <glyph glyph-name="uni2087" unicode="&#x2087;" horiz-adv-x="335" 
d="M68 -150v19l188 306l-3 -2h-224v62h263l11 -12l-176 -373h-59z" />
    <glyph glyph-name="uni2088" unicode="&#x2088;" horiz-adv-x="374" 
d="M248 52q79 -47 79 -100q0 -43 -35.5 -68.5t-110.5 -41.5q-57 1 -95.5 28t-38.5 72q0 59 93 95l-14 10q-71 43 -71 96q0 37 33.5 61.5t101.5 39.5q59 -2 93.5 -24.5t34.5 -60.5q0 -59 -92 -92zM183 221q-24 0 -38.5 -13t-14.5 -36q0 -42 73 -88l6 -4q35 28 35 74
q0 30 -16 48.5t-45 18.5zM190 -136q25 0 43 15t18 45q0 19 -12 35.5t-24 25.5t-37 25l-21 15q-37 -29 -37 -76q0 -39 21 -62t49 -23z" />
    <glyph glyph-name="uni2089" unicode="&#x2089;" horiz-adv-x="369" 
d="M187 244q63 0 98.5 -43t35.5 -111q0 -82 -56.5 -147.5t-174.5 -101.5l-5 17q83 32 118 77.5t37 118.5l-93 -66q-54 0 -82.5 33.5t-28.5 77.5q0 58 38 92.5t113 52.5zM165 37q4 0 7.5 0.5t7.5 1.5t6.5 2t7.5 4t7 4.5t9 6t10 6.5l20 13q-2 145 -67 145q-60 0 -60 -96
q0 -41 14.5 -64t37.5 -23z" />
    <glyph glyph-name="uni208A" unicode="&#x208a;" horiz-adv-x="409" 
d="M190 -116v125h-140v29h140v129h30v-129h139v-29h-139v-125h-30z" />
    <glyph glyph-name="uni208B" unicode="&#x208b;" horiz-adv-x="415" 
d="M50 23v29h315v-29h-315z" />
    <glyph glyph-name="uni208C" unicode="&#x208c;" horiz-adv-x="410" 
d="M50 53v28h310v-28h-310zM50 -44v28h310v-28h-310z" />
    <glyph glyph-name="uni208D" unicode="&#x208d;" horiz-adv-x="213" 
d="M181 -247q-73 70 -102 127t-29 138t29.5 139t101.5 124l12 -10q-87 -96 -87 -253t87 -255z" />
    <glyph glyph-name="uni208E" unicode="&#x208e;" horiz-adv-x="198" 
d="M31 -247l-11 10q86 100 86 255t-86 253l11 10q73 -67 102.5 -124.5t29.5 -138.5t-29.5 -138.5t-102.5 -126.5z" />
    <glyph glyph-name="uni20A9" unicode="&#x20a9;" horiz-adv-x="981" 
d="M908 672l-87 -272h112v-25h-120l-17 -53h137v-25h-145l-93 -289l-46 -16l-101 305h-116l-92 -289l-45 -16l-100 305h-147v25h139l-18 53h-121v25h113l-89 272l-62 9l3 20l113 -2l125 2l3 -20l-87 -10l85 -271h176l42 138l-44 134l-65 9l2 20l118 -2l124 2l3 -20l-86 -10
l85 -271h176l85 272l-90 9l3 20l107 -2l80 2l3 -20zM493 490l-29 -90h50l-20 62zM260 375l17 -53h127l16 53h-160zM440 322h100l-17 53h-67zM759 322l16 53h-160l17 -53h127zM338 107l58 190h-111l51 -163zM692 108l59 189h-111l51 -163z" />
    <glyph glyph-name="Euro" unicode="&#x20ac;" horiz-adv-x="664" 
d="M408 685q-79 0 -134.5 -71.5t-68.5 -186.5h318l-17 -32h-303q-1 -10 -1 -29q0 -32 3 -61h256l-17 -32h-234q18 -107 78 -166.5t151 -59.5q82 0 167 58l13 -24q-87 -69 -203 -96q-127 0 -208.5 76.5t-98.5 211.5h-64v32h61q-1 12 -1 36q0 29 3 54h-63v32h67
q39 243 307 289q124 0 204 -64v-151h-28l-44 122q-53 62 -143 62z" />
    <glyph glyph-name="uni20AE" unicode="&#x20ae;" horiz-adv-x="585" 
d="M292 699l280 2v-162h-22l-55 132l-158 1v-235l159 82v-28l-159 -82v-45l159 82v-27l-159 -82v-308l104 -10l-3 -20l-146 2l-149 -2l-2 20l106 10v262l-158 -82v27l158 82v45l-158 -82v28l158 82v281l-158 -1l-55 -132h-22v162z" />
    <glyph glyph-name="uni20B4" unicode="&#x20b4;" horiz-adv-x="540" 
d="M444 425h77v-25h-506v25h256l26 12q51 25 76.5 54.5t25.5 71.5q0 54 -36 86.5t-97 32.5q-75 0 -130 -53l-38 -105h-26v142q80 51 182 51q104 -20 164.5 -69.5t60.5 -125.5q0 -57 -35 -97zM15 316v25h506v-25h-261l-22 -11q-58 -29 -86 -64t-28 -84q0 -60 38.5 -97
t103.5 -37q92 0 156 71l38 95h37l-11 -143q-86 -63 -201 -63q-129 30 -184.5 88t-55.5 130q0 66 47 115h-77z" />
    <glyph glyph-name="uni20B8" unicode="&#x20b8;" horiz-adv-x="585" 
d="M13 673v27h559v-27h-559zM143 -1l-2 20l106 10v581h-157l-56 -115h-21v144h559v-144h-22l-55 115h-158v-581l104 -10l-2 -20l-146 2z" />
    <glyph glyph-name="uni20B9" unicode="&#x20b9;" horiz-adv-x="483" 
d="M424 28l54 -10l-2 -19l-82 2l-62 -2l-214 323l-5 5h-83v27h71q83 0 132.5 42.5t53.5 111.5h-255v27h254q-4 68 -46 103t-106 35h-104v27l425 1l-14 -27h-144q85 -43 89 -139h69l-14 -27h-56q-14 -133 -226 -177l81 -32z" />
    <glyph glyph-name="uni20BA" unicode="&#x20ba;" horiz-adv-x="630" 
d="M603 310l2 -20l-65 -10q0 -256 -240 -281l-137 2l-131 -2l-2 20l89 10v220l-95 -54v28l95 54v44l-95 -54v28l95 54v322l-89 10l2 20l137 -2l129 2l3 -20l-92 -10v-271l225 127v-28l-225 -127v-45l225 127v-28l-225 -127v-270l75 -5q58 0 95 36.5t51.5 91t14.5 127.5
l-78 11l2 20l128 -2z" />
    <glyph glyph-name="uni20BD" unicode="&#x20bd;" horiz-adv-x="556" 
d="M302 309h-93v-46h236v-29h-236v-205l109 -10l-3 -20l-151 2l-132 -2l-2 20l89 10v205h-89v29h89v46h-89v30h89v332l-89 10l2 20l130 -2l166 2q94 0 154.5 -47t60.5 -132q0 -159 -241 -213zM209 671v-332h68q75 0 121.5 48.5t46.5 123.5q0 74 -38 120t-116 46z" />
    <glyph glyph-name="uni2113" unicode="&#x2113;" horiz-adv-x="430" 
d="M211 39l156 59l14 -17l-180 -97l-64 22v234q-35 -17 -97 -43v33q65 29 97 46v347l139 97q58 -3 86 -49t28 -120q0 -94 -44.5 -157.5t-134.5 -115.5v-239zM211 640v-317q99 77 99 200q0 52 -13.5 94t-44.5 42z" />
    <glyph glyph-name="uni2116" unicode="&#x2116;" horiz-adv-x="981" 
d="M32 0l-2 17l93 8v642l-88 13l2 20l96 -1l84 1l259 -557l14 -57v614h118l2 -17l-88 -9v-674h-75l-278 598l-13 56v-654h-124zM753 109q-71 0 -115.5 48.5t-44.5 124.5q0 156 187 189q69 0 112.5 -48t43.5 -125q0 -159 -183 -189zM777 140q38 0 61 35.5t23 96.5
q0 75 -28.5 121t-75.5 46q-41 0 -65 -35t-24 -97q0 -74 30.5 -120.5t78.5 -46.5zM592 0v42h344v-42h-344z" />
    <glyph glyph-name="trademark" unicode="&#x2122;" horiz-adv-x="995" 
d="M125 314l-2 18l60 5v343l-78 -1l-37 -90h-18v112l173 -1l171 1v-112h-18l-37 90l-77 1v-343l58 -5l-2 -18l-96 1zM422 314l-2 18l46 5v342l-46 5l2 17l56 -1l80 1l126 -297l1 -23l127 320l61 -1l71 1l1 -17l-46 -6v-341l45 -5l-1 -18l-81 1l-83 -1l-1 18l43 5v303l4 33
l-143 -360h-44l-136 327l-9 34v-337l45 -5l-1 -18l-57 1z" />
    <glyph glyph-name="uni2126" unicode="&#x2126;" horiz-adv-x="718" 
d="M42 0v164h19l32 -91l180 -17v75q-93 16 -160.5 88t-67.5 189q0 118 77 193t247 114q133 0 218.5 -84t85.5 -204q0 -229 -226 -290v-81l178 17l33 91h19v-164h-269v155q23 4 44 12.5t44 28t40 46t28 70t11 96.5q0 119 -62.5 193t-158.5 74q-94 0 -152 -67.5t-58 -176.5
q0 -117 49.5 -192t116.5 -83v-156h-268z" />
    <glyph glyph-name="estimated" unicode="&#x212e;" horiz-adv-x="819" 
d="M402 -15q-155 0 -253.5 99.5t-98.5 250.5q0 161 81 242t288 138q150 0 247 -94.5t103 -240.5v-48h-606v-87q31 -101 98 -160.5t157 -59.5q92 0 151 51.5t83 143.5h98q-34 -98 -114.5 -149t-233.5 -86zM163 380h489v65q-26 105 -94 166.5t-160 61.5q-169 0 -235 -172v-121
z" />
    <glyph glyph-name="arrowleft" unicode="&#x2190;" horiz-adv-x="610" 
d="M320 37l-270 258l270 258v-55l-185 -173l-17 -10h442v-40h-442l17 -9l185 -174v-55z" />
    <glyph glyph-name="arrowup" unicode="&#x2191;" horiz-adv-x="617" 
d="M288 40v442l-9 -17l-174 -185h-55l258 270l259 -270h-56l-173 185l-10 17v-442h-40z" />
    <glyph glyph-name="arrowright" unicode="&#x2192;" horiz-adv-x="610" 
d="M290 37v55l185 174l17 9h-442v40h442l-17 10l-185 173v55l270 -258z" />
    <glyph glyph-name="arrowdown" unicode="&#x2193;" horiz-adv-x="617" 
d="M308 40l-258 270h55l174 -185l9 -17v442h40v-442l10 17l173 185h56z" />
    <glyph glyph-name="uni2196" unicode="&#x2196;" horiz-adv-x="476" 
d="M396 101l-313 313l5 -19l1 -254l-39 -40v374h374l-40 -39l-253 1l-20 5l313 -313z" />
    <glyph glyph-name="uni2197" unicode="&#x2197;" horiz-adv-x="476" 
d="M80 101l-29 28l313 313l-19 -5l-254 -1l-39 39h374v-374l-39 40l1 254l5 19z" />
    <glyph glyph-name="uni2198" unicode="&#x2198;" horiz-adv-x="476" 
d="M52 93l39 39l254 -1l19 -5l-313 313l29 29l313 -314l-5 20l-1 254l39 39v-374h-374z" />
    <glyph glyph-name="uni2199" unicode="&#x2199;" horiz-adv-x="476" 
d="M50 93v374l39 -39l-1 -254l-5 -20l313 314l28 -29l-313 -313l20 5l253 1l40 -39h-374z" />
    <glyph glyph-name="partialdiff" unicode="&#x2202;" 
d="M178 720q174 -59 265 -171t91 -273q0 -123 -56.5 -200.5t-161.5 -90.5q-109 16 -169.5 87t-60.5 178q0 93 49 157.5t139 66.5l165 -87q-36 222 -273 311zM305 18q65 0 103 78t38 200q0 33 -3 63l-37 20q-70 38 -115 38q-55 0 -86 -50t-31 -137q0 -102 35.5 -157t95.5 -55
z" />
    <glyph glyph-name="emptyset" unicode="&#x2205;" horiz-adv-x="609" 
d="M533 553l-61 -61q47 -56 47 -136q0 -90 -58 -149.5t-151 -59.5q-82 0 -137 47l-61 -61l-24 24l61 61q-47 58 -47 138q0 89 58 148.5t150 59.5q81 0 139 -48l61 61zM142 356q0 -62 35 -110l244 243q-45 39 -111 39q-75 0 -121.5 -50t-46.5 -122zM479 356q0 62 -35 108
l-243 -243q44 -38 109 -38q76 0 122.5 50t46.5 123z" />
    <glyph glyph-name="uni2206" unicode="&#x2206;" horiz-adv-x="693" 
d="M25 0v27l301 668l50 20l292 -687v-28h-643zM68 32h499l-235 570l-4 28z" />
    <glyph glyph-name="product" unicode="&#x220f;" horiz-adv-x="733" 
d="M23 -160l-3 20l90 9v802l-90 9l3 20h688l2 -20l-88 -9v-802l88 -9l-3 -20l-128 1l-135 -1l-2 20l91 9v800h-337v-800l89 -9l-3 -20l-131 1z" />
    <glyph glyph-name="summation" unicode="&#x2211;" 
d="M69 -160l-12 23l305 385l-294 428l12 24h469v-165h-20l-57 135l-290 3l255 -367v-18l-302 -379l352 7l54 109h22l-18 -185h-476z" />
    <glyph glyph-name="minus" unicode="&#x2212;" 
d="M47 253v43h525v-43h-525z" />
    <glyph glyph-name="radical" unicode="&#x221a;" 
d="M190 -15l-170 455l-61 8l3 17h138l133 -370l4 -34l277 817h201l-14 -37h-157l-287 -825z" />
    <glyph glyph-name="infinity" unicode="&#x221e;" horiz-adv-x="816" 
d="M207 129q-67 0 -107 45t-40 114q0 114 157 182q54 0 100 -32t108 -98l50 53q71 77 141 77q65 0 102.5 -44.5t37.5 -112.5q0 -64 -35 -105t-123 -79q-52 0 -99 32t-106 95l-51 -56q-64 -71 -135 -71zM621 205q41 0 71 25t30 77q0 97 -114 97q-73 0 -127 -57l-32 -34
q104 -108 172 -108zM216 192q64 0 118 54l36 37q-98 111 -169 111q-45 0 -76 -25.5t-31 -73.5q0 -45 32.5 -74t89.5 -29z" />
    <glyph glyph-name="integral" unicode="&#x222b;" 
d="M128 -235v71h90l11 17q16 31 16 117v502q0 49 9 79t34 59l87 100h116v-68h-137l-14 -21q-15 -30 -15 -120v-503q0 -47 -9 -76t-33 -57l-89 -100h-66z" />
    <glyph glyph-name="approxequal" unicode="&#x2248;" 
d="M26 276l38 89l96 19l371 -56l44 68h19l-38 -89l-94 -19l-372 58l-44 -70h-20zM26 89l37 89l96 19l371 -55l44 67h20l-39 -88l-93 -20l-372 58l-45 -70h-19z" />
    <glyph glyph-name="notequal" unicode="&#x2260;" 
d="M95 0l106 128h-149v42h185l126 150h-311v42h346l99 118h49l-99 -118h121v-42h-157l-125 -150h282v-42h-317l-106 -128h-50z" />
    <glyph glyph-name="lessequal" unicode="&#x2264;" 
d="M570 105l-520 234v36l520 235v-50l-460 -202l460 -202v-51zM49 0v42h521v-42h-521z" />
    <glyph glyph-name="greaterequal" unicode="&#x2265;" 
d="M50 105v51l460 202l-460 202v50l520 -235v-36zM50 0v42h520v-42h-520z" />
    <glyph glyph-name="uni2460" unicode="&#x2460;" horiz-adv-x="813" 
d="M408 -15q-155 2 -261.5 102t-106.5 269q0 153 97.5 243.5t268.5 115.5q154 -2 260.5 -102t106.5 -269q0 -153 -97.5 -243.5t-267.5 -115.5zM406 12q130 0 221.5 90.5t91.5 241.5q0 84 -30.5 152.5t-78 108.5t-100 61.5t-102.5 21.5q-130 0 -222 -90.5t-92 -241.5
q0 -84 30.5 -152.5t78.5 -108.5t100.5 -61.5t102.5 -21.5zM296 168l-2 17l85 7v313l2 7l-13 -8l-71 -18l-8 16l139 55h24v-365l84 -7l-1 -17l-118 1z" />
    <glyph glyph-name="uni2461" unicode="&#x2461;" horiz-adv-x="813" 
d="M408 -15q-155 2 -261.5 102t-106.5 269q0 153 97.5 243.5t268.5 115.5q154 -2 260.5 -102t106.5 -269q0 -153 -97.5 -243.5t-267.5 -115.5zM406 12q130 0 221.5 90.5t91.5 241.5q0 84 -30.5 152.5t-78 108.5t-100 61.5t-102.5 21.5q-130 0 -222 -90.5t-92 -241.5
q0 -84 30.5 -152.5t78.5 -108.5t100.5 -61.5t102.5 -21.5zM266 168l-9 16l88 89q61 61 88 104.5t27 83.5q0 33 -16.5 53t-42.5 20q-16 0 -42 -8l-20 -78h-61v68l135 46q61 0 94.5 -27.5t33.5 -69.5q0 -52 -34.5 -94.5t-111.5 -95.5l-80 -57l28 11h212v-16l-19 -45h-270z" />
    <glyph glyph-name="uni2462" unicode="&#x2462;" horiz-adv-x="813" 
d="M408 -15q-155 2 -261.5 102t-106.5 269q0 153 97.5 243.5t268.5 115.5q154 -2 260.5 -102t106.5 -269q0 -153 -97.5 -243.5t-267.5 -115.5zM406 12q130 0 221.5 90.5t91.5 241.5q0 84 -30.5 152.5t-78 108.5t-100 61.5t-102.5 21.5q-130 0 -222 -90.5t-92 -241.5
q0 -84 30.5 -152.5t78.5 -108.5t100.5 -61.5t102.5 -21.5zM299 159v63h141q35 27 35 63q0 31 -27 51t-77 20l-4 15l29 13q37 17 51 35.5t14 47.5q0 26 -14 42t-36 16q-18 0 -34 -8l-21 -70h-58v64l137 43q51 0 75.5 -20.5t24.5 -49.5q0 -61 -100 -92q54 -3 85.5 -27.5
t31.5 -57.5q0 -21 -8.5 -37.5t-28 -30.5t-36 -23t-47.5 -23l-73 -34h-60z" />
    <glyph glyph-name="uni2463" unicode="&#x2463;" horiz-adv-x="813" 
d="M408 -15q-155 2 -261.5 102t-106.5 269q0 153 97.5 243.5t268.5 115.5q154 -2 260.5 -102t106.5 -269q0 -153 -97.5 -243.5t-267.5 -115.5zM406 12q130 0 221.5 90.5t91.5 241.5q0 84 -30.5 152.5t-78 108.5t-100 61.5t-102.5 21.5q-130 0 -222 -90.5t-92 -241.5
q0 -84 30.5 -152.5t78.5 -108.5t100.5 -61.5t102.5 -21.5zM393 164v110h-159l-15 22l189 253h75v-19l-230 -230l15 6h125v75l60 42h8v-118h79v-31h-79v-110h-68z" />
    <glyph glyph-name="uni2464" unicode="&#x2464;" horiz-adv-x="813" 
d="M408 -15q-155 2 -261.5 102t-106.5 269q0 153 97.5 243.5t268.5 115.5q154 -2 260.5 -102t106.5 -269q0 -153 -97.5 -243.5t-267.5 -115.5zM406 12q130 0 221.5 90.5t91.5 241.5q0 84 -30.5 152.5t-78 108.5t-100 61.5t-102.5 21.5q-130 0 -222 -90.5t-92 -241.5
q0 -84 30.5 -152.5t78.5 -108.5t100.5 -61.5t102.5 -21.5zM288 159v62h123q48 33 48 81q0 28 -17.5 46.5t-51.5 18.5q-29 0 -64 -16l-22 -10l-10 8l24 195h215v-12l-13 -47h-188l-15 -121l104 51q56 0 85.5 -25.5t29.5 -63.5q0 -46 -30 -73t-92 -57l-75 -37h-51z" />
    <glyph glyph-name="uni2465" unicode="&#x2465;" horiz-adv-x="813" 
d="M406 715q154 -2 260.5 -102t106.5 -269q0 -153 -97.5 -243.5t-267.5 -115.5q-155 2 -261.5 102t-106.5 269q0 153 97.5 243.5t268.5 115.5zM406 12q130 0 221.5 90.5t91.5 241.5q0 84 -30.5 152.5t-78 108.5t-100 61.5t-102.5 21.5q-130 0 -222 -90.5t-92 -241.5
q0 -84 30.5 -152.5t78.5 -108.5t100.5 -61.5t102.5 -21.5zM430 411q54 0 82.5 -33t28.5 -77q0 -110 -152 -145q-63 0 -98 43t-35 111q0 83 56 149t175 102l5 -17q-87 -33 -120.5 -78t-35.5 -121zM403 179q61 0 61 100q0 39 -14.5 61.5t-36.5 22.5q-17 0 -59 -27l-18 -12
q0 -145 67 -145z" />
    <glyph glyph-name="uni2466" unicode="&#x2466;" horiz-adv-x="813" 
d="M408 -15q-155 2 -261.5 102t-106.5 269q0 153 97.5 243.5t268.5 115.5q154 -2 260.5 -102t106.5 -269q0 -153 -97.5 -243.5t-267.5 -115.5zM406 12q130 0 221.5 90.5t91.5 241.5q0 84 -30.5 152.5t-78 108.5t-100 61.5t-102.5 21.5q-130 0 -222 -90.5t-92 -241.5
q0 -84 30.5 -152.5t78.5 -108.5t100.5 -61.5t102.5 -21.5zM328 150v19l188 306l-4 -2h-223v62h263l10 -12l-175 -373h-59z" />
    <glyph glyph-name="uni2467" unicode="&#x2467;" horiz-adv-x="813" 
d="M406 715q154 -2 260.5 -102t106.5 -269q0 -153 -97.5 -243.5t-267.5 -115.5q-155 2 -261.5 102t-106.5 269q0 153 97.5 243.5t268.5 115.5zM406 12q130 0 221.5 90.5t91.5 241.5q0 84 -30.5 152.5t-78 108.5t-100 61.5t-102.5 21.5q-130 0 -222 -90.5t-92 -241.5
q0 -84 30.5 -152.5t78.5 -108.5t100.5 -61.5t102.5 -21.5zM466 359q79 -47 79 -100q0 -43 -35.5 -68.5t-110.5 -41.5q-57 1 -95.5 28t-38.5 72q0 59 94 95l-14 10q-72 43 -72 96q0 37 33.5 61.5t101.5 39.5q59 -2 93.5 -24.5t34.5 -60.5q0 -59 -92 -92zM401 528
q-24 0 -38.5 -13t-14.5 -36q0 -42 73 -88l6 -4q35 28 35 74q0 30 -16 48.5t-45 18.5zM408 171q25 0 43 15t18 45q0 19 -12 35.5t-24 25.5t-37 25l-21 15q-37 -29 -37 -76q0 -39 21 -62t49 -23z" />
    <glyph glyph-name="uni2468" unicode="&#x2468;" horiz-adv-x="813" 
d="M406 715q154 -2 260.5 -102t106.5 -269q0 -153 -97.5 -243.5t-267.5 -115.5q-155 2 -261.5 102t-106.5 269q0 153 97.5 243.5t268.5 115.5zM406 12q130 0 221.5 90.5t91.5 241.5q0 84 -30.5 152.5t-78 108.5t-100 61.5t-102.5 21.5q-130 0 -222 -90.5t-92 -241.5
q0 -84 30.5 -152.5t78.5 -108.5t100.5 -61.5t102.5 -21.5zM424 545q62 0 97.5 -43t35.5 -111q0 -82 -56.5 -147.5t-173.5 -101.5l-6 17q83 32 118 77.5t38 118.5l-93 -65q-54 0 -83 33.5t-29 77.5q0 58 38.5 92.5t113.5 51.5zM402 339q18 0 54 25l21 14q-3 144 -67 144
q-61 0 -61 -96q0 -41 15 -64t38 -23z" />
    <glyph glyph-name="lozenge" unicode="&#x25ca;" 
d="M282 -18l-235 348l245 366l46 19l235 -347l-243 -365zM318 40l190 286l-202 313l-4 17l-188 -287l200 -311z" />
    <glyph glyph-name="circle" unicode="&#x25cb;" horiz-adv-x="813" 
d="M408 -15q-155 2 -261.5 102t-106.5 269q0 153 97.5 243.5t268.5 115.5q154 -2 260.5 -102t106.5 -269q0 -153 -97.5 -243.5t-267.5 -115.5zM406 12q130 0 221.5 90.5t91.5 241.5q0 84 -30.5 152.5t-78 108.5t-100 61.5t-102.5 21.5q-130 0 -222 -90.5t-92 -241.5
q0 -84 30.5 -152.5t78.5 -108.5t100.5 -61.5t102.5 -21.5z" />
    <glyph glyph-name="uniF8FF" unicode="&#xf8ff;" horiz-adv-x="685" 
d="M492 -29l-30 1l-24 18h-14l-8 8l7 76l-4 47l-61 1l-3 -52l-2 -56v-20l-15 -6l-8 6l-30 -10h-32l-1 11l11 11l50 21l-6 96l-98 -6l-147 140l-4 115l-13 10l-10 36v26l15 8l-3 78l92 -62l9 47l10 36l22 35l28 35l39 29l78 29h22l-68 22l4 17h7l79 -20l-4 51l16 12h32l19 -5
l29 -25l32 -8l32 -10l15 -13v-20l-20 -31l30 -28l28 -32l18 -34l15 -41l9 -54l-3 -41l-8 -35l-12 -31l-3 -156l-21 -7l-50 70l-27 -7l-19 -140l-32 4l-7 -4l-4 -94l30 -19l16 -14zM238 540h5l36 24h32l18 -12l8 3l4 14l7 5l10 -4v-18h8l10 22l11 8l-5 6l-3 8l1 21l-30 -10
l-10 -8l-8 5l4 21l14 10l11 11l38 -2l12 13l-4 8h-49l-45 -13l-53 -26l-29 -23l-25 -34l29 12l13 -15l-17 -20l-10 -3zM418 608l3 17l-7 17l-8 -9v-19zM466 564h13l6 6l-9 18l17 28l-15 9v5l-25 7v-20l-13 -5v-9l-9 -6l-3 -12l5 -6l19 11l8 -2zM545 406l18 12h23l6 11l-18 6
l-5 9l9 42h7l14 -20l17 -1l-8 37l-19 50l-20 36l-23 28l-34 21h-11l17 -19l25 -10l11 -11l3 -33l-25 13l-15 -29l12 -8v-19l15 3l-12 26l15 -5l10 -20l-5 -12l-8 -7h-23l-3 11l-12 2l1 -22h-14l14 -18l-7 -10l-21 5l-3 -27l41 6l8 17l22 -2l6 -28l-16 -13v-15zM491 514l2 7
l-2 9l-8 -4v-9zM214 498l59 12l-4 12zM396 491l3 4l-48 25l-4 -12zM102 254v180l57 -32l7 10l-68 38v18l59 -34l43 -28l28 -14l3 10l-103 64l-13 7l-41 33l2 -78l19 -17v-5h-21l19 -14l1 -11l-20 7l18 -18l-4 -7l3 -97zM257 432l11 5l16 12l6 12l2 13l-22 -4l6 -10l-12 -13
l-14 -1l-6 8l1 4l14 2l-13 6l2 7l-20 -1l3 -19l14 -15zM359 430l18 10l6 9l5 20l-30 2l7 -5l1 -11l-7 -11h-12l-5 7l11 8l-15 2v6l-23 4l3 -17l8 -14l20 -9zM231 130l18 4l2 40l41 -3l3 9l-44 6v16l48 -6l1 9l-47 7l1 22l43 -3l3 6l-45 9l3 94h74l11 10h-79l2 9h74l8 7h-82
l2 22l117 4l140 -4v11l-4 7h-205l-66 -3l-7 -9l-6 -44l-48 20l-11 -4l57 -27l1 -45l-5 -73v-91zM559 386h5l5 7v7l-10 -4v-10zM380 336h53l4 30l-54 5zM203 231l-1 60l4 40l-66 39v-7l-2 -13l1 -27v-48zM540 300l8 2l20 15l13 13l11 18l-7 5h-14l-10 3l-14 7l-17 -3l-6 -48z
M467 346l44 4l4 9h-48v-13zM479 142l12 79l4 36l-15 3l-1 8l20 1l5 3l-28 16l2 5l30 -6l-30 15l5 5l21 -5l4 10l3 19l-54 1l-1 -24v-6l-2 -31l19 -3l-8 -61l-48 3l-8 -6l51 -5l-2 -9h-49l-4 -5l53 -7l-6 -35zM321 302h73v10h-73v-10zM589 234v78l-6 -3l-33 -27zM394 271v10
l-72 7l-6 -13zM316 250h68v6l-68 4v-10zM202 189l4 14l-74 50l20 -23zM380 161v53l-64 4v-51z" />
    <glyph glyph-name="uni00A40301" horiz-adv-x="329" 
d="M149 767l58 133h95l-122 -133h-31zM0 -175v81h110l6 21q12 35 12 165v579l-108 10l3 20l150 -2l129 2l3 -20l-87 -10v-578q0 -61 -9 -93.5t-35 -62.5l-98 -112h-76z" />
    <glyph glyph-name="uni006A0301" horiz-adv-x="256" 
d="M136 547l55 163h93l-127 -163h-21zM-19 -236v78h103l6 18q14 37 14 104v463l-71 -12l-3 20l127 35l27 2v-492q0 -62 -41 -110l-87 -106h-75z" />
    <glyph glyph-name="zero.zero" horiz-adv-x="567" 
d="M295 480q101 0 166.5 -67t65.5 -171q0 -208 -255 -257q-101 0 -166.5 67.5t-65.5 170.5q0 104 63 166.5t192 90.5zM271 444q-67 0 -102.5 -56.5t-35.5 -139.5q0 -87 29 -145l225 288q-43 53 -116 53zM296 20q66 0 102.5 57t36.5 140q0 94 -33 151l-225 -290
q42 -58 119 -58z" />
    <glyph glyph-name="zero.tf" 
d="M298 -15q-101 0 -166.5 67.5t-65.5 170.5q0 104 63 166.5t192 90.5q101 0 166.5 -67t65.5 -171q0 -208 -255 -257zM322 20q66 0 102.5 57t36.5 140q0 100 -41 163.5t-123 63.5q-67 0 -102.5 -56.5t-35.5 -139.5q0 -101 40.5 -164.5t122.5 -63.5z" />
    <glyph glyph-name="one.tf" 
d="M122 -1l-2 20l153 12v370l2 9l-21 -10l-126 -39l-10 21l217 92h20v-443l149 -12l-2 -20l-187 2z" />
    <glyph glyph-name="two.tf" 
d="M109 0l-12 25l135 102q87 66 123 117t36 98q0 50 -24.5 75.5t-68.5 25.5q-29 0 -68 -18l-31 -111h-67v94l183 77q81 0 124 -35.5t43 -92.5q-1 -65 -49 -119.5t-147 -114.5l-96 -56l49 12h285v-17l-25 -62h-390z" />
    <glyph glyph-name="three.tf" 
d="M117 -230v80h215q85 56 85 139q0 63 -53.5 101t-140.5 38l-6 19l47 21q67 30 96.5 68.5t29.5 94.5q0 48 -26.5 79.5t-66.5 31.5q-39 0 -74 -19l-36 -113h-66v101l202 74q69 0 111 -35.5t42 -93.5q0 -114 -153 -182q79 -5 130.5 -47t51.5 -102q0 -68 -42.5 -115.5
t-142.5 -92.5l-99 -47h-104z" />
    <glyph glyph-name="four.tf" 
d="M348 -231v233h-277l-21 23l315 443h95v-20l-359 -417l19 7h228v149l68 48h12v-197h140v-36h-140v-233h-80z" />
    <glyph glyph-name="five.tf" 
d="M112 -230v80h191q112 64 112 177q0 61 -34 96.5t-92 34.5q-54 0 -111 -29l-38 -18l-16 9l38 350h336v-15l-15 -62h-297l-27 -244l149 80q90 0 142.5 -46t52.5 -120q0 -81 -48 -137t-160 -108l-100 -48h-83z" />
    <glyph glyph-name="six.tf" 
d="M345 447q87 0 136 -59.5t49 -148.5q0 -94 -57.5 -160.5t-176.5 -93.5q-96 0 -151.5 80t-55.5 201q0 100 36 185.5t117.5 157t201.5 112.5l9 -24q-152 -60 -211.5 -149.5t-61.5 -227.5zM318 22q60 0 93 48.5t33 138.5q0 80 -30 127t-79 47q-25 0 -49.5 -14t-68.5 -49
l-37 -30q3 -127 40 -197.5t98 -70.5z" />
    <glyph glyph-name="seven.tf" 
d="M171 -229v17l286 588l15 15h-381v79h427l11 -13l-282 -686h-76z" />
    <glyph glyph-name="eight.tf" 
d="M399 352q61 -42 94 -81.5t33 -90.5q0 -77 -57 -124t-173 -71q-87 0 -145.5 49.5t-58.5 129.5q0 59 42 108.5t115 83.5l-26 22q-111 73 -111 163q0 63 50 105t154 69q93 0 144.5 -39t51.5 -106q0 -105 -150 -188zM198 578q0 -46 35 -85.5t106 -91.5l5 -4q81 60 81 152
q0 57 -32 94.5t-90 37.5q-47 0 -76 -27.5t-29 -75.5zM314 20q51 0 88.5 31t37.5 92q0 17 -3.5 32t-14.5 30.5t-17 24.5t-26 25.5t-25.5 21t-31 22.5t-28.5 20l-29 24q-45 -32 -66 -68.5t-21 -87.5q0 -71 40.5 -119t95.5 -48z" />
    <glyph glyph-name="nine.tf" 
d="M322 485q93 0 150 -78t57 -205q0 -155 -91 -270.5t-261 -174.5l-10 23q137 59 201 145t68 223l-160 -125q-83 0 -135.5 58.5t-52.5 151.5q0 195 234 252zM289 90q22 0 43.5 11.5t63.5 45.5l41 32q-1 119 -35.5 194t-104.5 75q-56 0 -89.5 -49.5t-33.5 -133.5
q0 -81 31 -128t84 -47z" />
    <glyph glyph-name="zero.tf.zero" 
d="M321 480q101 0 166.5 -67t65.5 -171q0 -208 -255 -257q-101 0 -166.5 67.5t-65.5 170.5q0 104 63 166.5t192 90.5zM297 444q-67 0 -102.5 -56.5t-35.5 -139.5q0 -87 29 -145l225 288q-43 53 -116 53zM322 20q66 0 102.5 57t36.5 140q0 94 -33 151l-225 -290
q42 -58 119 -58z" />
    <glyph glyph-name="dollar.tf" 
d="M536 201q0 -144 -194 -206v-75h-30v67l-16 -4q-115 0 -201 63l-11 143h37l38 -95q27 -31 67.5 -50.5t85.5 -20.5v297l-87 43q-60 30 -91.5 65.5t-31.5 93.5q0 73 56.5 121.5t153.5 70.5v67h30v-64q94 -5 167 -51v-142h-26l-38 105q-46 45 -103 51v-271l56 -28
q67 -32 102.5 -74t35.5 -106zM284 437l28 -14v259q-60 -1 -95 -33.5t-35 -85.5q0 -42 25.5 -71.5t76.5 -54.5zM342 25q54 7 84.5 43t30.5 89q0 49 -28.5 84t-85.5 64h-1v-280z" />
    <glyph glyph-name="cent.tf" 
d="M493 76q-63 -51 -139 -84v-72h-29v65q-91 5 -148.5 66.5t-57.5 167.5q0 105 60 169t152 87v70h28v-65q31 -2 68 -17t57 -33v-89h-63l-32 92q-25 13 -53 13q-59 0 -98 -50.5t-39 -140.5q0 -89 45 -147.5t119 -58.5q57 0 121 47z" />
    <glyph glyph-name="sterling.tf" 
d="M521 157h27l-13 -157l-338 1l-126 -1l-3 21l95 27v293h-88v8l14 20h74v115q0 101 42.5 149.5t169.5 81.5q96 0 137 -48v-117h-35l-30 93q-21 22 -39.5 31t-47.5 9q-55 0 -86 -39t-31 -100v-175h186v-29l-186 1v-178q0 -101 -36 -135l261 2z" />
    <glyph glyph-name="florin.tf" 
d="M137 -235v71h84l11 17q16 31 16 117v464h-79v8l14 21h65v11q0 48 9.5 78.5t34.5 59.5l87 98h103v-68h-125l-14 -21q-16 -33 -16 -119v-42h113v-26h-113v-436q0 -47 -8.5 -76t-32.5 -57l-89 -100h-60z" />
    <glyph glyph-name="yen.tf" 
d="M546 673l-183 -392v-10h130v-26h-130v-69h130v-25h-131v-122l114 -10l-2 -20l-157 2l-160 -2l-2 20l117 10v122h-127v25h127v69h-127v26h127v1l-200 400l-77 9l3 20l132 -2l131 2l3 -20l-89 -10l163 -347l5 -18l159 365l-95 10l3 20l114 -2l97 2l3 -20z" />
    <glyph glyph-name="Euro.tf" 
d="M383 685q-79 0 -134.5 -71.5t-68.5 -186.5h318l-17 -32h-303q-1 -10 -1 -29q0 -32 3 -61h256l-17 -32h-234q18 -107 78 -166.5t151 -59.5q82 0 167 58l13 -24q-87 -69 -203 -96q-127 0 -208.5 76.5t-98.5 211.5h-64v32h61q-1 12 -1 36q0 29 3 54h-63v32h67
q39 243 307 289q124 0 204 -64v-151h-28l-44 122q-53 62 -143 62z" />
    <glyph glyph-name="percent.tf" 
d="M145 358q-53 0 -86 46.5t-33 122.5q0 146 142 179q54 0 87.5 -46.5t33.5 -122.5q0 -149 -144 -179zM100 -5l394 710h39l-392 -710h-41zM162 380q28 0 44.5 38.5t16.5 103.5q0 73 -19.5 116t-52.5 45q-28 0 -44 -38.5t-16 -103.5q0 -74 18.5 -116.5t52.5 -44.5zM452 -6
q-54 0 -87.5 46.5t-33.5 121.5q0 147 142 180q55 0 88 -46.5t33 -123.5q0 -148 -142 -178zM467 16q28 0 45 39t17 103q0 73 -19 116.5t-53 44.5q-28 0 -44.5 -38.5t-16.5 -103.5q0 -73 19 -116t52 -45z" />
    <glyph glyph-name="perthousand.tf" horiz-adv-x="610" 
d="M126 398q-47 0 -76 41.5t-29 107.5q0 131 126 159q47 0 77 -41.5t30 -108.5q0 -131 -128 -158zM132 686q-24 0 -38.5 -34.5t-14.5 -90.5q0 -66 16.5 -103.5t45.5 -39.5q25 0 39.5 34t14.5 92q0 64 -17 102t-46 40zM462 521h49l-426 -288h-49zM482 302q48 0 77.5 -41.5
t29.5 -108.5q0 -132 -126 -158q-53 0 -82 54q-30 -40 -93 -54q-47 0 -76.5 41t-29.5 108q0 131 126 159q54 0 82 -55q30 40 92 55zM303 14q25 0 40 34.5t14 90.5q0 65 -17 103t-47 40q-25 0 -39 -34t-15 -92q0 -65 17 -103t47 -39zM477 14q25 0 39.5 34t14.5 91
q0 64 -17 102.5t-46 40.5q-25 0 -39.5 -34.5t-14.5 -91.5q0 -65 16.5 -103t46.5 -39z" />
    <glyph glyph-name="Aogonek.ss01" horiz-adv-x="720" 
d="M551 1l-55 -79v-17q0 -67 93 -67l-1 -16q-87 0 -120.5 22t-33.5 71v18l105 80l-81 233h-252l-76 -217l88 -10l-2 -20l-110 2l-96 -2l-2 20l79 9l246 659l50 23l251 -682l78 -9l-2 -20zM216 275h232l-109 313l-3 26z" />
    <glyph glyph-name="Ccedilla.ss01" horiz-adv-x="686" 
d="M390 -17h-7l-17 -20q71 -9 71 -53q0 -43 -78 -67l-60 -19h-42l24 32h79q29 14 29 39q0 17 -22.5 26.5t-53.5 10.5l47 52q-134 10 -227 105t-93 251q0 165 98.5 261.5t263.5 115.5q125 0 235 -67v-142h-30l-43 111q-67 67 -169 67q-112 0 -183 -85t-71 -242q0 -89 29 -165
t93 -126.5t152 -50.5q76 0 143 60l55 125h30l-13 -147q-119 -56 -240 -72z" />
    <glyph glyph-name="Eogonek.ss01" horiz-adv-x="614" 
d="M510 -1l-54 -77v-17q0 -67 93 -67l-1 -16q-87 0 -120.5 22t-33.5 71v18l87 66l-316 2l-133 -2l-2 20l89 10v642l-89 10l2 20l133 -2l399 2l5 -179h-19l-60 149l-281 1v-293l160 2l40 111h20l-5 -123l5 -127h-20l-40 110l-160 2v-326l291 1l64 153h22l-18 -183h-58z" />
    <glyph glyph-name="Gcommaaccent.ss01" horiz-adv-x="730" 
d="M385 -17q-146 0 -245.5 95.5t-99.5 262.5q0 163 96.5 260t264.5 116q70 0 134 -21t101 -46v-142h-27l-44 109q-67 69 -172 69q-116 0 -184 -91t-68 -242q0 -137 71.5 -237.5t191.5 -100.5q47 0 86 19t61 44v211l-86 10l2 20l129 -1l107 1l2 -20l-64 -10v-235
q-136 -61 -256 -71zM372 -181l-17 8l37 59l-36 23v40h85v-64z" />
    <glyph glyph-name="Iogonek.ss01" horiz-adv-x="329" 
d="M209 671v-642l90 -9l-2 -21l-118 2l-55 -79v-17q0 -67 93 -67l-1 -16q-87 0 -120.5 22t-33.5 71v18l89 68l-119 -2l-2 21l89 9v642l-89 10l2 20l133 -2l132 2l2 -20z" />
    <glyph glyph-name="Kcommaaccent.ss01" horiz-adv-x="690" 
d="M32 -1l-2 20l89 10v642l-89 10l2 20l134 -2l122 2l3 -20l-82 -10v-303l14 10l313 293l-82 10l3 20l101 -2l93 2l3 -20l-80 -11l-312 -298l43 1l314 -346l60 -8l-2 -20l-94 2l-66 -2l-300 341l-8 14v-325l82 -10l-3 -20l-122 2zM322 -181l-17 8l37 59l-36 23v40h85v-64z
" />
    <glyph glyph-name="Lcommaaccent.ss01" horiz-adv-x="570" 
d="M32 -1l-2 20l89 10v642l-89 10l2 20l134 -2l131 2l2 -20l-90 -10v-643l263 2l65 154h22l-17 -185l-376 2zM286 -181l-17 8l37 59l-36 23v40h85v-64z" />
    <glyph glyph-name="Ncommaaccent.ss01" horiz-adv-x="718" 
d="M569 -4l-404 618l-8 33v-618l88 -10l-3 -20l-101 2l-109 -2l-2 20l89 10v638l-87 14l2 20l108 -2l66 2l363 -548l10 -28v546l-87 10l2 20l100 -2l109 2l3 -20l-90 -10v-675h-49zM337 -181l-17 8l37 59l-36 23v40h85v-64z" />
    <glyph glyph-name="Eng.ss01" horiz-adv-x="718" 
d="M407 -175v47l71 3l69 90l56 31h-34l-404 618l-8 34v-619l87 -10l-3 -20l-101 2l-108 -2l-2 20l89 10v638l-88 14l3 20l93 -2l81 2l363 -548l10 -29v547l-88 10l3 20l101 -2l108 2l3 -20l-90 -10v-675l-89 -171h-122z" />
    <glyph glyph-name="Rcommaaccent.ss01" horiz-adv-x="660" 
d="M601 28l54 -10l-2 -19l-82 2l-62 -2l-214 323l-5 5h-81v-298l84 -10l-2 -20l-127 2l-132 -2l-2 20l89 10v642l-89 10l2 20l134 -2l176 2q96 0 158.5 -43t62.5 -131q0 -148 -227 -196l81 -32zM209 354h68q87 0 136.5 46t49.5 120q0 76 -42 115.5t-110 41.5l-102 -6v-317z
M330 -91v40h85v-64l-69 -66l-17 8l37 59z" />
    <glyph glyph-name="Scedilla.ss01" horiz-adv-x="540" 
d="M495 201q0 -69 -50.5 -125t-167.5 -87l-22 -26q71 -9 71 -53q0 -43 -78 -67l-60 -19h-42l24 32h79q29 14 29 39q0 17 -22.5 26.5t-53.5 10.5l46 51q-109 1 -194 63l-11 143h37l38 -95q62 -71 155 -71q66 0 104.5 37t38.5 97q0 49 -28.5 84t-85.5 64l-118 58
q-60 30 -91.5 65.5t-31.5 93.5q0 76 60.5 125.5t164.5 69.5q102 0 182 -51v-142h-26l-38 105q-55 53 -130 53q-61 0 -97 -32.5t-36 -86.5q0 -42 25.5 -71.5t76.5 -54.5l114 -56q67 -32 102.5 -74t35.5 -106z" />
    <glyph glyph-name="Scommaaccent.ss01" horiz-adv-x="540" 
d="M255 -17q-115 0 -201 63l-11 143h37l38 -95q62 -71 155 -71q66 0 104.5 37t38.5 97q0 49 -28.5 84t-85.5 64l-118 58q-60 30 -91.5 65.5t-31.5 93.5q0 76 60.5 125.5t164.5 69.5q102 0 182 -51v-142h-26l-38 105q-55 53 -130 53q-61 0 -97 -32.5t-36 -86.5
q0 -42 25.5 -71.5t76.5 -54.5l114 -56q67 -32 102.5 -74t35.5 -106q0 -72 -56 -130t-184 -88zM250 -181l-17 8l37 59l-36 23v40h85v-64z" />
    <glyph glyph-name="uni0162.ss01" horiz-adv-x="585" 
d="M292 699l280 2v-184h-22l-55 154l-158 1v-643l104 -10l-2 -20l-137 2l-33 -38q71 -9 71 -53q0 -43 -78 -67l-60 -19h-42l24 32h79q29 14 29 39q0 17 -22.5 26.5t-53.5 10.5l62 69l-135 -2l-2 20l106 10v643l-157 -1l-56 -154h-21v184z" />
    <glyph glyph-name="uni021A.ss01" horiz-adv-x="585" 
d="M143 -1l-2 20l106 10v643l-157 -1l-56 -154h-21v184l279 -2l280 2v-184h-22l-55 154l-158 1v-643l104 -10l-2 -20l-146 2zM264 -181l-17 8l37 59l-36 23v40h85v-64z" />
    <glyph glyph-name="Uogonek.ss01" horiz-adv-x="692" 
d="M677 701l3 -20l-87 -10v-429q0 -83 -31.5 -140t-109.5 -90l-63 -90v-17q0 -67 93 -67l-1 -16q-87 0 -120.5 22t-33.5 71v18l83 64q-20 -7 -55 -14q-253 0 -253 264v424l-89 10l2 20l133 -2l131 2l3 -20l-87 -10v-437q0 -96 46 -152.5t135 -56.5q79 0 124 57.5t45 152.5
v436l-90 10l3 20l112 -2z" />
    <glyph glyph-name="Aacute.ss02" horiz-adv-x="720" 
d="M338 746l54 104h89l-111 -104h-32zM10 -1l-2 20l79 9l246 659l50 23l251 -682l78 -9l-2 -20l-131 2l-129 -2l-3 20l87 10l-76 217h-252l-76 -217l88 -10l-2 -20l-110 2zM216 275h232l-109 313l-3 26z" />
    <glyph glyph-name="Abreve.ss02" horiz-adv-x="720" 
d="M373 739q-91 0 -141 105l15 11q44 -67 113 -67q62 0 113 67l14 -10q-9 -16 -14 -24t-18.5 -25t-34 -31t-47.5 -26zM10 -1l-2 20l79 9l246 659l50 23l251 -682l78 -9l-2 -20l-131 2l-129 -2l-3 20l87 10l-76 217h-252l-76 -217l88 -10l-2 -20l-110 2zM216 275h232
l-109 313l-3 26z" />
    <glyph glyph-name="Acircumflex.ss02" horiz-adv-x="720" 
d="M221 744l115 111h45l116 -111h-31l-101 61l-7 5l-5 -5l-101 -61h-31zM10 -1l-2 20l79 9l246 659l50 23l251 -682l78 -9l-2 -20l-131 2l-129 -2l-3 20l87 10l-76 217h-252l-76 -217l88 -10l-2 -20l-110 2zM216 275h232l-109 313l-3 26z" />
    <glyph glyph-name="Adieresis.ss02" horiz-adv-x="720" 
d="M234 763l-22 5l-4 44l7 35l54 5l22 -5l5 -42l-9 -37zM448 763l-22 5l-4 44l8 35l54 5l22 -5l4 -42l-8 -37zM10 -1l-2 20l79 9l246 659l50 23l251 -682l78 -9l-2 -20l-131 2l-129 -2l-3 20l87 10l-76 217h-252l-76 -217l88 -10l-2 -20l-110 2zM216 275h232l-109 313l-3 26
z" />
    <glyph glyph-name="Agrave.ss02" horiz-adv-x="720" 
d="M343 746l-111 104h90l53 -104h-32zM10 -1l-2 20l79 9l246 659l50 23l251 -682l78 -9l-2 -20l-131 2l-129 -2l-3 20l87 10l-76 217h-252l-76 -217l88 -10l-2 -20l-110 2zM216 275h232l-109 313l-3 26z" />
    <glyph glyph-name="Amacron.ss02" horiz-adv-x="720" 
d="M219 786v38h280v-38h-280zM10 -1l-2 20l79 9l246 659l50 23l251 -682l78 -9l-2 -20l-131 2l-129 -2l-3 20l87 10l-76 217h-252l-76 -217l88 -10l-2 -20l-110 2zM216 275h232l-109 313l-3 26z" />
    <glyph glyph-name="Aring.ss02" horiz-adv-x="720" 
d="M359 718q-31 0 -54.5 16.5t-23.5 49.5q0 21 12.5 35t26 19.5t39.5 13.5q31 0 54.5 -16.5t23.5 -48.5q0 -21 -12.5 -35.5t-25.5 -19.5t-40 -14zM359 740q20 0 33.5 13t13.5 33q0 19 -13.5 32t-33.5 13t-33.5 -13t-13.5 -32q0 -20 13.5 -33t33.5 -13zM10 -1l-2 20l79 9
l246 659l50 23l251 -682l78 -9l-2 -20l-131 2l-129 -2l-3 20l87 10l-76 217h-252l-76 -217l88 -10l-2 -20l-110 2zM216 275h232l-109 313l-3 26z" />
    <glyph glyph-name="Atilde.ss02" horiz-adv-x="720" 
d="M202 751l26 82l70 20l169 -58l34 61h15l-27 -82l-70 -20l-169 58l-34 -61h-14zM10 -1l-2 20l79 9l246 659l50 23l251 -682l78 -9l-2 -20l-131 2l-129 -2l-3 20l87 10l-76 217h-252l-76 -217l88 -10l-2 -20l-110 2zM216 275h232l-109 313l-3 26z" />
    <glyph glyph-name="AEacute.ss02" horiz-adv-x="977" 
d="M649 746l54 104h89l-111 -104h-32zM8 0l-3 19l79 9l421 673l53 -2l372 2l5 -179h-20l-59 149l-254 1v-322l132 2l40 110h21l-5 -122l5 -127h-21l-40 109l-132 2v-296l263 1l65 154h21l-17 -184l-377 2l-133 -2l-2 20l90 10v294h-205l-179 -294l83 -10l-2 -19l-104 1z
M322 349h190v317z" />
    <glyph glyph-name="Cacute.ss02" horiz-adv-x="686" 
d="M370 746l53 104h90l-111 -104h-32zM390 -17q-144 0 -247 96t-103 261t98.5 261.5t263.5 115.5q125 0 235 -67v-142h-30l-43 111q-67 67 -169 67q-112 0 -183 -85t-71 -242q0 -89 29 -165t93 -126.5t152 -50.5q76 0 143 60l55 125h30l-13 -147q-119 -56 -240 -72z" />
    <glyph glyph-name="Ccaron.ss02" horiz-adv-x="686" 
d="M367 749l-114 111h31l101 -62l5 -5l6 5l101 62h31l-115 -111h-46zM390 -17q-144 0 -247 96t-103 261t98.5 261.5t263.5 115.5q125 0 235 -67v-142h-30l-43 111q-67 67 -169 67q-112 0 -183 -85t-71 -242q0 -89 29 -165t93 -126.5t152 -50.5q76 0 143 60l55 125h30
l-13 -147q-119 -56 -240 -72z" />
    <glyph glyph-name="Ccircumflex.ss02" horiz-adv-x="686" 
d="M253 744l115 111h45l116 -111h-31l-101 61l-7 5l-5 -5l-101 -61h-31zM390 -17q-144 0 -247 96t-103 261t98.5 261.5t263.5 115.5q125 0 235 -67v-142h-30l-43 111q-67 67 -169 67q-112 0 -183 -85t-71 -242q0 -89 29 -165t93 -126.5t152 -50.5q76 0 143 60l55 125h30
l-13 -147q-119 -56 -240 -72z" />
    <glyph glyph-name="Cdotaccent.ss02" horiz-adv-x="686" 
d="M369 758l-21 5l-5 47l8 39l61 5l22 -5l5 -45l-9 -41zM390 -17q-144 0 -247 96t-103 261t98.5 261.5t263.5 115.5q125 0 235 -67v-142h-30l-43 111q-67 67 -169 67q-112 0 -183 -85t-71 -242q0 -89 29 -165t93 -126.5t152 -50.5q76 0 143 60l55 125h30l-13 -147
q-119 -56 -240 -72z" />
    <glyph glyph-name="Dcaron.ss02" horiz-adv-x="728" 
d="M300 749l-114 111h31l101 -62l5 -5l6 5l101 62h31l-115 -111h-46zM32 -1l-2 20l94 10v642l-94 10l2 20l138 -2l184 2q154 0 244 -88t90 -247q0 -162 -87 -259t-252 -108l-179 2zM346 25q108 0 174.5 91t66.5 242q0 144 -66 231t-197 87l-110 -5v-639z" />
    <glyph glyph-name="Eacute.ss02" horiz-adv-x="614" 
d="M310 746l54 104h89l-111 -104h-32zM32 -1l-2 20l89 10v642l-89 10l2 20l133 -2l399 2l5 -179h-19l-60 149l-281 1v-293l160 2l40 111h20l-5 -123l5 -127h-20l-40 110l-160 2v-326l291 1l64 153h22l-18 -183l-403 2z" />
    <glyph glyph-name="Ebreve.ss02" horiz-adv-x="614" 
d="M345 739q-91 0 -141 105l15 11q44 -67 113 -67q62 0 113 67l14 -10q-9 -16 -14 -24t-18.5 -25t-34 -31t-47.5 -26zM32 -1l-2 20l89 10v642l-89 10l2 20l133 -2l399 2l5 -179h-19l-60 149l-281 1v-293l160 2l40 111h20l-5 -123l5 -127h-20l-40 110l-160 2v-326l291 1
l64 153h22l-18 -183l-403 2z" />
    <glyph glyph-name="Ecaron.ss02" horiz-adv-x="614" 
d="M307 749l-114 111h31l101 -62l5 -5l6 5l101 62h31l-115 -111h-46zM32 -1l-2 20l89 10v642l-89 10l2 20l133 -2l399 2l5 -179h-19l-60 149l-281 1v-293l160 2l40 111h20l-5 -123l5 -127h-20l-40 110l-160 2v-326l291 1l64 153h22l-18 -183l-403 2z" />
    <glyph glyph-name="Ecircumflex.ss02" horiz-adv-x="614" 
d="M193 744l115 111h45l116 -111h-31l-101 61l-7 5l-5 -5l-101 -61h-31zM32 -1l-2 20l89 10v642l-89 10l2 20l133 -2l399 2l5 -179h-19l-60 149l-281 1v-293l160 2l40 111h20l-5 -123l5 -127h-20l-40 110l-160 2v-326l291 1l64 153h22l-18 -183l-403 2z" />
    <glyph glyph-name="Edieresis.ss02" horiz-adv-x="614" 
d="M206 763l-22 5l-4 44l7 35l54 5l22 -5l5 -42l-9 -37zM420 763l-22 5l-4 44l8 35l54 5l22 -5l4 -42l-8 -37zM32 -1l-2 20l89 10v642l-89 10l2 20l133 -2l399 2l5 -179h-19l-60 149l-281 1v-293l160 2l40 111h20l-5 -123l5 -127h-20l-40 110l-160 2v-326l291 1l64 153h22
l-18 -183l-403 2z" />
    <glyph glyph-name="Edotaccent.ss02" horiz-adv-x="614" 
d="M309 758l-21 5l-5 47l8 39l61 5l22 -5l5 -45l-9 -41zM32 -1l-2 20l89 10v642l-89 10l2 20l133 -2l399 2l5 -179h-19l-60 149l-281 1v-293l160 2l40 111h20l-5 -123l5 -127h-20l-40 110l-160 2v-326l291 1l64 153h22l-18 -183l-403 2z" />
    <glyph glyph-name="Egrave.ss02" horiz-adv-x="614" 
d="M315 746l-111 104h90l53 -104h-32zM32 -1l-2 20l89 10v642l-89 10l2 20l133 -2l399 2l5 -179h-19l-60 149l-281 1v-293l160 2l40 111h20l-5 -123l5 -127h-20l-40 110l-160 2v-326l291 1l64 153h22l-18 -183l-403 2z" />
    <glyph glyph-name="Emacron.ss02" horiz-adv-x="614" 
d="M191 786v38h280v-38h-280zM32 -1l-2 20l89 10v642l-89 10l2 20l133 -2l399 2l5 -179h-19l-60 149l-281 1v-293l160 2l40 111h20l-5 -123l5 -127h-20l-40 110l-160 2v-326l291 1l64 153h22l-18 -183l-403 2z" />
    <glyph glyph-name="Gbreve.ss02" horiz-adv-x="730" 
d="M417 739q-91 0 -141 105l15 11q44 -67 113 -67q62 0 113 67l14 -10q-9 -16 -14 -24t-18.5 -25t-34 -31t-47.5 -26zM385 -17q-146 0 -245.5 95.5t-99.5 262.5q0 163 96.5 260t264.5 116q70 0 134 -21t101 -46v-142h-27l-44 109q-67 69 -172 69q-116 0 -184 -91t-68 -242
q0 -137 71.5 -237.5t191.5 -100.5q47 0 86 19t61 44v211l-86 10l2 20l129 -1l107 1l2 -20l-64 -10v-235q-136 -61 -256 -71z" />
    <glyph glyph-name="Gcircumflex.ss02" horiz-adv-x="730" 
d="M265 744l115 111h45l116 -111h-31l-101 61l-7 5l-5 -5l-101 -61h-31zM385 -17q-146 0 -245.5 95.5t-99.5 262.5q0 163 96.5 260t264.5 116q70 0 134 -21t101 -46v-142h-27l-44 109q-67 69 -172 69q-116 0 -184 -91t-68 -242q0 -137 71.5 -237.5t191.5 -100.5q47 0 86 19
t61 44v211l-86 10l2 20l129 -1l107 1l2 -20l-64 -10v-235q-136 -61 -256 -71z" />
    <glyph glyph-name="Gdotaccent.ss02" horiz-adv-x="730" 
d="M381 758l-21 5l-5 47l8 39l61 5l22 -5l5 -45l-9 -41zM385 -17q-146 0 -245.5 95.5t-99.5 262.5q0 163 96.5 260t264.5 116q70 0 134 -21t101 -46v-142h-27l-44 109q-67 69 -172 69q-116 0 -184 -91t-68 -242q0 -137 71.5 -237.5t191.5 -100.5q47 0 86 19t61 44v211
l-86 10l2 20l129 -1l107 1l2 -20l-64 -10v-235q-136 -61 -256 -71z" />
    <glyph glyph-name="Hcircumflex.ss02" horiz-adv-x="751" 
d="M238 744l115 111h45l116 -111h-31l-101 61l-7 5l-5 -5l-101 -61h-31zM32 -1l-2 20l89 10v642l-89 10l2 20l132 -2l130 2l3 -20l-88 -10v-293h336v293l-90 10l2 20l133 -2l129 2l3 -20l-87 -10v-642l87 -10l-3 -20l-129 2l-133 -2l-2 20l90 10v319h-336v-319l88 -10
l-3 -20l-130 2z" />
    <glyph glyph-name="Iacute.ss02" horiz-adv-x="329" 
d="M144 746l54 104h89l-111 -104h-32zM32 -1l-2 21l89 9v642l-89 10l2 20l133 -2l132 2l2 -20l-90 -10v-642l90 -9l-2 -21l-132 2z" />
    <glyph glyph-name="Ibreve.ss02" horiz-adv-x="329" 
d="M179 739q-91 0 -141 105l15 11q44 -67 113 -67q62 0 113 67l14 -10q-9 -16 -14 -24t-18.5 -25t-34 -31t-47.5 -26zM32 -1l-2 21l89 9v642l-89 10l2 20l133 -2l132 2l2 -20l-90 -10v-642l90 -9l-2 -21l-132 2z" />
    <glyph glyph-name="Icircumflex.ss02" horiz-adv-x="329" 
d="M27 744l115 111h45l116 -111h-31l-101 61l-7 5l-5 -5l-101 -61h-31zM32 -1l-2 21l89 9v642l-89 10l2 20l133 -2l132 2l2 -20l-90 -10v-642l90 -9l-2 -21l-132 2z" />
    <glyph glyph-name="Idieresis.ss02" horiz-adv-x="329" 
d="M40 763l-22 5l-4 44l7 35l54 5l22 -5l5 -42l-9 -37zM254 763l-22 5l-4 44l8 35l54 5l22 -5l4 -42l-8 -37zM32 -1l-2 21l89 9v642l-89 10l2 20l133 -2l132 2l2 -20l-90 -10v-642l90 -9l-2 -21l-132 2z" />
    <glyph glyph-name="Idotaccent.ss02" horiz-adv-x="329" 
d="M143 758l-21 5l-5 47l8 39l61 5l22 -5l5 -45l-9 -41zM32 -1l-2 21l89 9v642l-89 10l2 20l133 -2l132 2l2 -20l-90 -10v-642l90 -9l-2 -21l-132 2z" />
    <glyph glyph-name="Igrave.ss02" horiz-adv-x="329" 
d="M149 746l-111 104h90l53 -104h-32zM32 -1l-2 21l89 9v642l-89 10l2 20l133 -2l132 2l2 -20l-90 -10v-642l90 -9l-2 -21l-132 2z" />
    <glyph glyph-name="Imacron.ss02" horiz-adv-x="329" 
d="M25 786v38h280v-38h-280zM32 -1l-2 21l89 9v642l-89 10l2 20l133 -2l132 2l2 -20l-90 -10v-642l90 -9l-2 -21l-132 2z" />
    <glyph glyph-name="Itilde.ss02" horiz-adv-x="329" 
d="M8 751l26 82l70 20l169 -58l34 61h15l-27 -82l-70 -20l-169 58l-34 -61h-14zM32 -1l-2 21l89 9v642l-89 10l2 20l133 -2l132 2l2 -20l-90 -10v-642l90 -9l-2 -21l-132 2z" />
    <glyph glyph-name="Jcircumflex.ss02" horiz-adv-x="329" 
d="M27 744l115 111h45l116 -111h-31l-101 61l-7 5l-5 -5l-101 -61h-31zM0 -175v81h110l6 21q12 35 12 165v579l-108 10l3 20l150 -2l129 2l3 -20l-87 -10v-578q0 -61 -9 -93.5t-35 -62.5l-98 -112h-76z" />
    <glyph glyph-name="Lacute.ss02" horiz-adv-x="570" 
d="M150 746l54 104h89l-111 -104h-32zM32 -1l-2 20l89 10v642l-89 10l2 20l134 -2l131 2l2 -20l-90 -10v-643l263 2l65 154h22l-17 -185l-376 2z" />
    <glyph glyph-name="Nacute.ss02" horiz-adv-x="718" 
d="M352 746l54 104h89l-111 -104h-32zM569 -4l-404 618l-8 33v-618l88 -10l-3 -20l-101 2l-109 -2l-2 20l89 10v638l-87 14l2 20l108 -2l66 2l363 -548l10 -28v546l-87 10l2 20l100 -2l109 2l3 -20l-90 -10v-675h-49z" />
    <glyph glyph-name="Ncaron.ss02" horiz-adv-x="718" 
d="M349 749l-114 111h31l101 -62l5 -5l6 5l101 62h31l-115 -111h-46zM569 -4l-404 618l-8 33v-618l88 -10l-3 -20l-101 2l-109 -2l-2 20l89 10v638l-87 14l2 20l108 -2l66 2l363 -548l10 -28v546l-87 10l2 20l100 -2l109 2l3 -20l-90 -10v-675h-49z" />
    <glyph glyph-name="Ntilde.ss02" horiz-adv-x="718" 
d="M216 751l26 82l70 20l169 -58l34 61h15l-27 -82l-70 -20l-169 58l-34 -61h-14zM569 -4l-404 618l-8 33v-618l88 -10l-3 -20l-101 2l-109 -2l-2 20l89 10v638l-87 14l2 20l108 -2l66 2l363 -548l10 -28v546l-87 10l2 20l100 -2l109 2l3 -20l-90 -10v-675h-49z" />
    <glyph glyph-name="Oacute.ss02" horiz-adv-x="765" 
d="M364 746l54 104h89l-111 -104h-32zM373 -17q-146 0 -239.5 101t-93.5 252q0 328 352 381q146 0 239.5 -100.5t93.5 -252.5q0 -328 -352 -381zM401 20q107 0 165.5 88t58.5 226q0 91 -28.5 168t-89 127.5t-142.5 50.5q-107 0 -165.5 -88t-58.5 -226q0 -142 69.5 -244
t190.5 -102z" />
    <glyph glyph-name="Obreve.ss02" horiz-adv-x="765" 
d="M399 739q-91 0 -141 105l15 11q44 -67 113 -67q62 0 113 67l14 -10q-9 -16 -14 -24t-18.5 -25t-34 -31t-47.5 -26zM373 -17q-146 0 -239.5 101t-93.5 252q0 328 352 381q146 0 239.5 -100.5t93.5 -252.5q0 -328 -352 -381zM401 20q107 0 165.5 88t58.5 226
q0 91 -28.5 168t-89 127.5t-142.5 50.5q-107 0 -165.5 -88t-58.5 -226q0 -142 69.5 -244t190.5 -102z" />
    <glyph glyph-name="Ocircumflex.ss02" horiz-adv-x="765" 
d="M247 744l115 111h45l116 -111h-31l-101 61l-7 5l-5 -5l-101 -61h-31zM373 -17q-146 0 -239.5 101t-93.5 252q0 328 352 381q146 0 239.5 -100.5t93.5 -252.5q0 -328 -352 -381zM401 20q107 0 165.5 88t58.5 226q0 91 -28.5 168t-89 127.5t-142.5 50.5q-107 0 -165.5 -88
t-58.5 -226q0 -142 69.5 -244t190.5 -102z" />
    <glyph glyph-name="Odieresis.ss02" horiz-adv-x="765" 
d="M260 763l-22 5l-4 44l7 35l54 5l22 -5l5 -42l-9 -37zM474 763l-22 5l-4 44l8 35l54 5l22 -5l4 -42l-8 -37zM373 -17q-146 0 -239.5 101t-93.5 252q0 328 352 381q146 0 239.5 -100.5t93.5 -252.5q0 -328 -352 -381zM401 20q107 0 165.5 88t58.5 226q0 91 -28.5 168
t-89 127.5t-142.5 50.5q-107 0 -165.5 -88t-58.5 -226q0 -142 69.5 -244t190.5 -102z" />
    <glyph glyph-name="Ograve.ss02" horiz-adv-x="765" 
d="M369 746l-111 104h90l53 -104h-32zM373 -17q-146 0 -239.5 101t-93.5 252q0 328 352 381q146 0 239.5 -100.5t93.5 -252.5q0 -328 -352 -381zM401 20q107 0 165.5 88t58.5 226q0 91 -28.5 168t-89 127.5t-142.5 50.5q-107 0 -165.5 -88t-58.5 -226q0 -142 69.5 -244
t190.5 -102z" />
    <glyph glyph-name="Ohungarumlaut.ss02" horiz-adv-x="765" 
d="M288 751l64 99h98l-130 -99h-32zM444 751l65 99h97l-130 -99h-32zM373 -17q-146 0 -239.5 101t-93.5 252q0 328 352 381q146 0 239.5 -100.5t93.5 -252.5q0 -328 -352 -381zM401 20q107 0 165.5 88t58.5 226q0 91 -28.5 168t-89 127.5t-142.5 50.5q-107 0 -165.5 -88
t-58.5 -226q0 -142 69.5 -244t190.5 -102z" />
    <glyph glyph-name="Omacron.ss02" horiz-adv-x="765" 
d="M245 786v38h280v-38h-280zM373 -17q-146 0 -239.5 101t-93.5 252q0 328 352 381q146 0 239.5 -100.5t93.5 -252.5q0 -328 -352 -381zM401 20q107 0 165.5 88t58.5 226q0 91 -28.5 168t-89 127.5t-142.5 50.5q-107 0 -165.5 -88t-58.5 -226q0 -142 69.5 -244t190.5 -102z
" />
    <glyph glyph-name="Oslashacute.ss02" horiz-adv-x="765" 
d="M505 850l-111 -104h-32l54 104h89zM619 629q106 -101 106 -265q0 -328 -352 -381q-115 0 -203 67l-50 -65h-35l64 83q-109 103 -109 268q0 328 352 381q120 0 207 -70l53 68h33zM141 366q0 -135 61 -231l349 450q-72 95 -186 95q-107 0 -165.5 -88t-58.5 -226zM401 20
q107 0 165.5 88t58.5 226q0 133 -59 228l-348 -450q71 -92 183 -92z" />
    <glyph glyph-name="Otilde.ss02" horiz-adv-x="765" 
d="M228 751l26 82l70 20l169 -58l34 61h15l-27 -82l-70 -20l-169 58l-34 -61h-14zM373 -17q-146 0 -239.5 101t-93.5 252q0 328 352 381q146 0 239.5 -100.5t93.5 -252.5q0 -328 -352 -381zM401 20q107 0 165.5 88t58.5 226q0 91 -28.5 168t-89 127.5t-142.5 50.5
q-107 0 -165.5 -88t-58.5 -226q0 -142 69.5 -244t190.5 -102z" />
    <glyph glyph-name="Racute.ss02" horiz-adv-x="660" 
d="M422 850l-111 -104h-32l54 104h89zM601 28l54 -10l-2 -19l-82 2l-62 -2l-214 323l-5 5h-81v-298l84 -10l-2 -20l-127 2l-132 -2l-2 20l89 10v642l-89 10l2 20l134 -2l176 2q96 0 158.5 -43t62.5 -131q0 -148 -227 -196l81 -32zM209 354h68q87 0 136.5 46t49.5 120
q0 76 -42 115.5t-110 41.5l-102 -6v-317z" />
    <glyph glyph-name="Rcaron.ss02" horiz-adv-x="660" 
d="M322 749h-46l-114 111h31l101 -62l5 -5l6 5l101 62h31zM601 28l54 -10l-2 -19l-82 2l-62 -2l-214 323l-5 5h-81v-298l84 -10l-2 -20l-127 2l-132 -2l-2 20l89 10v642l-89 10l2 20l134 -2l176 2q96 0 158.5 -43t62.5 -131q0 -148 -227 -196l81 -32zM209 354h68
q87 0 136.5 46t49.5 120q0 76 -42 115.5t-110 41.5l-102 -6v-317z" />
    <glyph glyph-name="Sacute.ss02" horiz-adv-x="540" 
d="M268 746l54 104h89l-111 -104h-32zM255 -17q-115 0 -201 63l-11 143h37l38 -95q62 -71 155 -71q66 0 104.5 37t38.5 97q0 49 -28.5 84t-85.5 64l-118 58q-60 30 -91.5 65.5t-31.5 93.5q0 76 60.5 125.5t164.5 69.5q102 0 182 -51v-142h-26l-38 105q-55 53 -130 53
q-61 0 -97 -32.5t-36 -86.5q0 -42 25.5 -71.5t76.5 -54.5l114 -56q67 -32 102.5 -74t35.5 -106q0 -72 -56 -130t-184 -88z" />
    <glyph glyph-name="Scaron.ss02" horiz-adv-x="540" 
d="M265 749l-114 111h31l101 -62l5 -5l6 5l101 62h31l-115 -111h-46zM255 -17q-115 0 -201 63l-11 143h37l38 -95q62 -71 155 -71q66 0 104.5 37t38.5 97q0 49 -28.5 84t-85.5 64l-118 58q-60 30 -91.5 65.5t-31.5 93.5q0 76 60.5 125.5t164.5 69.5q102 0 182 -51v-142h-26
l-38 105q-55 53 -130 53q-61 0 -97 -32.5t-36 -86.5q0 -42 25.5 -71.5t76.5 -54.5l114 -56q67 -32 102.5 -74t35.5 -106q0 -72 -56 -130t-184 -88z" />
    <glyph glyph-name="Scircumflex.ss02" horiz-adv-x="540" 
d="M151 744l115 111h45l116 -111h-31l-101 61l-7 5l-5 -5l-101 -61h-31zM255 -17q-115 0 -201 63l-11 143h37l38 -95q62 -71 155 -71q66 0 104.5 37t38.5 97q0 49 -28.5 84t-85.5 64l-118 58q-60 30 -91.5 65.5t-31.5 93.5q0 76 60.5 125.5t164.5 69.5q102 0 182 -51v-142
h-26l-38 105q-55 53 -130 53q-61 0 -97 -32.5t-36 -86.5q0 -42 25.5 -71.5t76.5 -54.5l114 -56q67 -32 102.5 -74t35.5 -106q0 -72 -56 -130t-184 -88z" />
    <glyph glyph-name="Tcaron.ss02" horiz-adv-x="585" 
d="M269 749l-114 111h31l101 -62l5 -5l6 5l101 62h31l-115 -111h-46zM143 -1l-2 20l106 10v643l-157 -1l-56 -154h-21v184l279 -2l280 2v-184h-22l-55 154l-158 1v-643l104 -10l-2 -20l-146 2z" />
    <glyph glyph-name="Uacute.ss02" horiz-adv-x="692" 
d="M345 746l54 104h89l-111 -104h-32zM355 -17q-253 0 -253 264v424l-89 10l2 20l133 -2l131 2l3 -20l-87 -10v-437q0 -96 46 -152.5t135 -56.5q79 0 124 57.5t45 152.5v436l-90 10l3 20l112 -2l107 2l3 -20l-87 -10v-429q0 -104 -52 -168.5t-186 -90.5z" />
    <glyph glyph-name="Ubreve.ss02" horiz-adv-x="692" 
d="M380 739q-91 0 -141 105l15 11q44 -67 113 -67q62 0 113 67l14 -10q-9 -16 -14 -24t-18.5 -25t-34 -31t-47.5 -26zM355 -17q-253 0 -253 264v424l-89 10l2 20l133 -2l131 2l3 -20l-87 -10v-437q0 -96 46 -152.5t135 -56.5q79 0 124 57.5t45 152.5v436l-90 10l3 20l112 -2
l107 2l3 -20l-87 -10v-429q0 -104 -52 -168.5t-186 -90.5z" />
    <glyph glyph-name="Ucircumflex.ss02" horiz-adv-x="692" 
d="M228 744l115 111h45l116 -111h-31l-101 61l-7 5l-5 -5l-101 -61h-31zM355 -17q-253 0 -253 264v424l-89 10l2 20l133 -2l131 2l3 -20l-87 -10v-437q0 -96 46 -152.5t135 -56.5q79 0 124 57.5t45 152.5v436l-90 10l3 20l112 -2l107 2l3 -20l-87 -10v-429
q0 -104 -52 -168.5t-186 -90.5z" />
    <glyph glyph-name="Udieresis.ss02" horiz-adv-x="692" 
d="M241 763l-22 5l-4 44l7 35l54 5l22 -5l5 -42l-9 -37zM455 763l-22 5l-4 44l8 35l54 5l22 -5l4 -42l-8 -37zM355 -17q-253 0 -253 264v424l-89 10l2 20l133 -2l131 2l3 -20l-87 -10v-437q0 -96 46 -152.5t135 -56.5q79 0 124 57.5t45 152.5v436l-90 10l3 20l112 -2l107 2
l3 -20l-87 -10v-429q0 -104 -52 -168.5t-186 -90.5z" />
    <glyph glyph-name="Ugrave.ss02" horiz-adv-x="692" 
d="M350 746l-111 104h90l53 -104h-32zM355 -17q-253 0 -253 264v424l-89 10l2 20l133 -2l131 2l3 -20l-87 -10v-437q0 -96 46 -152.5t135 -56.5q79 0 124 57.5t45 152.5v436l-90 10l3 20l112 -2l107 2l3 -20l-87 -10v-429q0 -104 -52 -168.5t-186 -90.5z" />
    <glyph glyph-name="Uhungarumlaut.ss02" horiz-adv-x="692" 
d="M269 751l64 99h98l-130 -99h-32zM425 751l65 99h97l-130 -99h-32zM355 -17q-253 0 -253 264v424l-89 10l2 20l133 -2l131 2l3 -20l-87 -10v-437q0 -96 46 -152.5t135 -56.5q79 0 124 57.5t45 152.5v436l-90 10l3 20l112 -2l107 2l3 -20l-87 -10v-429q0 -104 -52 -168.5
t-186 -90.5z" />
    <glyph glyph-name="Umacron.ss02" horiz-adv-x="692" 
d="M226 786v38h280v-38h-280zM355 -17q-253 0 -253 264v424l-89 10l2 20l133 -2l131 2l3 -20l-87 -10v-437q0 -96 46 -152.5t135 -56.5q79 0 124 57.5t45 152.5v436l-90 10l3 20l112 -2l107 2l3 -20l-87 -10v-429q0 -104 -52 -168.5t-186 -90.5z" />
    <glyph glyph-name="Uring.ss02" horiz-adv-x="692" 
d="M366 718q-31 0 -54.5 16.5t-23.5 49.5q0 21 12.5 35t26 19.5t39.5 13.5q31 0 54.5 -16.5t23.5 -48.5q0 -21 -12.5 -35.5t-25.5 -19.5t-40 -14zM366 740q20 0 33.5 13t13.5 33q0 19 -13.5 32t-33.5 13t-33.5 -13t-13.5 -32q0 -20 13.5 -33t33.5 -13zM355 -17
q-253 0 -253 264v424l-89 10l2 20l133 -2l131 2l3 -20l-87 -10v-437q0 -96 46 -152.5t135 -56.5q79 0 124 57.5t45 152.5v436l-90 10l3 20l112 -2l107 2l3 -20l-87 -10v-429q0 -104 -52 -168.5t-186 -90.5z" />
    <glyph glyph-name="Utilde.ss02" horiz-adv-x="692" 
d="M209 751l26 82l70 20l169 -58l34 61h15l-27 -82l-70 -20l-169 58l-34 -61h-14zM355 -17q-253 0 -253 264v424l-89 10l2 20l133 -2l131 2l3 -20l-87 -10v-437q0 -96 46 -152.5t135 -56.5q79 0 124 57.5t45 152.5v436l-90 10l3 20l112 -2l107 2l3 -20l-87 -10v-429
q0 -104 -52 -168.5t-186 -90.5z" />
    <glyph glyph-name="Wacute.ss02" horiz-adv-x="981" 
d="M471 746l54 104h89l-111 -104h-32zM295 -8l-223 680l-62 9l3 20l113 -2l125 2l3 -20l-87 -10l169 -537l2 -27l132 431l-44 134l-65 9l2 20l118 -2l124 2l3 -20l-86 -10l169 -537l1 -26l176 564l-90 9l3 20l107 -2l80 2l3 -20l-63 -9l-213 -664l-46 -16l-155 470l-1 28
l-153 -482z" />
    <glyph glyph-name="Wcircumflex.ss02" horiz-adv-x="981" 
d="M354 744l115 111h45l116 -111h-31l-101 61l-7 5l-5 -5l-101 -61h-31zM295 -8l-223 680l-62 9l3 20l113 -2l125 2l3 -20l-87 -10l169 -537l2 -27l132 431l-44 134l-65 9l2 20l118 -2l124 2l3 -20l-86 -10l169 -537l1 -26l176 564l-90 9l3 20l107 -2l80 2l3 -20l-63 -9
l-213 -664l-46 -16l-155 470l-1 28l-153 -482z" />
    <glyph glyph-name="Wdieresis.ss02" horiz-adv-x="981" 
d="M367 763l-22 5l-4 44l7 35l54 5l22 -5l5 -42l-9 -37zM581 763l-22 5l-4 44l8 35l54 5l22 -5l4 -42l-8 -37zM295 -8l-223 680l-62 9l3 20l113 -2l125 2l3 -20l-87 -10l169 -537l2 -27l132 431l-44 134l-65 9l2 20l118 -2l124 2l3 -20l-86 -10l169 -537l1 -26l176 564
l-90 9l3 20l107 -2l80 2l3 -20l-63 -9l-213 -664l-46 -16l-155 470l-1 28l-153 -482z" />
    <glyph glyph-name="Wgrave.ss02" horiz-adv-x="981" 
d="M476 746l-111 104h90l53 -104h-32zM295 -8l-223 680l-62 9l3 20l113 -2l125 2l3 -20l-87 -10l169 -537l2 -27l132 431l-44 134l-65 9l2 20l118 -2l124 2l3 -20l-86 -10l169 -537l1 -26l176 564l-90 9l3 20l107 -2l80 2l3 -20l-63 -9l-213 -664l-46 -16l-155 470l-1 28
l-153 -482z" />
    <glyph glyph-name="Yacute.ss02" horiz-adv-x="696" 
d="M356 746l54 104h89l-111 -104h-32zM194 -1l-3 20l117 10v245l-226 399l-77 8l3 20l131 -2l132 2l3 -20l-89 -9l190 -338l5 -19l189 357l-95 9l2 20l116 -2l96 2l3 -19l-78 -8l-216 -393l1 -252l114 -10l-2 -20l-156 2z" />
    <glyph glyph-name="Ycircumflex.ss02" horiz-adv-x="696" 
d="M239 744l115 111h45l116 -111h-31l-101 61l-7 5l-5 -5l-101 -61h-31zM194 -1l-3 20l117 10v245l-226 399l-77 8l3 20l131 -2l132 2l3 -20l-89 -9l190 -338l5 -19l189 357l-95 9l2 20l116 -2l96 2l3 -19l-78 -8l-216 -393l1 -252l114 -10l-2 -20l-156 2z" />
    <glyph glyph-name="Ydieresis.ss02" horiz-adv-x="696" 
d="M252 763l-22 5l-4 44l7 35l54 5l22 -5l5 -42l-9 -37zM466 763l-22 5l-4 44l8 35l54 5l22 -5l4 -42l-8 -37zM194 -1l-3 20l117 10v245l-226 399l-77 8l3 20l131 -2l132 2l3 -20l-89 -9l190 -338l5 -19l189 357l-95 9l2 20l116 -2l96 2l3 -19l-78 -8l-216 -393l1 -252
l114 -10l-2 -20l-156 2z" />
    <glyph glyph-name="Ygrave.ss02" horiz-adv-x="696" 
d="M361 746l-111 104h90l53 -104h-32zM194 -1l-3 20l117 10v245l-226 399l-77 8l3 20l131 -2l132 2l3 -20l-89 -9l190 -338l5 -19l189 357l-95 9l2 20l116 -2l96 2l3 -19l-78 -8l-216 -393l1 -252l114 -10l-2 -20l-156 2z" />
    <glyph glyph-name="Zacute.ss02" horiz-adv-x="564" 
d="M261 746l54 104h89l-111 -104h-32zM25 0l-5 28l396 627l19 18l-299 -3l-62 -151h-24v181h476l5 -25l-397 -630l-19 -18l322 3l72 157h27l-18 -187h-493z" />
    <glyph glyph-name="Zcaron.ss02" horiz-adv-x="564" 
d="M258 749l-114 111h31l101 -62l5 -5l6 5l101 62h31l-115 -111h-46zM25 0l-5 28l396 627l19 18l-299 -3l-62 -151h-24v181h476l5 -25l-397 -630l-19 -18l322 3l72 157h27l-18 -187h-493z" />
    <glyph glyph-name="Zdotaccent.ss02" horiz-adv-x="564" 
d="M260 758l-21 5l-5 47l8 39l61 5l22 -5l5 -45l-9 -41zM25 0l-5 28l396 627l19 18l-299 -3l-62 -151h-24v181h476l5 -25l-397 -630l-19 -18l322 3l72 157h27l-18 -187h-493z" />
    <glyph glyph-name="aogonek.ss01" horiz-adv-x="452" 
d="M296 -95q0 -67 93 -67l-1 -16q-87 0 -120.5 22t-33.5 71v18l86 66l-24 78l-129 -92q-62 0 -99.5 32.5t-37.5 88.5q0 53 43 96l220 73v53q0 27 -2 42.5t-9 32t-24 24t-44 7.5q-26 0 -76 -16l-21 -89h-72v70l176 81q93 0 122.5 -33t29.5 -121v-207q0 -46 18 -84l53 3l3 -19
l-96 -18l-55 -79v-17zM293 100v152l-147 -58q-34 -31 -34 -73q0 -37 19 -57t48 -20q36 0 76 30z" />
    <glyph glyph-name="ccedilla.ss01" horiz-adv-x="437" 
d="M236 -37q71 -9 71 -53q0 -43 -78 -67l-60 -19h-42l24 32h79q29 14 29 39q0 17 -22.5 26.5t-53.5 10.5l49 54q-87 8 -140.5 69.5t-53.5 163.5q0 111 66.5 176.5t166.5 84.5q30 0 70 -15.5t62 -34.5v-89h-63l-32 92q-25 13 -53 13q-59 0 -98 -50.5t-39 -140.5
q0 -89 45 -147.5t119 -58.5q57 0 121 47l9 -20q-67 -55 -156 -91h-1z" />
    <glyph glyph-name="eogonek.ss01" horiz-adv-x="463" 
d="M247 -95q0 -67 93 -67l-1 -16q-87 0 -120.5 22t-33.5 71v18l68 52q-91 2 -154.5 64.5t-63.5 171.5t59.5 173.5t158.5 85.5q171 0 171 -184v-31h-310v-3q0 -99 48 -155.5t130 -56.5q56 0 126 44l10 -20q-62 -45 -125 -72l-56 -80v-17zM232 445q-50 0 -81.5 -41.5
t-35.5 -114.5l219 4v3q0 73 -21 111t-81 38z" />
    <glyph glyph-name="g.ss01" horiz-adv-x="494" 
d="M226 -183q-103 0 -153 30.5t-50 96.5v17l111 69q-48 14 -65 38.5t-17 60.5v7l98 59q-45 14 -71.5 46t-26.5 74q0 118 184 165q105 0 149 -63l52 68h49v-79h-71l-18 -11q10 -25 10 -48q0 -119 -184 -164q-23 0 -48 5l-51 -44q0 -23 14.5 -36t38.5 -13h173q57 0 86 -25
t29 -67q0 -55 -66 -106t-173 -80zM236 216q43 0 66 27.5t23 77.5q0 29 -7.5 55.5t-32 49t-62.5 22.5q-42 0 -65 -28.5t-23 -78.5q0 -47 23.5 -86t77.5 -39zM229 -140q65 0 113 33.5t48 78.5q0 28 -20 40.5t-68 12.5h-147q-33 -27 -43.5 -44.5t-10.5 -36.5q0 -37 35 -61
t93 -23z" />
    <glyph glyph-name="gbreve.ss01" horiz-adv-x="494" 
d="M259 561q-54 0 -96 38t-58 89l17 12q49 -76 123 -76q29 0 54.5 14t37 27t27.5 36l19 -12q-39 -81 -124 -128zM226 -183q-103 0 -153 30.5t-50 96.5v17l111 69q-48 14 -65 38.5t-17 60.5v7l98 59q-45 14 -71.5 46t-26.5 74q0 118 184 165q105 0 149 -63l52 68h49v-79h-71
l-18 -11q10 -25 10 -48q0 -119 -184 -164q-23 0 -48 5l-51 -44q0 -23 14.5 -36t38.5 -13h173q57 0 86 -25t29 -67q0 -55 -66 -106t-173 -80zM236 216q43 0 66 27.5t23 77.5q0 29 -7.5 55.5t-32 49t-62.5 22.5q-42 0 -65 -28.5t-23 -78.5q0 -47 23.5 -86t77.5 -39zM229 -140
q65 0 113 33.5t48 78.5q0 28 -20 40.5t-68 12.5h-147q-33 -27 -43.5 -44.5t-10.5 -36.5q0 -37 35 -61t93 -23z" />
    <glyph glyph-name="gcircumflex.ss01" horiz-adv-x="494" 
d="M111 547l116 163h40l116 -163h-25l-102 85l-9 14l-9 -14l-102 -85h-25zM226 -183q-103 0 -153 30.5t-50 96.5v17l111 69q-48 14 -65 38.5t-17 60.5v7l98 59q-45 14 -71.5 46t-26.5 74q0 118 184 165q105 0 149 -63l52 68h49v-79h-71l-18 -11q10 -25 10 -48
q0 -119 -184 -164q-23 0 -48 5l-51 -44q0 -23 14.5 -36t38.5 -13h173q57 0 86 -25t29 -67q0 -55 -66 -106t-173 -80zM236 216q43 0 66 27.5t23 77.5q0 29 -7.5 55.5t-32 49t-62.5 22.5q-42 0 -65 -28.5t-23 -78.5q0 -47 23.5 -86t77.5 -39zM229 -140q65 0 113 33.5t48 78.5
q0 28 -20 40.5t-68 12.5h-147q-33 -27 -43.5 -44.5t-10.5 -36.5q0 -37 35 -61t93 -23z" />
    <glyph glyph-name="gcommaaccent.ss01" horiz-adv-x="494" 
d="M200 547v72l72 95l21 -6l-37 -87l31 -30v-44h-87zM226 -183q-103 0 -153 30.5t-50 96.5v17l111 69q-48 14 -65 38.5t-17 60.5v7l98 59q-45 14 -71.5 46t-26.5 74q0 118 184 165q105 0 149 -63l52 68h49v-79h-71l-18 -11q10 -25 10 -48q0 -119 -184 -164q-23 0 -48 5
l-51 -44q0 -23 14.5 -36t38.5 -13h173q57 0 86 -25t29 -67q0 -55 -66 -106t-173 -80zM236 216q43 0 66 27.5t23 77.5q0 29 -7.5 55.5t-32 49t-62.5 22.5q-42 0 -65 -28.5t-23 -78.5q0 -47 23.5 -86t77.5 -39zM229 -140q65 0 113 33.5t48 78.5q0 28 -20 40.5t-68 12.5h-147
q-33 -27 -43.5 -44.5t-10.5 -36.5q0 -37 35 -61t93 -23z" />
    <glyph glyph-name="gdotaccent.ss01" horiz-adv-x="494" 
d="M223 587l-23 5l-5 51l8 42l67 5l24 -5l5 -50l-10 -43zM226 -183q-103 0 -153 30.5t-50 96.5v17l111 69q-48 14 -65 38.5t-17 60.5v7l98 59q-45 14 -71.5 46t-26.5 74q0 118 184 165q105 0 149 -63l52 68h49v-79h-71l-18 -11q10 -25 10 -48q0 -119 -184 -164q-23 0 -48 5
l-51 -44q0 -23 14.5 -36t38.5 -13h173q57 0 86 -25t29 -67q0 -55 -66 -106t-173 -80zM236 216q43 0 66 27.5t23 77.5q0 29 -7.5 55.5t-32 49t-62.5 22.5q-42 0 -65 -28.5t-23 -78.5q0 -47 23.5 -86t77.5 -39zM229 -140q65 0 113 33.5t48 78.5q0 28 -20 40.5t-68 12.5h-147
q-33 -27 -43.5 -44.5t-10.5 -36.5q0 -37 35 -61t93 -23z" />
    <glyph glyph-name="ij.ss01" horiz-adv-x="532" 
d="M120 593l-24 5l-5 50l9 42l63 5l25 -5l5 -49l-9 -43zM398 593l-24 5l-5 50l9 42l63 5l25 -5l5 -49l-9 -43zM37 -1l-3 20l70 8v400l-71 -12l-3 20l127 35l27 2v-445l72 -8l-2 -20l-109 2zM257 -176v78h103l6 18q14 37 14 103v404l-71 -12l-3 20l127 35l27 2v-432
q0 -62 -41 -110l-87 -106h-75z" />
    <glyph glyph-name="iogonek.ss01" horiz-adv-x="276" 
d="M120 593l-24 5l-5 50l9 42l63 5l25 -5l5 -49l-9 -43zM160 1l-55 -79v-17q0 -67 93 -67l-1 -16q-87 0 -120.5 22t-33.5 71v18l89 68l-95 -2l-3 20l70 8v400l-71 -12l-3 20l127 35l27 2v-445l72 -8l-2 -20z" />
    <glyph glyph-name="j.ss01" horiz-adv-x="256" 
d="M122 593l-24 5l-5 50l9 42l63 5l25 -5l5 -49l-9 -43zM-19 -176v78h103l6 18q14 37 14 103v404l-71 -12l-3 20l127 35l27 2v-432q0 -62 -41 -110l-87 -106h-75z" />
    <glyph glyph-name="uni0237.ss01" horiz-adv-x="256" 
d="M-19 -176v78h103l6 18q14 37 14 103v404l-71 -12l-3 20l127 35l27 2v-432q0 -62 -41 -110l-87 -106h-75z" />
    <glyph glyph-name="kcommaaccent.ss01" horiz-adv-x="527" 
d="M35 -1l-2 20l69 8v640l-68 -8l-4 20l125 33l27 2v-450l14 6l196 169l-48 7v20l79 -2l75 2l2 -20l-60 -7l-210 -173l40 -2l206 -238l46 -7l-2 -20l-81 2l-54 -2l-197 242l-6 11v-225l63 -8l-3 -20l-96 2zM253 -181l-17 8l37 59l-36 23v40h85v-64z" />
    <glyph glyph-name="lcommaaccent.ss01" horiz-adv-x="270" 
d="M36 -1l-3 20l70 8v640l-69 -8l-4 20l125 33l28 2v-687l72 -8l-3 -20l-108 2zM111 -181l-17 8l37 59l-36 23v40h85v-64z" />
    <glyph glyph-name="ncommaaccent.ss01" horiz-adv-x="572" 
d="M37 -1l-3 20l70 8v400l-71 -12l-3 20l126 35l24 1l3 -96l165 105q79 0 104 -34.5t25 -120.5v-298l78 -8l-2 -20l-113 2l-93 -2l-2 20l51 8v306q0 45 -16.5 64.5t-50.5 19.5q-18 0 -38.5 -7.5t-31 -14t-39.5 -24.5l-36 -23v-321l54 -8l-2 -20l-89 2zM262 -181l-17 8l37 59
l-36 23v40h85v-64z" />
    <glyph glyph-name="eng.ss01" horiz-adv-x="517" 
d="M273 -175v82h104l7 17q13 44 13 105v304q0 45 -17 64.5t-51 19.5q-18 0 -38.5 -7.5t-31 -14t-39.5 -24.5l-36 -23v-321l54 -8l-2 -20l-92 2l-107 -2l-3 20l70 8v400l-71 -12l-3 20l126 35l24 1l3 -96l165 105q79 0 104 -34.5t25 -120.5v-285q0 -32 -11 -54.5t-39 -59.5
l-78 -101h-76z" />
    <glyph glyph-name="p.ss01" horiz-adv-x="531" 
d="M21 -171l-2 20l70 8v571l-71 -12l-3 19l126 35l24 1l3 -88l137 97q88 0 139.5 -62t51.5 -162q0 -114 -61 -182t-175 -89q-55 0 -91 27v-155l105 -8l-3 -20l-139 2zM275 17q61 0 98.5 56.5t37.5 149.5q0 86 -31.5 141t-85.5 55q-16 0 -33.5 -7t-28 -13.5t-37.5 -24.5
l-26 -19v-283q35 -55 106 -55z" />
    <glyph glyph-name="thorn.ss01" horiz-adv-x="534" 
d="M21 -171l-2 20l70 8v813l-71 -12l-3 19l127 35l27 2v-331l136 97q88 0 139.5 -62t51.5 -162q0 -114 -61 -182t-175 -89q-55 0 -91 27v-155l105 -8l-2 -20l-141 2zM276 17q60 0 97.5 56.5t37.5 149.5q0 86 -31.5 141t-84.5 55q-17 0 -34.5 -7t-28 -13.5t-37.5 -24.5
l-26 -19v-283q35 -55 107 -55z" />
    <glyph glyph-name="q.ss01" horiz-adv-x="518" 
d="M260 -171l-2 20l105 8v217l-131 -89q-86 0 -141.5 61.5t-55.5 164.5q0 113 67 183.5t178 85.5q62 0 124 -38l28 34h10v-619l71 -8l-2 -20l-110 2zM243 48q35 0 76 26l44 29v282q-28 64 -97 64q-64 0 -105 -53.5t-41 -151.5q0 -86 33.5 -141t89.5 -55z" />
    <glyph glyph-name="rcommaaccent.ss01" horiz-adv-x="374" 
d="M37 -1l-3 20l70 8v400l-71 -12l-3 20l127 35l22 1l1 -139l110 143h68v-88h-88q-8 -1 -34 -28t-42 -47l-10 -12v-271l97 -8l-2 -22l-135 2zM123 -181l-17 8l37 59l-36 23v40h85v-64z" />
    <glyph glyph-name="scedilla.ss01" horiz-adv-x="394" 
d="M360 129q-1 -101 -160 -141l-22 -25q71 -9 71 -53q0 -43 -78 -67l-60 -19h-42l24 32h79q29 14 29 39q0 17 -22.5 26.5t-53.5 10.5l49 53q-70 5 -135 45l-9 116h35l42 -93q43 -34 90 -34q42 0 64 22t22 55q0 34 -17.5 53.5t-62.5 44.5l-77 44q-82 46 -82 113q0 48 41 78.5
t123 50.5q75 0 139 -41v-109h-30l-34 88q-35 30 -87 30q-33 0 -55.5 -18t-22.5 -48q0 -27 17.5 -44.5t57.5 -40.5l78 -43q49 -28 69 -56t20 -69z" />
    <glyph glyph-name="scommaaccent.ss01" horiz-adv-x="394" 
d="M187 -15q-73 0 -148 45l-9 116h35l42 -93q43 -34 90 -34q42 0 64 22t22 55q0 34 -17.5 53.5t-62.5 44.5l-77 44q-82 46 -82 113q0 48 41 78.5t123 50.5q75 0 139 -41v-109h-30l-34 88q-35 30 -87 30q-33 0 -55.5 -18t-22.5 -48q0 -27 17.5 -44.5t57.5 -40.5l78 -43
q49 -28 69 -56t20 -69q-1 -56 -44.5 -90t-128.5 -54zM173 -181l-17 8l37 59l-36 23v40h85v-64z" />
    <glyph glyph-name="uni0163.ss01" horiz-adv-x="334" 
d="M177 -37q71 -9 71 -53q0 -43 -78 -67l-60 -19h-42l24 32h79q29 14 29 39q0 17 -22.5 26.5t-53.5 10.5l50 56q-81 13 -81 123v323h-88v8l17 21h73v72l66 54h11v-130h151v-25h-150v-323q0 -31 16 -48t41 -17q38 0 86 26l10 -19l-120 -68h-10z" />
    <glyph glyph-name="uni021B.ss01" horiz-adv-x="334" 
d="M206 -15q-62 0 -87.5 32t-25.5 94v323h-88v8l17 21h73v72l66 54h11v-130h151v-25h-150v-323q0 -31 16 -48t41 -17q38 0 86 26l10 -19zM172 -181l-17 8l37 59l-36 23v40h85v-64z" />
    <glyph glyph-name="uogonek.ss01" horiz-adv-x="548" 
d="M365 -95q0 -67 93 -67l-1 -16q-87 0 -120.5 22t-33.5 71v18l93 71l-20 80l-159 -99q-81 0 -106.5 34.5t-25.5 120.5v288l-72 -7l-3 22l128 25l27 2v-339q0 -84 67 -84q38 0 105 45l37 22v314l-67 -7l-2 22l122 25l26 2v-342q0 -44 13 -92l54 3l3 -19l-104 -21l-54 -77
v-17z" />
    <glyph glyph-name="y.ss01" horiz-adv-x="529" 
d="M88 -175v87h91l106 130l-56 -20l-163 416l-61 8l3 20l106 -2l102 2l2 -20l-63 -8l128 -334l4 -36l131 370l-59 8l2 20l83 -2l78 2l2 -20l-64 -8l-153 -395l-116 -218h-103z" />
    <glyph glyph-name="yacute.ss01" horiz-adv-x="529" 
d="M273 547l55 163h93l-127 -163h-21zM88 -175v87h91l106 130l-56 -20l-163 416l-61 8l3 20l106 -2l102 2l2 -20l-63 -8l128 -334l4 -36l131 370l-59 8l2 20l83 -2l78 2l2 -20l-64 -8l-153 -395l-116 -218h-103z" />
    <glyph glyph-name="ycircumflex.ss01" horiz-adv-x="529" 
d="M145 547l116 163h40l116 -163h-25l-102 85l-9 14l-9 -14l-102 -85h-25zM88 -175v87h91l106 130l-56 -20l-163 416l-61 8l3 20l106 -2l102 2l2 -20l-63 -8l128 -334l4 -36l131 370l-59 8l2 20l83 -2l78 2l2 -20l-64 -8l-153 -395l-116 -218h-103z" />
    <glyph glyph-name="ydieresis.ss01" horiz-adv-x="529" 
d="M177 586l-22 5l-4 44l8 36l54 4l22 -4l5 -43l-9 -37zM348 586l-22 5l-5 44l8 36l55 4l22 -4l5 -43l-9 -37zM88 -175v87h91l106 130l-56 -20l-163 416l-61 8l3 20l106 -2l102 2l2 -20l-63 -8l128 -334l4 -36l131 370l-59 8l2 20l83 -2l78 2l2 -20l-64 -8l-153 -395
l-116 -218h-103z" />
    <glyph glyph-name="ygrave.ss01" horiz-adv-x="529" 
d="M277 547l-127 163h93l55 -163h-21zM88 -175v87h91l106 130l-56 -20l-163 416l-61 8l3 20l106 -2l102 2l2 -20l-63 -8l128 -334l4 -36l131 370l-59 8l2 20l83 -2l78 2l2 -20l-64 -8l-153 -395l-116 -218h-103z" />
    <glyph glyph-name="hcircumflex.ss02" horiz-adv-x="571" 
d="M1 744l115 111h45l116 -111h-31l-101 61l-7 5l-5 -5l-101 -61h-31zM36 -1l-3 20l70 8v641l-69 -8l-4 19l125 33l28 2v-338l164 104q81 0 105 -38.5t24 -123.5v-291l78 -8l-3 -20l-113 2l-91 -2l-3 20l51 8v306q0 45 -16.5 64.5t-49.5 19.5q-16 0 -36.5 -7.5t-32 -14
t-41.5 -24.5l-36 -22v-322l54 -8l-2 -20l-90 2z" />
    <glyph glyph-name="lacute.ss02" horiz-adv-x="270" 
d="M120 746l54 104h89l-111 -104h-32zM36 -1l-3 20l70 8v640l-69 -8l-4 20l125 33l28 2v-687l72 -8l-3 -20l-108 2z" />
    <glyph glyph-name="f_f_j.ss01.liga" horiz-adv-x="824" 
d="M555 -178v77h104l6 18q14 40 14 104v397l3 20l-18 -4h-189v-408l99 -6l-2 -21l-132 2l-101 -2l-3 20l59 7v408h-211v-408l98 -6l-2 -21l-133 2l-111 -2l-2 20l70 7v408h-79v8l15 21h64v2q0 48 11.5 78.5t37.5 59.5l82 93h152l-60 -71h-116l-11 -18q-16 -31 -16 -116v-31
h211v14q0 48 10 79t35 59l87 98h237v-91h-16l-69 20h-176l-12 -18q-16 -31 -16 -119v-42h191l66 10l27 2v-434q0 -64 -42 -111l-87 -105h-75z" />
    <glyph glyph-name="f_j.ss01.liga" horiz-adv-x="532" 
d="M264 -175v76h104l6 18q14 48 14 104v395l2 20l-17 -4h-189v-408l98 -6l-2 -21l-133 2l-111 -2l-2 20l70 7v408h-79v8l15 21h64v11q0 48 9.5 79t34.5 59l87 98h238v-92h-16l-70 21h-175l-12 -18q-16 -31 -16 -119v-42h191l65 10l28 2v-432q0 -61 -42 -110l-87 -105h-75z
" />
    <glyph glyph-name="f_y.ss01.liga" horiz-adv-x="805" 
d="M364 -175v87h91l105 130l-57 -19l-167 417h-152v-413l115 -6l-3 -22l-147 2l-112 -2l-3 20l70 8v408h-78v8l14 21h64v10q0 49 10 79.5t35 58.5l87 98h115v-71h-140l-11 -19q-16 -32 -16 -120v-35h303l3 -19l-64 -8l131 -333l4 -37l133 370l-59 8l2 20l84 -2l77 2l2 -20
l-64 -8l-153 -395l-116 -218h-103z" />
    <glyph glyph-name="g_g.ss01.liga" horiz-adv-x="953" 
d="M212 -177q-98 0 -145 30t-47 94v16l111 71q-49 15 -65.5 38.5t-16.5 60.5v8l98 56q-47 16 -74 46t-27 70q0 120 187 167q49 0 89 -18.5t61 -51.5l56 70h43l-4 -79h-60l-22 -13q11 -20 11 -41q0 -58 -44.5 -97.5t-142.5 -64.5q-26 0 -49 6l-51 -40q0 -52 53 -52h153
q58 0 88.5 -25.5t30.5 -65.5q0 -55 -64 -105t-169 -80zM690 -177q-101 0 -148.5 30t-47.5 94v16l104 71q-54 15 -72 38.5t-18 60.5v8l98 56q-47 16 -74.5 46t-27.5 70q0 120 187 167q49 0 89 -18.5t62 -51.5l55 70h49v-79h-70l-22 -13q11 -18 11 -41q0 -58 -44.5 -97.5
t-141.5 -64.5q-28 0 -49 6l-51 -40q0 -52 52 -52h176q58 0 88.5 -25.5t30.5 -65.5q0 -56 -65 -106t-171 -79zM236 217q42 0 65.5 26t23.5 71q0 51 -25 92.5t-82 41.5q-43 0 -66.5 -28.5t-23.5 -79.5q0 -28 8.5 -53.5t34 -47.5t65.5 -22zM694 217q42 0 65.5 26t23.5 71
q0 32 -8 59.5t-33.5 51t-65.5 23.5q-42 0 -65.5 -28.5t-23.5 -79.5q0 -28 8 -53.5t33.5 -47.5t65.5 -22zM215 -135q62 1 108.5 33.5t46.5 76.5q0 55 -93 55h-126q-53 -37 -53 -83q0 -36 32 -59t85 -23zM692 -135q63 1 111 33.5t48 76.5q0 55 -93 55h-139q-47 -40 -47 -83
q0 -36 32.5 -59t87.5 -23z" />
    <glyph glyph-name="k_y.ss01.liga" horiz-adv-x="969" 
d="M527 -175v86h92l104 131l-57 -20l-165 415h-60l-211 -171l40 -2l206 -237l47 -8l-2 -20l-80 2l-56 -2l-198 242l-4 12v-226l62 -8l-3 -20l-98 2l-108 -2l-3 20l70 8v640l-69 -7l-4 20l125 32l28 2v-449l13 5l197 168l-49 8v19h307l2 -19l-63 -8l131 -333l3 -37l134 370
l-60 8l3 20l83 -2l77 2l3 -20l-65 -8l-153 -395l-115 -218h-104z" />
    <glyph glyph-name="t_y.ss01.liga" horiz-adv-x="778" 
d="M337 -175v87h88l108 132l-56 -22l-168 418h-135v-329q0 -65 57 -65q40 0 87 26l9 -19l-120 -68q-71 0 -92 29t-21 96v324h-88v8l17 21h73v73l66 53h11v-124h287l2 -19l-63 -8l130 -332l4 -36l134 368l-59 8l2 20l85 -2l75 2l3 -20l-64 -8l-154 -395l-115 -218h-103z" />
    <glyph glyph-name="a.sc" horiz-adv-x="610" 
d="M23 -1l-2 18l61 7l195 472l51 21l200 -494l60 -6l-2 -18l-109 2l-106 -2l-2 18l68 7l-59 152h-200l-60 -152l70 -7l-2 -18l-87 2zM186 199h183l-85 223l-3 20z" />
    <glyph glyph-name="aacute.sc" horiz-adv-x="610" 
d="M294 561l55 149h92l-125 -149h-22zM23 -1l-2 18l61 7l195 472l51 21l200 -494l60 -6l-2 -18l-109 2l-106 -2l-2 18l68 7l-59 152h-200l-60 -152l70 -7l-2 -18l-87 2zM186 199h183l-85 223l-3 20z" />
    <glyph glyph-name="abreve.sc" horiz-adv-x="610" 
d="M315 562q-58 0 -97.5 39.5t-54.5 87.5l16 11q51 -75 123 -76q29 0 53.5 14.5t35.5 27t28 35.5l19 -12q-35 -77 -123 -127zM23 -1l-2 18l61 7l195 472l51 21l200 -494l60 -6l-2 -18l-109 2l-106 -2l-2 18l68 7l-59 152h-200l-60 -152l70 -7l-2 -18l-87 2zM186 199h183
l-85 223l-3 20z" />
    <glyph glyph-name="acircumflex.sc" horiz-adv-x="610" 
d="M169 561l116 150h40l116 -150h-27l-100 74l-9 10l-10 -10l-100 -74h-26zM23 -1l-2 18l61 7l195 472l51 21l200 -494l60 -6l-2 -18l-109 2l-106 -2l-2 18l68 7l-59 152h-200l-60 -152l70 -7l-2 -18l-87 2zM186 199h183l-85 223l-3 20z" />
    <glyph glyph-name="adieresis.sc" horiz-adv-x="610" 
d="M202 588l-23 4l-4 45l8 35l54 5l22 -5l5 -42l-8 -38zM372 588l-22 4l-4 45l8 35l54 5l22 -5l5 -42l-9 -38zM23 -1l-2 18l61 7l195 472l51 21l200 -494l60 -6l-2 -18l-109 2l-106 -2l-2 18l68 7l-59 152h-200l-60 -152l70 -7l-2 -18l-87 2zM186 199h183l-85 223l-3 20z
" />
    <glyph glyph-name="agrave.sc" horiz-adv-x="610" 
d="M294 561l-126 149h92l56 -149h-22zM23 -1l-2 18l61 7l195 472l51 21l200 -494l60 -6l-2 -18l-109 2l-106 -2l-2 18l68 7l-59 152h-200l-60 -152l70 -7l-2 -18l-87 2zM186 199h183l-85 223l-3 20z" />
    <glyph glyph-name="amacron.sc" horiz-adv-x="610" 
d="M165 619v41h280v-41h-280zM23 -1l-2 18l61 7l195 472l51 21l200 -494l60 -6l-2 -18l-109 2l-106 -2l-2 18l68 7l-59 152h-200l-60 -152l70 -7l-2 -18l-87 2zM186 199h183l-85 223l-3 20z" />
    <glyph glyph-name="aogonek.sc" horiz-adv-x="610" 
d="M462 1l-62 -117v-44q0 -64 111 -64v-19q-94 0 -135.5 25t-41.5 76v39l108 114l-64 165h-200l-60 -152l70 -7l-2 -18l-87 2l-76 -2l-2 18l61 7l195 472l51 21l200 -494l60 -6l-2 -17zM186 199h183l-85 223l-3 20z" />
    <glyph glyph-name="aring.sc" horiz-adv-x="610" 
d="M304 546q-44 0 -72.5 21t-28.5 66q0 22 6.5 36.5t24.5 25.5t28.5 15t39.5 14q43 0 72 -21.5t29 -66.5q0 -22 -6.5 -36.5t-24 -25t-29 -15t-39.5 -13.5zM303 573q28 0 46.5 17.5t18.5 44.5t-18.5 44t-46.5 17t-46 -17t-18 -44q0 -28 18 -45t46 -17zM23 -1l-2 18l61 7
l195 472l51 21l200 -494l60 -6l-2 -18l-109 2l-106 -2l-2 18l68 7l-59 152h-200l-60 -152l70 -7l-2 -18l-87 2zM186 199h183l-85 223l-3 20z" />
    <glyph glyph-name="atilde.sc" horiz-adv-x="610" 
d="M371 575l-176 70l-28 -71h-18l24 95l68 22l175 -70l29 70h17l-25 -98zM23 -1l-2 18l61 7l195 472l51 21l200 -494l60 -6l-2 -18l-109 2l-106 -2l-2 18l68 7l-59 152h-200l-60 -152l70 -7l-2 -18l-87 2zM186 199h183l-85 223l-3 20z" />
    <glyph glyph-name="ae.sc" horiz-adv-x="821" 
d="M21 0l-2 17l62 6l338 486l47 -1l303 1l4 -132h-18l-49 107l-199 1v-230l103 2l33 81h18l-4 -91l4 -96h-18l-33 81l-103 1v-210l206 1l54 111h18l-14 -136l-306 1l-107 -1l-2 18l69 7v209h-164l-143 -209l66 -7l-2 -17l-84 1zM274 255h151v225z" />
    <glyph glyph-name="aeacute.sc" horiz-adv-x="821" 
d="M543 561l55 149h92l-125 -149h-22zM21 0l-2 17l62 6l338 486l47 -1l303 1l4 -132h-18l-49 107l-199 1v-230l103 2l33 81h18l-4 -91l4 -96h-18l-33 81l-103 1v-210l206 1l54 111h18l-14 -136l-306 1l-107 -1l-2 18l69 7v209h-164l-143 -209l66 -7l-2 -17l-84 1zM274 255
h151v225z" />
    <glyph glyph-name="b.sc" horiz-adv-x="539" 
d="M41 -1l-2 18l69 7v460l-69 7l2 18l108 -1l157 1q73 0 113.5 -33t40.5 -79q0 -48 -42.5 -83t-103.5 -43q87 -2 133 -37t46 -88q0 -68 -56.5 -104t-156.5 -43l-134 2zM190 278h75q51 0 81 32.5t30 82.5q0 43 -27 69t-75 26l-84 -4v-206zM263 20q76 0 110 35t34 88
t-35.5 83.5t-93.5 30.5h-88v-233z" />
    <glyph glyph-name="c.sc" horiz-adv-x="585" 
d="M331 -12q-118 0 -201 68.5t-83 188.5q0 121 79.5 190.5t216.5 84.5q104 0 188 -46v-113h-26l-37 85q-49 49 -132 49q-87 0 -142.5 -61.5t-55.5 -173.5q0 -102 55.5 -173.5t157.5 -71.5q64 0 114 44l45 96h26l-10 -117q-88 -37 -195 -50z" />
    <glyph glyph-name="cacute.sc" horiz-adv-x="585" 
d="M322 561l55 149h92l-125 -149h-22zM331 -12q-118 0 -201 68.5t-83 188.5q0 121 79.5 190.5t216.5 84.5q104 0 188 -46v-113h-26l-37 85q-49 49 -132 49q-87 0 -142.5 -61.5t-55.5 -173.5q0 -102 55.5 -173.5t157.5 -71.5q64 0 114 44l45 96h26l-10 -117q-88 -37 -195 -50
z" />
    <glyph glyph-name="ccaron.sc" horiz-adv-x="585" 
d="M197 711h27l100 -74l9 -10l9 10l101 74h26l-116 -150h-40zM331 -12q-118 0 -201 68.5t-83 188.5q0 121 79.5 190.5t216.5 84.5q104 0 188 -46v-113h-26l-37 85q-49 49 -132 49q-87 0 -142.5 -61.5t-55.5 -173.5q0 -102 55.5 -173.5t157.5 -71.5q64 0 114 44l45 96h26
l-10 -117q-88 -37 -195 -50z" />
    <glyph glyph-name="ccedilla.sc" horiz-adv-x="585" 
d="M331 -12h-3l-25 -37q34 -2 58 -22.5t24 -53.5q0 -66 -85 -97l-60 -21h-40l25 36h76q31 21 31 65q0 30 -21.5 44.5t-53.5 16.5l49 70q-110 7 -184.5 74.5t-74.5 181.5q0 121 79.5 190.5t216.5 84.5q104 0 188 -46v-113h-26l-37 85q-49 49 -132 49q-87 0 -142.5 -61.5
t-55.5 -173.5q0 -102 55.5 -173.5t157.5 -71.5q64 0 114 44l45 96h26l-10 -117q-88 -37 -195 -50z" />
    <glyph glyph-name="ccircumflex.sc" horiz-adv-x="585" 
d="M197 561l116 150h40l116 -150h-27l-100 74l-9 10l-10 -10l-100 -74h-26zM331 -12q-118 0 -201 68.5t-83 188.5q0 121 79.5 190.5t216.5 84.5q104 0 188 -46v-113h-26l-37 85q-49 49 -132 49q-87 0 -142.5 -61.5t-55.5 -173.5q0 -102 55.5 -173.5t157.5 -71.5q64 0 114 44
l45 96h26l-10 -117q-88 -37 -195 -50z" />
    <glyph glyph-name="cdotaccent.sc" horiz-adv-x="565" 
d="M306 565l-20 5l-4 42l7 36l54 3l21 -4l4 -42l-8 -35zM320 -12q-117 0 -199.5 67.5t-82.5 186.5q0 121 79 190.5t216 86.5q106 0 186 -43v-124h-26l-36 87q-51 51 -131 51q-87 0 -142 -60.5t-55 -170.5q0 -103 55 -172t156 -69q67 0 113 48l45 98h26l-10 -128
q-79 -34 -194 -48z" />
    <glyph glyph-name="d.sc" horiz-adv-x="618" 
d="M41 -1l-2 18l72 7v460l-72 7l2 18l261 -1q125 1 197.5 -63t72.5 -179q0 -116 -70.5 -187.5t-203.5 -79.5l-148 2zM294 21q84 -1 136 65.5t52 173.5q0 103 -52 166t-153 62l-84 -4v-458z" />
    <glyph glyph-name="eth.sc" horiz-adv-x="600" 
d="M302 508q125 1 197.5 -63t72.5 -179q0 -116 -70.5 -187.5t-203.5 -79.5l-148 2l-109 -2l-2 18l72 7v228h-75v23h75v209l-72 7l2 18zM294 21q84 -1 136 65.5t52 173.5q0 103 -52 166t-153 62l-84 -4v-209h95v-23h-95v-226z" />
    <glyph glyph-name="dcaron.sc" horiz-adv-x="618" 
d="M141 711h27l100 -74l9 -10l9 10l101 74h26l-116 -150h-40zM41 -1l-2 18l72 7v460l-72 7l2 18l261 -1q125 1 197.5 -63t72.5 -179q0 -116 -70.5 -187.5t-203.5 -79.5l-148 2zM294 21q84 -1 136 65.5t52 173.5q0 103 -52 166t-153 62l-84 -4v-458z" />
    </font>
</defs>
</svg>
